<?xml version="1.0" standalone="no"?>
<!DOCTYPE svg PUBLIC "-//W3C//DTD SVG 1.1//EN" "http://www.w3.org/Graphics/SVG/1.1/DTD/svg11.dtd" >
<svg>
<metadata>
Created by FontForge 20110222 at Tue Sep  2 16:02:19 2014
 By deploy user
Copyright (c) 1999-2014 by Patrick Giasson. All rights reserved.
</metadata>
<defs>
<font id="AoOz-Bold" horiz-adv-x="705" >
  <font-face 
    font-family="Ao Oz"
    font-weight="700"
    font-stretch="normal"
    units-per-em="1000"
    panose-1="2 0 8 3 5 0 0 2 0 4"
    ascent="763"
    descent="-237"
    x-height="494"
    cap-height="703"
    bbox="-70 -243 1186 981"
    underline-thickness="20"
    underline-position="-113"
    unicode-range="U+0020-FB04"
  />
<missing-glyph horiz-adv-x="27" 
 />
    <glyph glyph-name="fi" unicode="fi" horiz-adv-x="604" 
d="M500 625q0 -34 -22 -51.5t-57 -17.5q-60 0 -78 40q-9 23 -38 23q-66 0 -66 -92v-41l28 -3q47 -5 47 -49q0 -52 -64 -60l-11 -1v-310q0 -34 -22.5 -50.5t-57.5 -16.5q-36 0 -59 16t-23 51l1 291q0 23 -20 29q-19 5 -28.5 13.5t-9.5 28.5q0 23 16.5 36t46.5 24
q12 112 73.5 166.5t163.5 54.5q180 0 180 -81zM584 56q0 -60 -113 -60q-103 0 -103 98v335q0 34 22.5 50t57.5 16q81 0 81 -66v-308q0 -12 8.5 -19t19 -10.5t19 -12.5t8.5 -23z" />
    <glyph glyph-name="fl" unicode="fl" horiz-adv-x="609" 
d="M239 373v-310q0 -34 -22.5 -50.5t-57.5 -16.5q-36 0 -59 16t-23 51l1 291q0 16 -9 23.5t-20 9t-20 10.5t-9 28q0 23 16.5 36t46.5 24q26 220 209 220q70 0 107 -22q23 18 62 18q75 0 75 -67l-1 -510q0 -12 8.5 -19t18.5 -9t18.5 -11.5t8.5 -25.5q0 -30 -38.5 -47
t-87.5 -17q-38 0 -64 22.5t-26 60.5v478h-10q-52 0 -66 39q-6 14 -22 14q-38 0 -36 -64q0 -6 0.5 -30t0.5 -29l22 -3q52 -5 52 -49q0 -52 -65 -60z" />
    <glyph glyph-name="ffi" unicode="ffi" horiz-adv-x="903" 
d="M376 63l1 380q0 71 18 120q-14 -9 -42 -9q-53 0 -66 39q-6 14 -20 14q-28 0 -28 -67q0 -47 1 -54l22 -3q52 -5 52 -49q0 -52 -65 -60l-10 -1v-310q0 -34 -22.5 -50.5t-57.5 -16.5q-81 0 -81 67v291q0 11 -4.5 18t-9.5 9.5t-15 5.5q-29 7 -29 38q0 23 16.5 36t46.5 24
q25 215 200 215q63 0 100 -17q39 -19 39 -62v-5q62 90 197 90q180 0 180 -81q0 -34 -22 -51.5t-58 -17.5q-59 0 -77 40q-10 23 -38 23q-67 0 -67 -92q0 -38 1 -41l22 -3q53 -5 53 -49q0 -51 -65 -60l-10 -1v-310q0 -34 -22.5 -50.5t-58.5 -16.5q-81 0 -81 67zM666 94v335
q0 34 22.5 50t58.5 16q80 0 80 -66v-308q0 -12 8.5 -19t19.5 -10.5t19.5 -12.5t8.5 -23q0 -24 -21 -38t-43.5 -18t-48.5 -4q-104 0 -104 98z" />
    <glyph glyph-name="ffl" unicode="ffl" horiz-adv-x="907" 
d="M78 63v291q0 11 -4.5 18t-9.5 9.5t-15 5.5q-29 7 -29 38q0 23 16.5 36t46.5 24q25 215 200 215q63 0 100 -17q39 -19 39 -62v-7q54 91 168 91q72 0 108 -23q22 19 62 19q74 0 74 -67v-510q0 -12 8.5 -19t18 -9t18 -11.5t8.5 -25.5q0 -30 -38.5 -47t-86.5 -17
q-38 0 -64 22.5t-26 60.5v478h-10q-53 0 -67 39q-6 14 -22 14q-36 0 -36 -64q0 -6 0.5 -30t0.5 -29l22 -3q53 -5 53 -49q0 -51 -65 -60l-10 -1v-310q0 -34 -22.5 -50.5t-58.5 -16.5q-81 0 -81 67l1 346q0 94 22 156q-17 -11 -46 -11q-53 0 -66 39q-6 14 -20 14
q-28 0 -28 -67q0 -47 1 -54l22 -3q52 -5 52 -49q0 -52 -65 -60l-10 -1v-310q0 -34 -22.5 -50.5t-57.5 -16.5q-81 0 -81 67z" />
    <glyph glyph-name="f_b" unicode="fb" horiz-adv-x="893" 
d="M865 267q0 -122 -70.5 -202t-187.5 -80q-53 0 -102 33q-22 13 -26 13q-7 0 -27 -15t-39 -15t-29.5 13t-10.5 33v509h-10q-52 0 -66 39q-6 14 -22 14q-38 0 -36 -64q0 -6 0.5 -30t0.5 -29l22 -3q52 -5 52 -49q0 -52 -65 -60l-10 -1v-310q0 -34 -22.5 -50.5t-57.5 -16.5
q-81 0 -81 67v291q0 25 -28 32q-30 9 -30 39q0 23 16.5 36t46.5 24q26 220 209 220q72 0 108 -23q20 20 60 20q72 0 72 -68v-198h3q55 69 144 69q92 0 139 -67.5t47 -170.5zM712 246q0 145 -88 145q-41 0 -67 -33.5t-26 -75.5v-138q0 -21 22 -39.5t44 -18.5q55 0 85 50
t30 110z" />
    <glyph glyph-name="f_f_b" unicode="ffb" horiz-adv-x="1191" 
d="M376 63l1 346q0 94 22 156q-17 -11 -46 -11q-53 0 -66 39q-6 14 -20 14q-28 0 -28 -67q0 -47 1 -54l22 -3q52 -5 52 -49q0 -52 -65 -60l-10 -1v-310q0 -34 -22.5 -50.5t-57.5 -16.5q-81 0 -81 67v291q0 11 -4.5 18t-9.5 9.5t-15 5.5q-29 7 -29 38q0 23 16.5 36t46.5 24
q25 215 200 215q63 0 100 -17q39 -19 39 -62v-7q54 91 168 91q72 0 108 -23q20 20 60 20q72 0 72 -68v-198h4q55 69 144 69q91 0 138 -68t47 -170q0 -122 -70 -202t-187 -80q-53 0 -102 33q-22 13 -27 13q-6 0 -26 -15t-39 -15q-40 0 -40 46v509h-10q-53 0 -67 39
q-6 14 -22 14q-36 0 -36 -64q0 -6 0.5 -30t0.5 -29l22 -3q53 -5 53 -49q0 -51 -65 -60l-10 -1v-310q0 -34 -22.5 -50.5t-58.5 -16.5q-81 0 -81 67zM1011 246q0 145 -89 145q-40 0 -66.5 -34t-26.5 -75v-138q0 -21 22 -39.5t44 -18.5q56 0 86 50t30 110z" />
    <glyph glyph-name="f_h" unicode="fh" horiz-adv-x="911" 
d="M159 -4q-81 0 -81 67v291q0 25 -28 32q-30 9 -30 39q0 23 16.5 36t46.5 24q26 220 209 220q72 0 108 -23q21 20 62 20q73 0 73 -68v-209h3q36 41 74 59.5t91 18.5q61 0 98.5 -38t37.5 -99q0 -101 -3 -245q0 -12 8 -18.5t18 -9t18 -11t8 -24.5q0 -33 -38.5 -48t-82.5 -15
q-37 0 -61 21.5t-23 58.5l2 246q0 61 -46 61q-33 0 -58 -21t-38 -54q-8 -24 -8 -37v-208q0 -67 -81 -67t-81 67v494h-10q-52 0 -66 39q-6 14 -22 14q-38 0 -36 -64q0 -6 0.5 -30t0.5 -29l22 -3q52 -5 52 -49q0 -52 -65 -60l-10 -1v-310q0 -34 -22.5 -50.5t-57.5 -16.5z" />
    <glyph glyph-name="f_f_h" unicode="ffh" horiz-adv-x="1210" 
d="M422 621v-7q54 91 168 91q73 0 109 -23q21 20 61 20q74 0 74 -68l-1 -209h4q35 41 73.5 59.5t91.5 18.5q61 0 98.5 -38t37.5 -99q0 -24 -1.5 -122.5t-1.5 -122.5q0 -12 8 -18.5t17.5 -9t17.5 -11t8 -24.5q0 -33 -38.5 -48t-82.5 -15q-37 0 -60.5 21.5t-23.5 58.5l2 246
q0 61 -45 61q-33 0 -58 -21t-38 -54q-8 -19 -8 -37v-208q0 -34 -23 -50.5t-58 -16.5q-81 0 -81 67v494h-10q-53 0 -67 39q-6 14 -22 14q-36 0 -36 -64q0 -6 0.5 -30t0.5 -29l22 -3q53 -5 53 -49q0 -51 -65 -60l-10 -1v-310q0 -34 -22.5 -50.5t-58.5 -16.5q-81 0 -81 67
l1 346q0 94 22 156q-17 -11 -46 -11q-53 0 -66 39q-6 14 -20 14q-28 0 -28 -67q0 -47 1 -54l22 -3q52 -5 52 -49q0 -52 -65 -60l-10 -1v-310q0 -34 -22.5 -50.5t-57.5 -16.5q-81 0 -81 67v291q0 11 -4.5 18t-9.5 9.5t-15 5.5q-29 7 -29 38q0 23 16.5 36t46.5 24
q25 215 200 215q63 0 100 -17q39 -19 39 -62z" />
    <glyph glyph-name="f_j" unicode="fj" horiz-adv-x="605" 
d="M500 625q0 -34 -22 -51.5t-57 -17.5q-60 0 -78 40q-9 23 -38 23q-66 0 -66 -92v-41l28 -3q47 -5 47 -49q0 -55 -68 -60l-7 -1v-310q0 -34 -22.5 -50.5t-57.5 -16.5q-36 0 -59 16t-23 51l1 291q0 24 -24 30q-11 4 -16.5 6.5t-11.5 11.5t-6 23q0 23 16.5 36t46.5 24
q12 112 73.5 166.5t163.5 54.5q180 0 180 -81zM530 24q0 -102 -42.5 -167.5t-136.5 -65.5q-55 0 -55 40q0 19 9 28.5t33 20.5q33 14 33 41q0 12 -1.5 47.5t-1.5 57.5v402q0 66 81 66q36 0 58.5 -16.5t22.5 -49.5v-404z" />
    <glyph glyph-name="f_f_j" unicode="ffj" horiz-adv-x="901" 
d="M376 63l1 380q0 66 18 120q-14 -9 -42 -9q-53 0 -66 39q-6 14 -20 14q-28 0 -28 -67q0 -47 1 -54l22 -3q52 -5 52 -49q0 -52 -65 -60l-10 -1v-310q0 -34 -22.5 -50.5t-57.5 -16.5q-81 0 -81 67v291q0 11 -4.5 18t-9.5 9.5t-15 5.5q-29 7 -29 38q0 23 16.5 36t46.5 24
q25 215 200 215q63 0 100 -17q39 -19 39 -62v-5q62 90 197 90q180 0 180 -81q0 -34 -22 -51.5t-58 -17.5q-59 0 -77 40q-10 23 -38 23q-67 0 -67 -92q0 -38 1 -41l22 -3q53 -5 53 -49q0 -51 -65 -60l-10 -1v-310q0 -34 -22.5 -50.5t-58.5 -16.5q-81 0 -81 67zM828 24
q0 -103 -42 -168t-136 -65q-55 0 -55 40q0 19 9 28.5t33 20.5q32 13 32 41q0 12 -1.5 47.5t-1.5 57.5v402q0 66 82 66q36 0 58 -16t22 -50v-404z" />
    <glyph glyph-name="f_k" unicode="fk" horiz-adv-x="866" 
d="M159 -4q-81 0 -81 67v291q0 25 -28 32q-30 9 -30 39q0 23 16.5 36t46.5 24q26 220 209 220q70 0 107 -22q22 19 61 19q73 0 73 -68v-318l163 161q30 32 67 32q20 0 38 -12.5t18 -35.5q0 -18 -17 -35l-136 -124l139 -188q11 -15 40 -23q10 -2 17.5 -12.5t7.5 -22.5
q0 -28 -35 -44.5t-81 -16.5q-57 0 -81 44l-119 181l-21 -20v-137q1 -34 -22 -50.5t-59 -16.5q-81 0 -81 67v493h-8q-52 0 -66 39q-6 14 -22 14q-38 0 -36 -64q0 -6 0.5 -30t0.5 -29l22 -3q52 -5 52 -49q0 -52 -65 -60l-10 -1v-310q0 -34 -22.5 -50.5t-57.5 -16.5z" />
    <glyph glyph-name="f_f_k" unicode="ffk" horiz-adv-x="1164" 
d="M422 621v-7q54 91 168 91q70 0 107 -22q22 19 61 19q74 0 74 -68v-318l163 161q30 32 66 32q21 0 39 -12.5t18 -35.5q0 -19 -18 -35l-135 -124l139 -188q11 -15 40 -23q10 -2 17 -12t7 -23q0 -28 -35 -44.5t-81 -16.5q-55 0 -81 44l-119 181l-21 -20l1 -137
q0 -34 -22.5 -50.5t-58.5 -16.5q-81 0 -81 67v493h-8q-53 0 -67 39q-6 14 -22 14q-36 0 -36 -64q0 -6 0.5 -30t0.5 -29l22 -3q53 -5 53 -49q0 -51 -65 -60l-10 -1v-310q0 -34 -22.5 -50.5t-58.5 -16.5q-81 0 -81 67l1 346q0 94 22 156q-17 -11 -46 -11q-53 0 -66 39
q-6 14 -20 14q-28 0 -28 -67q0 -47 1 -54l22 -3q52 -5 52 -49q0 -52 -65 -60l-10 -1v-310q0 -34 -22.5 -50.5t-57.5 -16.5q-81 0 -81 67v291q0 11 -4.5 18t-9.5 9.5t-15 5.5q-29 7 -29 38q0 23 16.5 36t46.5 24q25 215 200 215q63 0 100 -17q39 -19 39 -62z" />
    <glyph glyph-name=".notdef" horiz-adv-x="27" 
 />
    <glyph glyph-name=".null" horiz-adv-x="0" 
 />
    <glyph glyph-name="nonmarkingreturn" horiz-adv-x="333" 
 />
    <glyph glyph-name="space" unicode=" " horiz-adv-x="203" 
 />
    <glyph glyph-name="exclam" unicode="!" horiz-adv-x="356" 
d="M268 632q0 -52 -15 -183.5t-19 -191.5q-4 -42 -56 -42t-56 42q-4 55 -19 188.5t-15 186.5q0 34 25.5 51.5t64.5 17.5t64.5 -17.5t25.5 -51.5zM260 64q0 -33 -25.5 -55.5t-59.5 -22.5q-32 0 -55.5 20.5t-23.5 52.5q0 33 25.5 55.5t59.5 22.5q33 0 56 -20.5t23 -52.5z" />
    <glyph glyph-name="quotedbl" unicode="&#x22;" horiz-adv-x="468" 
d="M334 704q38 0 56.5 -28t18.5 -72q0 -43 -21.5 -105t-53.5 -62q-33 0 -54.5 62t-21.5 105q0 45 18.5 72.5t57.5 27.5zM133 704q39 0 57.5 -28t18.5 -72q0 -43 -21.5 -105t-54.5 -62q-32 0 -53.5 62t-21.5 105q0 44 18.5 72t56.5 28z" />
    <glyph glyph-name="numbersign" unicode="#" horiz-adv-x="711" 
d="M676 477q0 -61 -50 -61h-75l-23 -127h52q26 0 38.5 -16.5t12.5 -43.5q0 -60 -51 -61h-75l-24 -132q-7 -41 -60 -41q-21 0 -36 13t-15 34q0 6 1 11l22 115h-143l-24 -132q-7 -41 -60 -41q-21 0 -36 13t-15 34q0 6 1 12l22 114h-54q-25 0 -37 17t-12 43q0 61 49 61h76
l24 127h-54q-49 0 -49 60t49 60h76l24 126q8 43 59 43q22 0 37 -12t15 -32q0 -6 -1 -10l-22 -114h143l23 125q8 43 60 43q21 0 36.5 -12t15.5 -32q0 -6 -1 -10l-22 -114h53q25 0 37.5 -17t12.5 -43zM438 416h-142l-23 -127h142z" />
    <glyph glyph-name="dollar" unicode="$" horiz-adv-x="594" 
d="M554 188q0 -78 -57.5 -134t-153.5 -67v-40q0 -41 -51 -41q-50 0 -50 41v41q-129 16 -195 102q-14 19 -14 40q0 26 17 43.5t43 17.5t40 -14q77 -70 162 -70q40 0 64.5 20t24.5 52q0 35 -43 59q-5 3 -78 39.5t-113 63.5q-99 69 -99 170q0 82 56 131t142 61v40q0 43 50 43
q51 0 51 -43v-40q55 -6 111 -31q71 -30 71 -92q0 -40 -20.5 -57t-61.5 -17q-68 0 -79 49q-6 21 -27.5 31.5t-47.5 10.5q-34 0 -58.5 -19t-24.5 -55q0 -42 57 -76q29 -17 90.5 -47t87.5 -46q56 -34 81 -72t25 -94z" />
    <glyph glyph-name="percent" unicode="%" horiz-adv-x="813" 
d="M194 713q79 0 119.5 -47t40.5 -128q0 -80 -43 -134t-121 -54t-119 47.5t-41 128.5q0 79 43 133t121 54zM679 663q0 -17 -12 -32l-418 -601q-23 -34 -56 -34q-19 0 -39 10t-20 31q0 14 12 32l419 600q25 34 56 34q20 0 39 -10t19 -30zM623 350q78 0 119 -47.5t41 -127.5
t-43 -134t-121 -54t-119 47.5t-41 128.5q0 80 43 133.5t121 53.5zM248 538q0 94 -54 94q-57 0 -57 -108q0 -39 13 -66t40 -27q58 0 58 107zM677 175q0 96 -55 96q-58 0 -58 -110q0 -39 14 -66.5t41 -27.5q58 0 58 108z" />
    <glyph glyph-name="ampersand" unicode="&#x26;" horiz-adv-x="720" 
d="M655 104q46 -12 46 -43q0 -33 -40 -50q-33 -15 -74 -15q-48 0 -112 76q-81 -86 -199 -86q-97 0 -160 46t-63 145q0 51 27 96t56 68.5t60 40.5q-33 39 -49.5 74.5t-16.5 82.5q0 70 60 120t164 50q143 0 214 -83q17 -20 17 -47q0 -25 -16 -40q-16 -16 -42 -16q-25 0 -42 17
q-29 31 -52.5 43.5t-57.5 12.5q-39 0 -62.5 -17.5t-23.5 -50.5q0 -36 44 -84l151 -165l52 69q18 23 58 23q25 0 41.5 -14.5t16.5 -35.5q0 -17 -13 -36l-64 -86q-5 -5 -5 -9t6 -12l53 -55q15 -17 26 -19zM390 155q2 4 2 6q0 5 -4 9l-123 128q-69 -40 -69 -106
q0 -38 25.5 -60.5t67.5 -22.5q63 0 101 46z" />
    <glyph glyph-name="quotesingle" unicode="'" horiz-adv-x="273" 
d="M136 704q40 0 59 -27.5t19 -71.5q0 -43 -22 -105.5t-56 -62.5t-56 62.5t-22 105.5q0 44 19 71.5t59 27.5z" />
    <glyph glyph-name="parenleft" unicode="(" horiz-adv-x="363" 
d="M350 -41q13 -13 13 -36q0 -22 -14 -38t-39 -16q-33 0 -93.5 57.5t-102.5 151.5q-56 120 -56 270q0 157 61 281q43 89 101 143t90 54q24 0 38.5 -16t14.5 -38t-13 -36q-68 -71 -104 -159t-36 -229q0 -102 22 -181t48.5 -120t69.5 -88z" />
    <glyph glyph-name="parenright" unicode=")" horiz-adv-x="364" 
d="M14 736q-14 14 -14 36t14.5 38t39.5 16q32 0 92.5 -57t103.5 -151q56 -126 56 -271q0 -154 -62 -281q-43 -89 -101 -143t-89 -54q-25 0 -39.5 16t-14.5 38t14 36q68 72 103.5 160t35.5 228q0 147 -36.5 233t-102.5 156z" />
    <glyph glyph-name="asterisk" unicode="*" horiz-adv-x="376" 
d="M361 525q0 -30 -25 -35l-93 -15l15 -93q3 -25 -26 -34t-41 13l-45 83l-82 -42q-24 -11 -40 14q-18 25 -1 43l64 66l-64 67q-17 18 1 43q18 24 40 14l82 -42l45 83q13 22 41 13q29 -9 26 -35l-15 -92l93 -16q25 -5 25 -35z" />
    <glyph glyph-name="plus" unicode="+" horiz-adv-x="586" 
d="M551 329q0 -58 -48 -58h-144v-148q0 -53 -66 -53q-67 0 -67 53v148h-141q-25 0 -37.5 16t-12.5 42t12.5 42t37.5 16h141v146q0 55 67 55q66 0 66 -55v-146h144q48 0 48 -58z" />
    <glyph glyph-name="comma" unicode="," horiz-adv-x="283" 
d="M227 60q0 -47 -20 -91t-56 -74q-14 -12 -27 -12q-17 0 -28.5 11.5t-11.5 27.5q0 11 12.5 33t12.5 32q0 6 -9.5 12.5t-21 12t-21 21.5t-9.5 41q0 34 27.5 58.5t61.5 24.5q41 0 65.5 -27.5t24.5 -69.5z" />
    <glyph glyph-name="hyphen" unicode="-" horiz-adv-x="407" 
d="M375 262q0 -63 -51 -63h-238q-27 0 -40 17.5t-13 45.5q0 63 53 63h238q51 0 51 -63z" />
    <glyph glyph-name="period" unicode="." horiz-adv-x="275" 
d="M227 76q0 -37 -28 -63t-65 -26q-35 0 -60.5 23.5t-25.5 58.5q0 37 28 62.5t65 25.5q35 0 60.5 -23t25.5 -58z" />
    <glyph glyph-name="slash" unicode="/" horiz-adv-x="404" 
d="M376 704q0 -8 -3 -19l-216 -754q-17 -59 -82 -59q-24 0 -41 15t-17 40q0 8 4 22l214 746q18 62 82 62q24 0 41.5 -14.5t17.5 -38.5z" />
    <glyph glyph-name="zero" unicode="0" horiz-adv-x="643" 
d="M325 709q145 0 213 -95t68 -260q-1 -106 -30.5 -187t-96 -131t-163.5 -50q-144 0 -212.5 92.5t-68.5 256.5q0 166 73 270t217 104zM441 366q0 230 -115 230q-69 0 -98 -71.5t-29 -211.5q0 -213 114 -213q70 0 99 69.5t29 196.5z" />
    <glyph glyph-name="one" unicode="1" horiz-adv-x="339" 
d="M266 602l-3 -536q-1 -36 -24.5 -53t-60.5 -17q-38 0 -61.5 17t-22.5 53l3 487q0 10 -13 16t-26 15t-13 25q0 35 47.5 64.5t84.5 29.5q43 0 66.5 -28.5t22.5 -72.5z" />
    <glyph glyph-name="two" unicode="2" horiz-adv-x="560" 
d="M540 80q0 -33 -31.5 -52.5t-65.5 -19.5l-326 1q-43 0 -66 18.5t-23 63.5q0 44 32 78l269 278q37 39 37 81q0 33 -22.5 49.5t-57.5 16.5q-32 0 -52 -10t-29 -39q-13 -41 -76 -41q-40 0 -55.5 18.5t-15.5 59.5q0 46 41.5 75t96.5 41q49 11 99 11q88 0 157.5 -46.5
t69.5 -131.5q0 -93 -72 -167l-224 -229q-2 -2 -2 -5t4 -3l181 -1q23 0 45 4t34 4q22 0 37 -16t15 -38z" />
    <glyph glyph-name="three" unicode="3" horiz-adv-x="570" 
d="M533 200q0 -98 -75.5 -156.5t-198.5 -58.5q-130 0 -204 55q-34 21 -34 57q0 42 19 61.5t61 19.5q61 0 72 -36q8 -26 23.5 -37.5t56.5 -11.5q50 0 81 27.5t31 79.5q0 53 -34 79.5t-88 26.5h-38q-23 0 -36.5 15t-13.5 40t13.5 40.5t38.5 16.5q146 5 146 103q0 74 -91 74
q-34 0 -60 -12.5t-59 -45.5q-15 -16 -39 -16q-27 0 -43 15.5t-16 39.5q0 26 16 47q68 87 224 87q102 0 164 -49t62 -123q0 -117 -115 -163q137 -31 137 -175z" />
    <glyph glyph-name="four" unicode="4" horiz-adv-x="575" 
d="M570 208q-1 -24 -22 -43.5t-57 -25.5l-13 -1v-74q0 -73 -80 -73q-37 0 -57.5 17.5t-19.5 55.5l2 71h-208q-102 0 -102 76q0 36 24 72l252 375q19 29 42 39t60 10t61 -17.5t25 -54.5l1 -379q12 0 23 2t17 2q23 0 37.5 -15t14.5 -37zM326 249l7 275l-3 1l-171 -273l2 -3
h165z" />
    <glyph glyph-name="five" unicode="5" horiz-adv-x="555" 
d="M525 226q0 -110 -73 -174.5t-194 -64.5q-84 0 -145 23.5t-78 68.5q-10 21 -7 43q4 57 74 57q60 0 69 -33q9 -29 22.5 -40t57.5 -11q48 0 79 33t31 86q0 124 -187 124q-9 0 -24 -1.5t-23 -1.5q-26 0 -45.5 13t-17.5 39l15 197q4 49 33.5 79.5t72.5 30.5h248q27 0 43.5 -16
t16.5 -42q0 -27 -15.5 -45.5t-43.5 -18.5q-8 0 -22.5 1.5t-21.5 1.5h-151q-12 0 -12 -15l-8 -119q111 0 183 -31q62 -26 92.5 -78t30.5 -106z" />
    <glyph glyph-name="six" unicode="6" horiz-adv-x="596" 
d="M558 236q0 -112 -74.5 -181.5t-187.5 -69.5q-131 0 -194 79t-63 215q0 246 142 360q90 72 216 72q97 0 97 -62q0 -27 -22 -40t-52 -13q-81 0 -136 -39q-65 -48 -83 -171q59 68 150 68q95 0 151 -61t56 -157zM402 225q0 47 -23.5 84t-67.5 37q-50 0 -81.5 -36t-31.5 -92
q0 -53 23 -91t73 -38q108 0 108 136z" />
    <glyph glyph-name="seven" unicode="7" horiz-adv-x="502" 
d="M60 696l354 -1q34 0 53.5 -5.5t31.5 -24.5q16 -23 16 -51q0 -35 -26 -64q-83 -92 -148 -210q-75 -142 -76 -278q0 -36 -22 -53.5t-58 -17.5q-84 0 -84 72q0 70 23.5 155t65.5 154q68 112 151 196q2 2 2 4q0 4 -6 4h-195l-4 -11q-10 -30 -70 -30q-78 0 -78 75q0 86 70 86z
" />
    <glyph glyph-name="eight" unicode="8" horiz-adv-x="597" 
d="M565 202q0 -71 -40 -122t-99 -73.5t-129 -22.5q-53 0 -98.5 11t-84.5 34.5t-61.5 65.5t-22.5 99q0 61 41 109t99 64q-109 59 -109 159q0 65 39 108.5t93 60t118 16.5q88 0 156 -43.5t68 -127.5q0 -56 -31 -97.5t-84 -58.5q145 -70 145 -182zM394 527q0 40 -24.5 59.5
t-65.5 19.5q-40 0 -66.5 -18.5t-26.5 -57.5q0 -20 8.5 -35.5t25.5 -27t31 -18t37 -15.5q33 10 57 35t24 58zM402 188q0 75 -81 106l-44 17q-40 -15 -64.5 -45.5t-24.5 -72.5q0 -51 29 -77t80 -26q47 0 76 25.5t29 72.5z" />
    <glyph glyph-name="nine" unicode="9" horiz-adv-x="583" 
d="M544 416q0 -246 -142 -360q-90 -72 -217 -72q-97 0 -97 62q0 28 22 41t53 13q83 0 136 39q67 49 83 170q-58 -67 -149 -67q-96 0 -152 61t-56 157q0 111 75 180.5t187 69.5q131 0 194 -79t63 -215zM386 478q0 53 -23.5 91t-72.5 38q-108 0 -108 -137q0 -47 23 -83.5
t67 -36.5q53 0 83.5 36t30.5 92z" />
    <glyph glyph-name="colon" unicode=":" horiz-adv-x="277" 
d="M228 413q0 -37 -27.5 -62.5t-64.5 -25.5q-35 0 -61 23.5t-26 58.5q0 37 28 62.5t65 25.5q35 0 60.5 -23.5t25.5 -58.5zM227 75q0 -37 -28 -62.5t-65 -25.5q-35 0 -60.5 23.5t-25.5 58.5q0 36 27.5 62t64.5 26q36 0 61.5 -23.5t25.5 -58.5z" />
    <glyph glyph-name="semicolon" unicode=";" horiz-adv-x="283" 
d="M228 413q0 -37 -28 -62.5t-65 -25.5q-35 0 -60.5 23.5t-25.5 58.5q0 36 27.5 62t64.5 26q35 0 61 -23.5t26 -58.5zM227 60q0 -47 -20 -91t-56 -74q-14 -12 -27 -12q-17 0 -28.5 11.5t-11.5 27.5q0 11 12.5 33t12.5 32q0 6 -9.5 12.5t-21 12t-21 21.5t-9.5 41
q0 34 27.5 58.5t61.5 24.5q41 0 65.5 -27.5t24.5 -69.5z" />
    <glyph glyph-name="less" unicode="&#x3c;" horiz-adv-x="602" 
d="M475 630q22 0 42 -17.5t20 -38.5q0 -26 -35 -48l-309 -190v-4l308 -195q35 -21 35 -48q0 -21 -21 -38.5t-42 -17.5q-22 0 -50 18l-347 216q-38 23 -38 64q0 42 38 65l348 216q31 18 51 18z" />
    <glyph glyph-name="equal" unicode="=" horiz-adv-x="561" 
d="M526 429q0 -60 -49 -60h-391q-26 0 -38.5 16.5t-12.5 43.5t12.5 44t38.5 17h391q49 0 49 -61zM526 215q0 -61 -49 -61h-391q-26 0 -38.5 16.5t-12.5 43.5t12.5 44t38.5 17h391q49 0 49 -60z" />
    <glyph glyph-name="greater" unicode="&#x3e;" horiz-adv-x="602" 
d="M127 33q-22 0 -42 17t-20 39q0 25 35 48l309 190v4l-308 194q-35 22 -35 48q0 21 21 39t42 18q19 0 50 -18l347 -216q38 -24 38 -65t-38 -65l-348 -215q-28 -18 -51 -18z" />
    <glyph glyph-name="question" unicode="?" horiz-adv-x="496" 
d="M473 541q0 -54 -33.5 -99.5t-87.5 -75.5q-40 -23 -54.5 -42t-14.5 -61q0 -22 -18 -35t-47 -13q-72 0 -72 79q0 49 25.5 81t77.5 63q67 39 67 96q0 33 -21.5 49t-55.5 16q-25 0 -44 -9q-18 -9 -23 -32q-9 -36 -68 -36q-38 0 -57 15t-19 52q0 33 12.5 52.5t43.5 32.5
q73 33 161 33q46 0 84.5 -8t72 -26t52.5 -51.5t19 -80.5zM297 65q0 -33 -25.5 -55.5t-59.5 -22.5q-32 0 -55.5 21t-23.5 52q0 32 26 55t60 23q32 0 55 -20.5t23 -52.5z" />
    <glyph glyph-name="at" unicode="@" horiz-adv-x="792" 
d="M757 388q0 -108 -58 -164t-135 -56q-69 0 -97 59h-6q-34 -57 -117 -57q-61 0 -93 45t-32 121q0 135 106 186q37 17 71 17q48 0 79 -23q9 -7 18 -7q6 0 14.5 7t18.5 7q26 0 26 -26v-215q0 -44 31 -44q39 0 61 40.5t22 100.5q0 117 -72.5 185.5t-190.5 68.5
q-120 0 -196 -77t-76 -207q0 -129 71.5 -207t188.5 -78q42 0 89 12t77 32q18 12 29 12q14 0 26.5 -12.5t12.5 -27.5q0 -12 -10 -22q-80 -72 -226 -72q-158 0 -256 99t-98 264t105 263.5t264 98.5q160 0 256.5 -89t96.5 -234zM447 319v111q0 17 -11 28t-28 11
q-38 0 -61 -36.5t-23 -80.5q0 -101 56 -101q28 0 47.5 20t19.5 48z" />
    <glyph glyph-name="A" unicode="A" horiz-adv-x="701" 
d="M704 63q0 -32 -39.5 -48.5t-76.5 -16.5q-92 0 -111 71l-31 97h-244l-38 -103q-12 -35 -29 -49.5t-57 -14.5q-25 0 -45 13t-20 39q0 15 8 37l210 512q4 8 4 11t-1 11t-1 12q0 33 45.5 51.5t84.5 18.5q43 0 69 -22.5t37 -53.5l171 -496q6 -15 29 -24q35 -13 35 -45z
M416 278l-75 242q-1 6 -4 6q-5 0 -6 -6l-88 -242h173z" />
    <glyph glyph-name="B" unicode="B" horiz-adv-x="654" 
d="M611 200q0 -57 -21.5 -98t-60 -63.5t-83.5 -32.5t-100 -10q-74 0 -114 11l-28 5q-6 0 -30 -7.5t-41 -7.5q-31 0 -50.5 18t-19.5 49v522q0 42 30 74t72 32q10 0 30 -2t31 -2q18 0 54 4t55 4q115 0 175 -47q65 -51 65 -142q0 -46 -26 -83.5t-68 -55.5q130 -49 130 -168z
M424 494q0 92 -103 92q-45 0 -68.5 -10t-23.5 -39v-110q0 -22 28 -22h74q42 0 67.5 23t25.5 66zM449 209q0 48 -37 76q-29 22 -87 22q-11 0 -95 -4l-1 -153q0 -21 18.5 -31.5t45.5 -10.5h35q58 0 89.5 22.5t31.5 78.5z" />
    <glyph glyph-name="C" unicode="C" horiz-adv-x="655" 
d="M37 334q0 156 93.5 266.5t234.5 110.5q107 0 195 -52q53 -30 53 -77q0 -16 -1 -25q-6 -59 -85 -59q-65 0 -77 46t-73 46q-63 0 -105 -58q-53 -66 -53 -193q0 -224 158 -224q40 0 68.5 12.5t63.5 40.5q22 18 43 18q26 0 45.5 -18.5t19.5 -42.5q0 -17 -18 -42
q-76 -97 -241 -97q-164 0 -242.5 94t-78.5 254z" />
    <glyph glyph-name="D" unicode="D" horiz-adv-x="679" 
d="M340 705q152 0 227 -95.5t75 -248.5q0 -168 -94 -271q-84 -94 -217 -94q-23 0 -64 6.5t-52 6.5q-10 0 -30 -6t-32 -6q-34 0 -55 17.5t-20 51.5l3 497q0 11 -8.5 17.5t-18 9.5t-18 12.5t-8.5 25.5q0 25 21 41.5t46.5 22.5t51.5 6q44 0 72 -18q59 25 121 25zM468 367
q0 97 -33 160t-100 63q-83 0 -83 -51l-3 -393q0 -19 22 -27t46 -8q57 0 92.5 40t47 93.5t11.5 122.5z" />
    <glyph glyph-name="E" unicode="E" horiz-adv-x="622" 
d="M83 84v473q0 12 -8.5 20t-19 11.5t-19 13t-8.5 24.5q0 68 133 68h345q27 0 45 -15.5t18 -41.5q0 -29 -16.5 -47.5t-45.5 -18.5q-11 0 -34 1t-35 1q-20 0 -83.5 0.5t-84.5 0.5q-15 0 -15 -19v-141q17 0 91 1t111 1q56 0 56 -59q0 -58 -58 -58h-200v-156q0 -18 16 -18h203
q11 0 33.5 3.5t34.5 3.5q22 0 37 -13.5t15 -36.5q0 -35 -32 -55.5t-68 -20.5h-316q-42 0 -68.5 19t-26.5 59z" />
    <glyph glyph-name="F" unicode="F" horiz-adv-x="574" 
d="M83 68v489q0 12 -8.5 20t-19 11.5t-19 13t-8.5 24.5q0 68 133 68h334q27 0 44 -15t17 -41q0 -29 -16 -49t-45 -20q-11 0 -31.5 1.5t-30.5 1.5h-161q-16 0 -16 -17v-138l176 2q27 0 41 -16.5t14 -43.5t-14.5 -43t-41.5 -16l-175 1v-233q0 -37 -24.5 -54.5t-62.5 -17.5
t-62 17.5t-24 54.5z" />
    <glyph glyph-name="G" unicode="G" horiz-adv-x="673" 
d="M548 336q53 0 73 -23.5t20 -78.5q0 -42 -6 -92q-4 -36 -20 -57q-78 -96 -257 -96q-158 0 -239.5 89.5t-81.5 252.5q0 157 93 269.5t243 112.5q105 0 190 -52q51 -30 51 -77q0 -44 -18.5 -62.5t-62.5 -18.5q-69 0 -79 45q-12 47 -75 47q-64 0 -105 -58q-54 -70 -54 -201
q0 -224 154 -224q72 0 111 33q4 48 4 67q1 9 -7 14.5t-18 8.5t-18 12.5t-8 25.5q0 32 37 47.5t73 15.5z" />
    <glyph glyph-name="H" unicode="H" 
d="M676 63q0 -35 -38.5 -51.5t-81.5 -16.5q-54 0 -80.5 25.5t-25.5 79.5v190h-196l-1 -220q-1 -37 -25 -55t-63 -18q-38 0 -62 17.5t-23 54.5l3 496q0 12 -8.5 20t-19 11.5t-19 13t-8.5 24.5q0 25 21.5 41t47 21.5t52.5 5.5q54 0 80.5 -25.5t25.5 -79.5v-177h196l1 207
q1 37 24.5 55t62.5 18q38 0 62.5 -18t23.5 -55l-4 -494q0 -12 8.5 -20t19 -11.5t19 -13t8.5 -25.5z" />
    <glyph glyph-name="I" unicode="I" horiz-adv-x="330" 
d="M262 599l-3 -530q-1 -37 -26.5 -54.5t-63.5 -17.5t-63.5 17.5t-24.5 54.5l3 499q0 11 -9 18t-19 10t-19 13t-9 26q0 25 22.5 41.5t48 21.5t51.5 5q53 0 82.5 -26t29.5 -78z" />
    <glyph glyph-name="J" unicode="J" horiz-adv-x="352" 
d="M284 53q0 -105 -51.5 -170.5t-152.5 -65.5q-149 0 -149 79q0 42 18 60t62 18q59 0 70 -42q3 -16 12 -16q14 0 14 39q0 9 -1 26t-1 25v562q0 12 -8.5 18.5t-19 9.5t-19 13t-8.5 26q0 35 39 51.5t83 16.5q52 0 81.5 -26t29.5 -77z" />
    <glyph glyph-name="K" unicode="K" horiz-adv-x="677" 
d="M669 57q0 -24 -23.5 -39t-47 -19t-46.5 -4q-42 0 -69 19t-48 58l-147 222l-30 -30l-1 -194q0 -37 -24.5 -55t-63.5 -18q-40 0 -65 18t-24 55l4 495q0 13 -9 20.5t-19 10.5t-19 13t-9 26q0 35 41 51t81 16q110 0 110 -105l-1 -189l211 245q35 45 74 45q25 0 48.5 -12.5
t23.5 -39.5q0 -22 -21 -46l-187 -207q-3 -3 -3 -6t3 -7l184 -250q10 -15 38 -25q39 -14 39 -48z" />
    <glyph glyph-name="L" unicode="L" horiz-adv-x="570" 
d="M262 599l-1 -449q0 -19 19 -19h168q12 0 34 4t34 4q23 0 39 -16t16 -39q0 -35 -33.5 -55t-70.5 -20h-283q-100 0 -100 87v472q0 11 -9 18t-19 10t-19 13t-9 26q0 25 22.5 41.5t48 21.5t51.5 5q53 0 82.5 -26t29.5 -78z" />
    <glyph glyph-name="M" unicode="M" horiz-adv-x="821" 
d="M792 65q0 -36 -37.5 -52t-78.5 -16q-54 0 -79.5 25t-24.5 78l3 343l-4 1l-115 -228q-23 -48 -67 -48t-66 48l-110 229l-3 -1l-1 -377q0 -70 -70 -70q-67 0 -67 68l4 501q0 13 -7.5 21t-16.5 11t-16.5 12.5t-7.5 24.5q0 21 13.5 36t36 21t41 8.5t37.5 2.5q78 0 115 -70
l143 -275h3l135 276q17 35 40 51.5t60 16.5q41 0 65 -17t23 -56l-4 -494q0 -16 14 -23.5t28 -17t14 -29.5z" />
    <glyph glyph-name="N" unicode="N" horiz-adv-x="702" 
d="M83 565q0 12 -8.5 20t-19 11.5t-19 13t-8.5 24.5q0 36 38.5 52t83.5 16q83 0 116 -60l230 -380l3 2l-5 364q0 39 16.5 56.5t54.5 17.5q69 0 69 -67l-4 -563q0 -35 -24 -55.5t-59 -20.5q-65 0 -101 64l-224 369l-3 -1l3 -358q0 -73 -72 -73q-36 0 -53.5 17t-16.5 52z" />
    <glyph glyph-name="O" unicode="O" horiz-adv-x="707" 
d="M358 709q154 0 233.5 -95t79.5 -253q0 -163 -82.5 -268.5t-239.5 -105.5q-155 0 -233.5 94.5t-78.5 253.5q0 162 82 268t239 106zM494 379q0 92 -33.5 153.5t-101.5 61.5q-147 0 -147 -279q0 -90 32.5 -151t99.5 -61q150 0 150 276z" />
    <glyph glyph-name="P" unicode="P" horiz-adv-x="656" 
d="M616 482q0 -74 -23 -124q-66 -145 -249 -145q-45 0 -90 9l-1 -155q0 -35 -25.5 -52.5t-62.5 -17.5q-87 0 -87 75l2 489q0 11 -8 18t-18 9.5t-18 12t-8 25.5q0 36 38.5 53t82.5 17q35 0 72 -17q67 24 127 24q64 0 107 -9t84 -38q77 -55 77 -174zM450 475q0 116 -107 116
q-20 0 -38.5 -3.5t-35 -15.5t-16.5 -32v-188q0 -31 64 -31q67 0 100 41.5t33 112.5z" />
    <glyph glyph-name="Q" unicode="Q" horiz-adv-x="708" 
d="M671 363q0 -65 -14 -123.5t-42.5 -109.5t-77.5 -87t-114 -49q35 -33 58 -50q16 -11 39 -12q46 -2 46 -40q0 -37 -39.5 -57t-81.5 -20q-45 0 -69 16.5t-44 58.5q-8 14 -17.5 34.5t-18 41t-11.5 26.5q-126 21 -187 113.5t-61 226.5q0 78 19.5 145t57.5 119.5t101 82.5
t143 30q154 0 233.5 -94.5t79.5 -251.5zM492 376q0 94 -32 155t-101 61q-44 0 -73.5 -24t-44 -68t-19.5 -88.5t-5 -102.5q0 -86 33 -146t96 -60q146 0 146 273z" />
    <glyph glyph-name="R" unicode="R" horiz-adv-x="685" 
d="M669 52q0 -54 -95 -54q-37 0 -66 17t-56 64q-13 17 -43 80.5t-51 83.5q-30 26 -76 26q-16 0 -30 -3v-199q-1 -35 -25.5 -53t-60.5 -18q-41 0 -64.5 18.5t-22.5 57.5l3 490q0 10 -8.5 16.5t-18 9t-18 12t-8.5 25.5q0 36 38.5 53.5t83.5 17.5q32 0 68 -17q63 23 126 23
q62 0 103.5 -8.5t82.5 -37.5q74 -53 74 -161q0 -62 -38.5 -110.5t-101.5 -66.5v-4q28 -9 59.5 -46t57.5 -95q17 -38 26.5 -52t21.5 -21q39 -23 39 -48zM444 486q0 104 -102 104q-90 0 -90 -49l-1 -145q0 -13 9 -20t17.5 -8t23.5 -1h20q56 1 89.5 32t33.5 87z" />
    <glyph glyph-name="S" unicode="S" horiz-adv-x="584" 
d="M549 190q0 -81 -70 -142t-195 -61q-167 0 -243 94q-15 18 -15 40q0 26 18.5 45.5t44.5 19.5q23 0 40 -14q71 -63 156 -63q68 0 87 45q5 11 5 26q0 32 -44 60q-3 2 -80.5 40t-110.5 62q-49 36 -73 73t-24 94q0 96 74 148t170 52t167 -31q70 -30 70 -92q0 -18 -3 -29
q-12 -45 -76 -45q-72 0 -82 49q-7 39 -75 39q-36 0 -59 -19.5t-23 -54.5q0 -40 56 -76q33 -21 98.5 -53t80.5 -40q106 -61 106 -167z" />
    <glyph glyph-name="T" unicode="T" horiz-adv-x="632" 
d="M616 637q0 -29 -17.5 -50t-44.5 -21q-18 0 -40 2q-16 2 -63 2q-32 0 -43 -2.5t-11 -11.5l-1 -487q0 -35 -24 -53.5t-64 -18.5t-64 18t-24 54l1 490q0 11 -58 11q-43 0 -61 -2q-15 -2 -41 -2q-25 0 -40.5 19t-15.5 45q0 29 18 46.5t46 17.5h486q27 0 44 -15t17 -42z" />
    <glyph glyph-name="U" unicode="U" 
d="M636 642q0 -199 -3 -415q-1 -117 -78 -178t-198 -61q-146 0 -212 67t-65 194q0 136 3 319q0 11 -8.5 17.5t-19 9.5t-19 13t-8.5 26q0 25 21.5 41.5t47 22t52.5 5.5q51 0 80 -26.5t29 -77.5q0 -35 -1.5 -188t-1.5 -188q0 -55 29 -84t84 -29q54 0 85 29.5t31 82.5l3 420
q1 29 23 44t53 15t52 -14.5t21 -44.5z" />
    <glyph glyph-name="V" unicode="V" horiz-adv-x="663" 
d="M650 646q0 -16 -6 -35l-193 -513q-40 -105 -127 -105q-47 0 -79.5 29t-45.5 75l-143 471q-3 11 -13 18t-20 10t-18 14t-8 30q0 31 38.5 47t73.5 16q97 0 113 -71l120 -458h5l155 461q11 35 28.5 48.5t55.5 13.5q26 0 45 -12t19 -39z" />
    <glyph glyph-name="W" unicode="W" horiz-adv-x="976" 
d="M955 646q0 -16 -5 -31l-167 -518q-34 -105 -114 -105q-90 0 -117 95l-57 204l-59 -195q-31 -104 -121 -104q-47 0 -78 27.5t-43 73.5l-133 474q-3 11 -13.5 17.5t-20.5 9.5t-18.5 14.5t-8.5 31.5q0 31 39 46.5t74 15.5q98 0 114 -71l114 -457h6l91 311l-26 105
q-5 20 -5 35q0 76 97 76q65 0 77 -73l93 -453h6l133 459q9 34 25.5 48t52.5 14q64 0 64 -50z" />
    <glyph glyph-name="X" unicode="X" horiz-adv-x="643" 
d="M621 61q0 -34 -37.5 -49t-76.5 -15q-40 0 -63.5 17.5t-50.5 62.5l-95 153l-131 -190q-31 -43 -75 -43q-29 0 -49.5 12.5t-20.5 36.5q0 23 19 49l178 247q3 4 3 8q0 3 -2 9l-127 205q-8 13 -26.5 20t-31 17t-12.5 34q0 25 23.5 41t48 20.5t47.5 4.5q37 0 60 -18t46 -57
l86 -140l123 169q30 43 70 43q28 0 49.5 -12.5t21.5 -38.5q0 -19 -17 -44l-170 -232q-3 -5 -3 -7q0 -4 3 -9l136 -220q14 -20 38 -27q36 -10 36 -47z" />
    <glyph glyph-name="Y" unicode="Y" horiz-adv-x="621" 
d="M219 275l-156 296q-8 17 -25 23q-38 13 -38 43t35.5 47.5t77.5 17.5q82 0 113 -70l107 -229h4l132 249q13 24 28 34t42 10t48 -12t21 -38q0 -20 -12 -39l-198 -330v-209q0 -37 -25 -54.5t-64 -17.5q-90 0 -90 72v207z" />
    <glyph glyph-name="Z" unicode="Z" horiz-adv-x="592" 
d="M569 80q0 -33 -33 -53.5t-68 -20.5h-343q-103 0 -103 78q0 34 25 67l292 407q4 6 4 10q0 5 -7 5h-194q-10 0 -28 -1t-28 -1q-27 0 -43.5 15.5t-16.5 42.5q0 29 16 46.5t45 17.5h372q97 0 97 -77q0 -35 -24 -68l-294 -408q-3 -4 -3 -7q0 -6 9 -6h205q15 0 35.5 3.5
t30.5 3.5q23 0 38.5 -15.5t15.5 -38.5z" />
    <glyph glyph-name="bracketleft" unicode="[" horiz-adv-x="358" 
d="M321 757q0 -53 -53 -50h-27v-735h26q53 3 53 -50q0 -49 -51 -49h-91q-80 0 -80 66v800q0 34 22 50.5t58 16.5h91q52 0 52 -49z" />
    <glyph glyph-name="backslash" unicode="\" horiz-adv-x="405" 
d="M93 757q32 0 49.5 -14.5t26.5 -47.5l215 -746q2 -7 2 -20q0 -26 -17.5 -41.5t-43.5 -15.5q-33 0 -50.5 13t-27.5 45l-215 755q-3 11 -3 19q0 25 18.5 39t45.5 14z" />
    <glyph glyph-name="bracketright" unicode="]" horiz-adv-x="357" 
d="M260 -60q0 -34 -22.5 -50.5t-58.5 -16.5h-91q-51 0 -51 49q0 51 53 50h27v735h-27q-53 -3 -53 50q0 49 51 49h91q36 0 58.5 -16t22.5 -50v-800z" />
    <glyph glyph-name="asciicircum" unicode="^" horiz-adv-x="551" 
d="M274 704q44 0 68 -38l145 -235q14 -23 14 -42q0 -21 -18.5 -34t-43.5 -13q-37 0 -64 47l-92 159q-6 6 -9 6q-4 0 -8 -6l-89 -159q-27 -47 -64 -47q-25 0 -44 13t-19 34q0 19 15 42l142 235q23 38 67 38z" />
    <glyph glyph-name="underscore" unicode="_" horiz-adv-x="541" 
d="M513 -42q0 -41 -33 -41h-416q-35 0 -35 42q0 40 35 40h416q33 0 33 -41z" />
    <glyph glyph-name="grave" unicode="`" horiz-adv-x="396" 
d="M89 695q0 23 21 40.5t46 17.5q30 0 50 -23q9 -11 42.5 -57.5t38.5 -55.5q6 -12 6 -22q0 -16 -15.5 -28.5t-31.5 -12.5t-30 10q-16 10 -54.5 43t-48.5 44q-24 24 -24 44z" />
    <glyph glyph-name="a" unicode="a" horiz-adv-x="534" 
d="M520 69q0 -28 -37 -49.5t-79 -21.5q-30 0 -49.5 18t-25.5 46l-1 17q-56 -84 -159 -84q-69 0 -106.5 39t-37.5 102q0 65 35.5 100.5t104.5 49.5l153 32v32q0 30 -18 46.5t-48 16.5t-41.5 -8.5t-17.5 -28.5q-8 -25 -25 -35t-48 -10q-62 0 -62 59q0 31 12 48.5t52 36.5
q62 33 136 33q109 0 160.5 -47t51.5 -146v-181q0 -13 5.5 -19t20.5 -11q24 -8 24 -35zM319 196v32q0 9 -9 9q-5 0 -9 -1l-81 -18q-50 -10 -50 -59v-4q0 -22 14 -35t33 -13q67 0 94 56q8 16 8 33z" />
    <glyph glyph-name="b" unicode="b" horiz-adv-x="576" 
d="M548 267q0 -122 -70.5 -202t-187.5 -80q-53 0 -102 33q-22 13 -26 13q-6 0 -27 -15t-39 -15q-19 0 -29.5 13t-10.5 33v587q0 34 22 51t57 17t57.5 -17t22.5 -51v-198h3q55 69 144 69q48 0 86 -22q52 -29 76 -87t24 -129zM395 246q0 145 -88 145q-41 0 -67 -33.5
t-26 -75.5v-138q0 -21 22 -39.5t44 -18.5q55 0 85 50t30 110z" />
    <glyph glyph-name="c" unicode="c" horiz-adv-x="507" 
d="M476 411q0 -10 -1 -16q-5 -34 -20.5 -47t-54.5 -13q-55 0 -65 44q-7 30 -35 30q-30 0 -52.5 -17.5t-34.5 -46t-17.5 -57t-5.5 -56.5q0 -66 30 -102.5t83 -36.5q47 0 96 36q16 11 32 11q19 0 34 -14.5t15 -35.5q0 -20 -17 -37q-27 -30 -76 -49t-110 -19q-122 0 -188 67
t-66 182q0 111 74.5 194t189.5 83q92 0 149 -37q40 -25 40 -63z" />
    <glyph glyph-name="d" unicode="d" horiz-adv-x="593" 
d="M567 70q0 -30 -39.5 -51.5t-85.5 -21.5q-29 0 -48 17.5t-25 45.5l-1 13q-59 -81 -153 -81q-89 0 -140 63.5t-51 171.5q0 130 72 206.5t168 76.5q56 0 93 -35v159q0 34 22 50.5t57 16.5q79 0 79 -67v-503q0 -19 20 -24q32 -10 32 -37zM358 219v125q0 24 -20.5 44t-42.5 20
q-57 0 -88 -44.5t-31 -111.5q0 -147 90 -147q40 0 66 33t26 81z" />
    <glyph glyph-name="e" unicode="e" horiz-adv-x="532" 
d="M501 300q0 -41 -18 -65.5t-68 -24.5l-222 -1q-12 0 -12 -15q0 -48 30 -75t83 -27q57 0 110 42q17 14 34 14q21 0 34.5 -15t13.5 -32q0 -19 -17 -39q-28 -33 -82.5 -55t-119.5 -22q-122 0 -183 66t-61 183q0 112 69 194t175 82q116 0 175 -63t59 -147zM339 300q18 0 18 19
q0 40 -20.5 65.5t-58.5 25.5q-41 0 -64.5 -32.5t-29.5 -77.5h155z" />
    <glyph glyph-name="f" unicode="f" horiz-adv-x="344" 
d="M432 627q0 -71 -69 -71q-53 0 -66 39q-6 14 -20 14q-38 0 -38 -61q0 -23 1 -62l30 -4q17 -2 27.5 -5t18.5 -14t8 -29q0 -31 -18.5 -42.5t-53.5 -16.5l-13 -2v-310q0 -34 -22.5 -50.5t-57.5 -16.5q-81 0 -81 67v291q0 16 -9 23.5t-20 9t-20 10.5t-9 28q0 23 16.5 36
t46.5 24q12 102 64 161t146 59q59 0 97 -15q42 -16 42 -63z" />
    <glyph glyph-name="g" unicode="g" horiz-adv-x="553" 
d="M546 -34q0 -63 -44 -105q-72 -72 -235 -72q-120 0 -188.5 30.5t-68.5 90.5q0 62 84 105q-55 25 -55 80q0 31 23.5 57.5t60.5 38.5q-42 18 -65 55t-23 81q0 48 21 84.5t56 57.5t76 31t86 10q76 0 132 -27q48 19 80 19q46 0 46 -34q0 -17 -19 -29q-22 -12 -31 -18
q24 -37 24 -91q0 -75 -62 -123t-171 -48h-44q-48 0 -48 -24q0 -15 12 -19.5t44 -4.5h113q89 0 142.5 -37.5t53.5 -107.5zM403 -63q0 46 -64 46h-88q-22 0 -56 6q-51 -19 -51 -53q0 -33 38.5 -47t86.5 -14q51 0 92.5 14t41.5 48zM354 332q0 90 -80 90q-40 0 -61.5 -24.5
t-21.5 -65.5q0 -88 82 -88q40 0 60.5 23.5t20.5 64.5z" />
    <glyph glyph-name="h" unicode="h" horiz-adv-x="597" 
d="M573 58q0 -33 -38.5 -48t-82.5 -15q-37 0 -60.5 21.5t-23.5 58.5l2 246q0 61 -45 61q-41 0 -72.5 -34.5t-31.5 -77.5v-208q0 -34 -23 -50.5t-58 -16.5q-81 0 -81 67v572q0 34 22.5 51t58.5 17t58.5 -17t22.5 -51l-1 -209h4q35 41 73.5 59.5t91.5 18.5q61 0 98.5 -38
t37.5 -99q0 -24 -1.5 -122.5t-1.5 -122.5q0 -12 7.5 -18.5t17.5 -9t18 -11t8 -24.5z" />
    <glyph glyph-name="i" unicode="i" horiz-adv-x="297" 
d="M234 640q0 -63 -94 -63q-88 0 -88 57q0 33 31 48.5t68 15.5q83 0 83 -58zM274 56q0 -33 -34.5 -46.5t-78.5 -13.5q-104 0 -104 98v339q0 34 23 50.5t58 16.5q81 0 81 -67l-1 -312q0 -12 9 -19t19 -10.5t19 -12.5t9 -23z" />
    <glyph glyph-name="j" unicode="j" horiz-adv-x="285" 
d="M159 698q82 0 82 -60q0 -61 -94 -61q-88 0 -88 57q0 33 31.5 48.5t68.5 15.5zM227 24q0 -102 -42.5 -167.5t-136.5 -65.5q-55 0 -55 40q0 19 9 28.5t33 20.5q33 14 33 41q0 12 -1.5 47.5t-1.5 57.5v407q0 66 81 66q36 0 58.5 -16.5t22.5 -49.5v-409z" />
    <glyph glyph-name="k" unicode="k" horiz-adv-x="548" 
d="M552 56q0 -28 -35 -44.5t-81 -16.5q-55 0 -81 44l-119 181l-21 -20l1 -137q0 -34 -22.5 -50.5t-58.5 -16.5q-81 0 -81 67v571q0 34 22.5 51t58.5 17t58.5 -17t22.5 -51v-318l163 161q30 32 66 32q21 0 38.5 -12t17.5 -36q0 -19 -17 -35l-135 -124l139 -188q11 -15 39 -23
q25 -8 25 -35z" />
    <glyph glyph-name="l" unicode="l" horiz-adv-x="297" 
d="M270 59q0 -30 -37.5 -46.5t-86.5 -16.5q-38 0 -64 22.5t-26 60.5v556q0 34 22.5 50t58.5 16q80 0 80 -66v-511q0 -12 8.5 -18.5t18 -9t18 -12t8.5 -25.5z" />
    <glyph glyph-name="m" unicode="m" horiz-adv-x="896" 
d="M872 57q0 -30 -36.5 -46t-83.5 -16q-37 0 -61 21.5t-23 58.5l1 251q0 60 -42 60q-39 0 -67.5 -34t-28.5 -76v-214q0 -34 -22 -50.5t-57 -16.5q-80 0 -80 67l1 262q0 62 -43 62q-40 0 -67.5 -35.5t-27.5 -78.5l-1 -210q0 -34 -21.5 -50.5t-57.5 -16.5q-79 0 -79 67v301
q0 22 -16 27q-36 11 -36 36q0 32 40.5 53.5t80.5 21.5q63 0 78 -71q0 -1 0.5 -3t0.5 -4v-5q35 45 74.5 65.5t98.5 20.5q47 0 78.5 -23.5t42.5 -63.5q66 87 172 87q58 0 96.5 -39.5t37.5 -103.5q0 -23 -1 -120t-1 -120q0 -18 19 -25q31 -8 31 -39z" />
    <glyph glyph-name="n" unicode="n" horiz-adv-x="617" 
d="M593 58q0 -31 -36.5 -47.5t-85.5 -16.5q-37 0 -62 22t-24 59l2 253q0 57 -46 57q-40 0 -71.5 -36t-31.5 -76v-210q0 -34 -22.5 -50.5t-58.5 -16.5q-81 0 -81 67v299q0 22 -15 27q-37 10 -37 38q0 31 41.5 52t81.5 21q66 0 80 -72v-10q67 85 184 85q59 0 97 -39t38 -104
q0 -24 -2 -120t-2 -119q0 -12 7.5 -18.5t17.5 -9t18 -11t8 -24.5z" />
    <glyph glyph-name="o" unicode="o" horiz-adv-x="556" 
d="M281 509q118 0 184 -66t66 -185q0 -120 -69 -196t-187 -76q-117 0 -183.5 65.5t-66.5 183.5q0 120 68.5 197t187.5 77zM372 264q0 61 -21 103t-70 42q-98 0 -98 -184q0 -56 22 -98t68 -42q99 0 99 179z" />
    <glyph glyph-name="p" unicode="p" horiz-adv-x="596" 
d="M568 272q0 -98 -38.5 -166.5t-108.5 -100.5q-41 -19 -91 -19q-58 0 -95 35l-1 -160q0 -33 -22 -49.5t-57 -16.5q-79 0 -79 66l-1 497q0 26 -15 30q-36 9 -36 36q0 34 41.5 54.5t82.5 20.5q60 0 75 -71q56 76 158 76q46 0 88 -24q99 -57 99 -208zM416 245q0 61 -20 104
t-69 43q-43 0 -68.5 -35t-25.5 -79v-128q0 -21 20.5 -41.5t42.5 -20.5q57 0 88.5 45.5t31.5 111.5z" />
    <glyph glyph-name="q" unicode="q" horiz-adv-x="573" 
d="M516 -138q0 -68 -79 -68q-35 0 -57.5 17t-22.5 51v198h-3q-56 -69 -143 -69q-45 0 -82 20q-53 28 -79 85t-26 129q0 125 66 205.5t186 80.5q62 0 120 -42q7 -4 16 -4q6 0 26.5 15t36.5 15q41 0 41 -46v-587zM358 213v139q0 21 -21 39t-45 18q-56 0 -85.5 -44.5
t-29.5 -114.5q0 -59 20.5 -102t67.5 -43q41 0 67 33t26 75z" />
    <glyph glyph-name="r" unicode="r" horiz-adv-x="458" 
d="M445 435q0 -42 -17.5 -62.5t-58.5 -20.5q-42 0 -58 17q-7 10 -16 10q-16 0 -31 -29t-19 -57q-5 -28 -5 -52v-178q0 -34 -23 -50.5t-59 -16.5q-82 0 -82 67l1 299q0 22 -22 28q-31 10 -31 35q0 36 49 57q44 19 72 19q39 0 59 -23t20 -59v-10h4q24 50 53.5 74t81.5 24
q34 0 58 -18.5t24 -53.5z" />
    <glyph glyph-name="s" unicode="s" horiz-adv-x="471" 
d="M441 138q0 -64 -58 -108t-151 -44q-139 0 -196 73q-12 15 -12 35q0 21 15.5 36t36.5 15q19 0 35 -14q45 -39 103 -39q71 0 71 45q0 22 -27 38q-14 8 -57.5 25.5t-68.5 31.5q-42 23 -66.5 51.5t-24.5 74.5q0 71 58 111t144 40q117 0 170 -60q13 -14 13 -33
q0 -21 -14.5 -35t-35.5 -14q-15 0 -32 11q-37 27 -87 27q-58 0 -58 -40q0 -22 35 -40q20 -10 64.5 -28t66.5 -30q76 -43 76 -129z" />
    <glyph glyph-name="t" unicode="t" horiz-adv-x="354" 
d="M326 59q0 -32 -47 -50q-35 -13 -87 -13t-84 28.5t-32 81.5v251q0 20 -18 27q-23 7 -33 15t-10 26q0 23 13.5 35t40.5 22q23 9 37 41q4 8 11.5 26.5t12.5 28.5q20 36 56 36q21 0 35 -13.5t15 -36.5l2 -77l37 -5q26 -4 37 -13.5t11 -32.5q0 -46 -55 -56l-30 -4v-246
q0 -13 14 -18.5t30 -7t30 -12.5t14 -33z" />
    <glyph glyph-name="u" unicode="u" horiz-adv-x="608" 
d="M585 70q0 -33 -46 -54q-40 -20 -79 -20q-29 0 -48 17t-24 45l-1 22q-65 -87 -186 -87q-60 0 -96 37.5t-35 97.5l3 248q0 22 -20 29q-29 8 -29 33q0 34 46 50q34 12 73 12q37 0 61.5 -22t24.5 -57l-2 -251q0 -55 42 -55q25 0 48 12q23 13 40.5 40.5t17.5 53.5v213
q0 66 80 66q79 0 79 -66v-305q0 -18 25 -26q26 -10 26 -33z" />
    <glyph glyph-name="v" unicode="v" horiz-adv-x="532" 
d="M518 426l-157 -349q-18 -39 -41 -59.5t-63 -20.5q-75 0 -104 76l-110 299q-7 22 -27 32q-31 12 -31 37q0 35 53 50q30 10 59 10q76 0 95 -68l82 -281h4l119 309q13 37 66 37q23 0 42.5 -12t19.5 -34q0 -12 -7 -26z" />
    <glyph glyph-name="w" unicode="w" horiz-adv-x="778" 
d="M762 423l-134 -342q-35 -87 -102 -87q-38 0 -65.5 20.5t-37.5 55.5l-39 142l-46 -136q-15 -40 -37 -61t-60 -21q-81 0 -107 80l-87 287q-9 32 -23 37q-34 13 -34 41q0 29 34.5 44t73.5 15q78 0 95 -68l75 -283h4l69 213l-17 54q-5 15 -5 25q0 30 25.5 45t60.5 15
q64 0 75 -64l60 -283h4l100 302q14 40 66 40q19 0 38.5 -11.5t19.5 -33.5q0 -11 -6 -26z" />
    <glyph glyph-name="x" unicode="x" horiz-adv-x="522" 
d="M509 56q0 -31 -46 -48q-31 -12 -74 -12q-46 0 -80 47l-75 107l-101 -122q-15 -18 -29 -24.5t-38 -6.5q-21 0 -38 11t-17 32q0 20 17 38l134 153q4 4 4 9t-5 12l-89 129q-13 19 -32 26q-26 10 -26 37t41 44q28 12 72 12q49 0 83 -50l68 -98l91 109q28 34 68 34
q22 0 40 -10t18 -31q0 -19 -18 -37l-127 -143q-4 -6 -4 -10q0 -5 5 -12l90 -130q15 -21 33 -26q35 -9 35 -40z" />
    <glyph glyph-name="y" unicode="y" horiz-adv-x="541" 
d="M51 -134q0 36 16 54t53 18q39 0 52 -16q5 -4 9 -4q11 0 18 19l33 77q-4 -1 -8 -1q-32 0 -45 31l-139 335q-7 15 -22 21q-33 14 -33 40q0 29 38 44t74 15q73 0 97 -67l96 -272h4l111 297q15 40 68 40q24 0 43.5 -12t19.5 -35q0 -12 -6 -27l-178 -438q-43 -108 -103 -154
q-48 -36 -115 -36q-83 0 -83 71z" />
    <glyph glyph-name="z" unicode="z" horiz-adv-x="498" 
d="M470 54q0 -23 -14.5 -39t-37.5 -16h-332q-27 0 -44 18t-17 44q0 41 35 78l225 249h-196q-23 0 -37.5 14.5t-14.5 37.5t14.5 38.5t37.5 15.5h296q31 0 55 -18.5t24 -48.5q0 -47 -35 -84l-204 -221q-3 -3 -3 -7q0 -9 10 -9l186 2q24 0 38 -15t14 -39z" />
    <glyph glyph-name="braceleft" unicode="{" horiz-adv-x="347" 
d="M300 -77q0 -24 -11 -36t-39 -13h-16q-60 -2 -99 42t-39 108v235q0 22 -18 28q-34 12 -34 54t34 54q18 8 18 29v233q0 64 40 108t100 42l14 -1q28 -1 39 -13.5t11 -36.5q0 -25 -11.5 -35t-38.5 -18q-19 -6 -19 -38v-227q0 -34 -16 -63.5t-48 -30.5v-6q32 -1 48 -30.5
t16 -64.5v-227q0 -33 19 -38q26 -8 38 -18.5t12 -36.5z" />
    <glyph glyph-name="bar" unicode="|" horiz-adv-x="425" 
d="M283 -64q0 -61 -70 -61t-70 61v757q0 31 19.5 47t50.5 16t50.5 -16t19.5 -47v-757z" />
    <glyph glyph-name="braceright" unicode="}" horiz-adv-x="347" 
d="M304 341q0 -41 -34 -54q-19 -6 -19 -28l1 -235q0 -64 -40 -108t-100 -42h-14q-51 1 -51 49q0 26 12 36.5t39 18.5q18 5 18 38v228q0 35 16.5 64t48.5 30v6q-33 1 -49 30t-16 65v226q0 32 -18 38q-19 6 -27.5 10t-16 14.5t-7.5 28.5q0 24 11.5 36.5t39.5 13.5l14 1
q60 2 100 -42t40 -108l-1 -233q0 -21 19 -29q33 -11 34 -54z" />
    <glyph glyph-name="asciitilde" unicode="~" horiz-adv-x="555" 
d="M445 385q16 0 31 -12.5t15 -28.5q0 -14 -14 -38q-19 -32 -57.5 -55.5t-84.5 -23.5q-44 0 -88 23t-57 23q-19 0 -41 -20t-40 -20q-15 0 -30 12.5t-15 27.5t14 37q19 33 57 56.5t84 23.5q44 0 87.5 -22.5t56.5 -22.5q20 0 43 20t39 20z" />
    <glyph glyph-name="uni00A0" unicode="&#xa0;" horiz-adv-x="253" 
 />
    <glyph glyph-name="exclamdown" unicode="&#xa1;" horiz-adv-x="356" 
d="M260 436q0 -33 -25.5 -56t-59.5 -23q-32 0 -55.5 21t-23.5 52q0 33 25.5 55.5t59.5 22.5q32 0 55.5 -20.5t23.5 -51.5zM268 -140q0 -34 -25.5 -51.5t-64.5 -17.5t-64.5 17.5t-25.5 51.5q0 54 15 187.5t19 188.5q4 42 56 42t56 -42q4 -55 19 -188.5t15 -187.5z" />
    <glyph glyph-name="cent" unicode="&#xa2;" horiz-adv-x="512" 
d="M482 411q0 -39 -18 -57.5t-58 -18.5q-54 0 -65 44q-4 15 -11.5 22.5t-23.5 7.5q-30 0 -52.5 -17.5t-34.5 -46t-17.5 -57t-5.5 -56.5q0 -66 30 -102.5t83 -36.5q44 0 96 36q16 11 32 11q19 0 34 -15t15 -35t-17 -37q-56 -56 -146 -65v-41q0 -41 -50 -41q-51 0 -51 41v43
q-93 14 -143 80.5t-50 163.5q0 93 54.5 169.5t145.5 99.5v44q0 42 51 42q50 0 50 -42v-38q66 -5 112 -34q40 -25 40 -64z" />
    <glyph glyph-name="sterling" unicode="&#xa3;" horiz-adv-x="577" 
d="M47 84q0 32 26 64q55 71 64 117l3 22h-28q-57 0 -57 55t54 55h18q-2 6 -16.5 31t-21.5 47.5t-7 50.5q0 71 59.5 127t168.5 56q135 0 203 -76q18 -19 18 -45q0 -23 -17 -40.5t-42 -17.5q-24 0 -42 18q-25 26 -46.5 36t-52.5 10q-40 0 -64 -19t-24 -56q0 -25 22 -82l14 -40
l91 1q53 0 53 -54q0 -26 -13 -42.5t-42 -15.5h-79l-4 -24q-3 -53 -61 -121q-6 -7 -6 -12q0 -7 9 -7q2 0 44 1.5t62 1.5h104q13 0 36 3.5t31 3.5q24 0 38.5 -14.5t14.5 -35.5q0 -35 -32.5 -54.5t-81.5 -19.5h-305q-91 0 -91 76z" />
    <glyph glyph-name="yen" unicode="&#xa5;" horiz-adv-x="621" 
d="M78 328q0 18 9 29.5t26 11.5h73l-116 202q-8 15 -23 22q-39 13 -39 42t32 47.5t78 18.5q79 0 110 -69l109 -224h3l134 250q20 39 67 39q26 0 46.5 -13.5t20.5 -38.5q0 -17 -13 -40l-147 -236h63q34 0 34 -41t-34 -41h-112v-57h114q34 0 34 -41t-34 -41h-114v-79
q0 -37 -24.5 -55t-62.5 -18q-87 0 -87 73v79h-110q-17 0 -26 11.5t-9 29.5q0 41 35 41h110v57h-112q-35 0 -35 41z" />
    <glyph glyph-name="brokenbar" unicode="&#xa6;" horiz-adv-x="425" 
d="M283 423q0 -61 -70 -61t-70 61v271q0 31 19.5 47t50.5 16t50.5 -16t19.5 -47v-271zM283 -61q0 -62 -70 -62t-70 62v271q0 32 19.5 47.5t50.5 15.5t50.5 -15.5t19.5 -47.5v-271z" />
    <glyph glyph-name="section" unicode="&#xa7;" horiz-adv-x="538" 
d="M481 324q0 -44 -30 -81t-81 -52q94 -47 94 -139q0 -63 -57 -106.5t-148 -43.5q-129 0 -188 77q-14 15 -14 36q0 19 13.5 33t35.5 14q18 0 31 -12q27 -24 48.5 -34.5t54.5 -10.5q30 0 50 12.5t20 35.5q0 22 -25 38q-18 12 -61.5 32.5t-56.5 27.5q-104 56 -104 137
q0 51 32 87t83 50q-97 50 -97 133q0 72 59 110t140 38q107 0 164 -64q13 -14 13 -34q0 -19 -13.5 -32.5t-33.5 -13.5q-18 0 -32 10q-41 31 -82 31q-24 0 -42.5 -11t-18.5 -32t35 -40q22 -12 64 -33l58 -29q89 -49 89 -134zM349 301q0 33 -35 53l-41 22q-29 -6 -53 -21.5
t-24 -40.5q0 -33 39 -55l43 -23q71 18 71 65z" />
    <glyph glyph-name="dieresis" unicode="&#xa8;" horiz-adv-x="525" 
d="M237 628q0 -61 -83 -61q-80 0 -80 54q0 33 27.5 48t61.5 15q74 0 74 -56zM452 629q0 -34 -26.5 -48t-60.5 -14q-77 0 -77 57q0 60 84 60q80 0 80 -55z" />
    <glyph glyph-name="copyright" unicode="&#xa9;" horiz-adv-x="817" 
d="M767 350q0 -162 -103 -262.5t-259 -100.5q-155 0 -255 98.5t-100 260.5q0 163 103 262.5t259 99.5t255.5 -97.5t99.5 -260.5zM669 349q0 128 -70.5 205t-187.5 77q-116 0 -190.5 -79t-74.5 -206q0 -126 72 -203.5t188 -77.5t189.5 79t73.5 205zM523 273q15 0 26.5 -11
t11.5 -26q0 -12 -12 -27q-45 -49 -132 -49q-86 0 -134 48t-48 134q0 77 50.5 135t129.5 58q53 0 95 -18.5t42 -54.5q0 -56 -53 -56q-40 0 -48 26q-4 15 -9 21t-17 6q-68 0 -68 -118q0 -100 78 -100q36 0 66 24q11 8 22 8z" />
    <glyph glyph-name="ordfeminine" unicode="&#xaa;" horiz-adv-x="423" 
d="M392 374q0 -22 -26 -36.5t-55 -14.5q-22 0 -37.5 13.5t-16.5 33.5v8q-40 -57 -114 -57q-51 0 -79.5 28.5t-28.5 74.5q0 49 26.5 75.5t79.5 37.5l109 22v20q0 50 -50 50q-18 0 -28 -5q-4 -2 -7 -4.5t-4.5 -6t-2.5 -6t-2.5 -7.5t-2.5 -8q-9 -23 -47 -23q-46 0 -46 43
q0 22 8 34.5t35 26.5q49 27 99 27q154 0 154 -144v-137q0 -12 18 -20t18 -25zM250 489q0 10 -12 10q-3 0 -7 -1l-50 -11q-44 -8 -44 -46v-4q0 -36 40 -36q30 0 51.5 19.5t21.5 47.5v21z" />
    <glyph glyph-name="guillemotleft" unicode="&#xab;" horiz-adv-x="526" 
d="M254 401l-79 -149q67 -127 75 -147q4 -9 4 -19q0 -22 -24 -36q-13 -7 -25 -7q-22 0 -38 18q-10 9 -55.5 70.5t-54.5 76.5q-13 23 -13 44q0 23 13 45q8 14 55.5 75.5t58.5 72.5q18 18 38 18q13 0 24 -7q25 -15 25 -36q0 -10 -4 -19zM481 401l-79 -149q67 -127 75 -147
q4 -9 4 -19q0 -22 -24 -36q-13 -7 -25 -7q-22 0 -38 18q-10 9 -55.5 70.5t-54.5 76.5q-13 23 -13 44q0 23 13 45q8 14 55.5 75.5t58.5 72.5q18 18 38 18q13 0 24 -7q25 -15 25 -36q0 -10 -4 -19z" />
    <glyph glyph-name="logicalnot" unicode="&#xac;" horiz-adv-x="566" 
d="M502 343v-190q0 -25 -17 -37.5t-44 -12.5q-59 0 -59 50v129h-301q-24 0 -36 16t-12 41t12 41t36 16h375q46 0 46 -53z" />
    <glyph glyph-name="uni00AD" unicode="&#xad;" horiz-adv-x="407" 
d="M375 262q0 -63 -51 -63h-238q-27 0 -40 17.5t-13 45.5q0 63 53 63h238q51 0 51 -63z" />
    <glyph glyph-name="registered" unicode="&#xae;" horiz-adv-x="817" 
d="M767 348q0 -165 -103 -263t-255 -98t-255.5 98t-103.5 263q0 167 103 263.5t256 96.5q152 0 255 -96.5t103 -263.5zM669 348q0 133 -74 208t-186 75t-187.5 -75.5t-75.5 -207.5q0 -131 75.5 -207t187.5 -76q111 0 185.5 76t74.5 207zM581 194q0 -28 -52 -28q-36 0 -64 43
q-4 5 -21 40.5t-26 43.5q-14 13 -36 13l-18 -1l-1 -103q0 -18 -12.5 -28t-31.5 -10q-46 0 -46 41l1 253q0 7 -6.5 10.5t-13.5 8t-7 14.5q0 21 25 31q21 7 39 7q14 0 36 -9q33 12 65 12q63 0 97 -24q38 -27 38 -83q0 -35 -21.5 -60t-50.5 -33v-2q31 -12 73 -98q3 -8 18 -17
t15 -21zM463 419q0 53 -53 53q-47 0 -47 -25v-73q0 -15 26 -15h10q29 0 46.5 15.5t17.5 44.5z" />
    <glyph glyph-name="macron" unicode="&#xaf;" horiz-adv-x="498" 
d="M422 628q0 -21 -11.5 -35.5t-31.5 -14.5h-259q-20 0 -31.5 14.5t-11.5 35.5q0 22 11.5 36.5t31.5 14.5h259q20 0 31.5 -14.5t11.5 -36.5z" />
    <glyph glyph-name="degree" unicode="&#xb0;" horiz-adv-x="398" 
d="M365 554q0 -71 -51 -120.5t-121 -49.5q-66 0 -113 45.5t-47 112.5q0 70 51 119t121 49q66 0 113 -45t47 -111zM286 550q0 36 -24.5 60t-59.5 24q-37 0 -63.5 -26.5t-26.5 -63.5q0 -35 24.5 -59t59.5 -24q36 0 63 26.5t27 62.5z" />
    <glyph glyph-name="plusminus" unicode="&#xb1;" horiz-adv-x="581" 
d="M548 399q0 -58 -47 -58h-144v-103q0 -53 -66 -53q-67 0 -67 53v103h-142q-24 0 -36.5 16t-12.5 42t12.5 42t36.5 16h142v101q0 55 67 55q66 0 66 -55v-101h144q47 0 47 -58zM501 0h-419q-24 0 -36.5 16.5t-12.5 41.5q0 26 12.5 42t36.5 16h419q47 0 47 -57q0 -59 -47 -59
z" />
    <glyph glyph-name="two.sup" unicode="&#xb2;" horiz-adv-x="353" 
d="M328 370q0 -22 -21 -35.5t-45 -13.5h-174q-63 0 -64 56q0 31 22 52l144 141q17 17 17 34q0 30 -33 30q-26 0 -34 -26q-8 -25 -50 -25q-28 0 -39 12t-11 40q2 22 13 36q34 40 125 40q57 0 97 -29t40 -75q0 -53 -44 -95l-111 -107v-3h86q11 0 26 2.5t21 2.5q15 0 25 -11
t10 -26z" />
    <glyph glyph-name="three.sup" unicode="&#xb3;" horiz-adv-x="347" 
d="M322 434q0 -54 -42.5 -88.5t-118.5 -34.5q-69 0 -115 29q-22 13 -22 37q0 6 2 22q7 30 48 30t46 -21q5 -16 11.5 -21.5t24.5 -5.5q26 0 40 14t14 38q0 48 -67 48h-19q-15 1 -24.5 12t-9.5 26q0 16 8.5 27t24.5 11q78 1 78 45q0 33 -42 33q-31 0 -62 -32q-9 -9 -24 -9
q-20 0 -29 11q-9 9 -9 26q0 18 9 30q40 50 130 50q64 0 98.5 -29t34.5 -67q0 -56 -59 -87q74 -19 74 -94z" />
    <glyph glyph-name="acute" unicode="&#xb4;" horiz-adv-x="395" 
d="M307 700q0 -27 -24 -49q-9 -10 -50 -43.5t-57 -43.5q-14 -10 -31 -10q-14 0 -27 10t-13 26q0 10 6 22q5 9 40 57.5t45 59.5q19 24 50 24q22 0 41.5 -15.5t19.5 -37.5z" />
    <glyph glyph-name="uni00B5" unicode="&#xb5;" horiz-adv-x="611" 
d="M588 70q0 -33 -44 -53q-42 -21 -81 -21q-28 0 -47 16t-24 43l-2 25q-25 -34 -63.5 -56t-80.5 -23q-17 0 -29 10q15 -57 15 -142q0 -72 -80 -72q-37 0 -59 16t-21 50q0 47 2.5 257.5t2.5 256.5q0 12 -7.5 19.5t-17 10t-17.5 9.5t-8 20q0 35 44 51q35 13 75 13
q37 0 61.5 -21.5t24.5 -53.5l-3 -248q0 -63 45 -63q15 0 37 9q27 12 47 39.5t20 56.5v215q0 34 22 50t58 16q79 0 79 -66v-303q0 -20 16 -24q35 -9 35 -37z" />
    <glyph glyph-name="paragraph" unicode="&#xb6;" horiz-adv-x="698" 
d="M446 246l-9 -6v-354q0 -47 -54 -47q-53 0 -53 47v324q-27 -3 -53 -3q-51 0 -93.5 12t-80 38.5t-58.5 75.5t-21 116q0 122 75.5 187.5t206.5 65.5q43 0 92 -7q73 -11 80 -11q11 0 42.5 3t46.5 3q63 0 63 -54v-751q0 -45 -54 -45q-53 0 -53 45v705q-16 -2 -50 -2
q-24 0 -36 1v-240q8 2 13 2q16 0 27.5 -12.5t11.5 -32.5q0 -31 -43 -60zM312 311q12 0 18 1v285q-16 2 -24 2q-59 0 -90 -41.5t-31 -111.5q0 -62 32 -98.5t95 -36.5z" />
    <glyph glyph-name="periodcentered" unicode="&#xb7;" horiz-adv-x="276" 
d="M228 346q0 -37 -27.5 -62t-65.5 -25q-35 0 -60.5 23.5t-25.5 58.5q0 37 27.5 62t64.5 25q35 0 61 -23.5t26 -58.5z" />
    <glyph glyph-name="cedilla" unicode="&#xb8;" horiz-adv-x="364" 
d="M297 -132q0 -44 -34.5 -72t-91.5 -28q-41 0 -73.5 12.5t-32.5 38.5q0 16 10 30t26 14q11 0 19 -4q21 -7 36 -7q26 0 26 21q0 9 -7 16t-29 19q-19 11 -19 26q0 13 11 31l37 63h76l-27 -60q-2 -3 -2 -8q0 -6 11 -10q64 -24 64 -82z" />
    <glyph glyph-name="one.sup" unicode="&#xb9;" horiz-adv-x="225" 
d="M171 634l-2 -282q-1 -48 -57 -48t-56 48l3 249q0 6 -18 14t-18 25q0 21 35 44q30 18 53 18q26 0 43 -18t17 -50z" />
    <glyph glyph-name="ordmasculine" unicode="&#xba;" horiz-adv-x="443" 
d="M224 703q88 0 137 -49t49 -137q0 -89 -51.5 -145.5t-139.5 -56.5t-136.5 49t-48.5 137q0 89 51 145.5t139 56.5zM293 521q0 46 -16 79t-52 33q-74 0 -74 -140q0 -44 16 -75.5t51 -31.5q75 0 75 135z" />
    <glyph glyph-name="guillemotright" unicode="&#xbb;" horiz-adv-x="526" 
d="M275 105l77 148q-70 128 -78 148q-4 9 -4 19q0 22 25 36q11 7 24 7q20 0 38 -18q11 -11 58 -72.5t55 -75.5q13 -22 13 -44t-13 -45q-9 -14 -55.5 -75.5t-56.5 -71.5q-16 -18 -38 -18q-12 0 -25 7q-24 14 -24 36q0 10 4 19zM48 105l77 148q-70 128 -78 148q-4 9 -4 19
q0 22 25 36q11 7 24 7q20 0 38 -18q11 -10 57.5 -71.5t55.5 -76.5q13 -22 13 -44t-13 -45q-9 -14 -55.5 -75.5t-56.5 -71.5q-16 -18 -38 -18q-12 0 -25 7q-24 14 -24 36q0 10 4 19z" />
    <glyph glyph-name="onequarter" unicode="&#xbc;" horiz-adv-x="713" 
d="M358 119q0 26 16 48l137 203q21 32 67 32q58 0 58 -50v-200q2 0 8 0.5t9 0.5q16 0 26.5 -10t10.5 -24q0 -37 -43 -47l-11 -2v-29q0 -50 -55 -50t-55 50q0 4 0.5 13.5t0.5 12.5h-100q-69 0 -69 52zM605 662q0 -14 -12 -32l-438 -628q-24 -35 -57 -35q-23 0 -41 11.5
t-18 30.5q0 15 12 33l439 627q25 34 56 34q24 0 41.5 -11t17.5 -30zM72 352l2 249q0 5 -18 13t-18 23q0 29 34 48t58 19q28 0 46.5 -19t17.5 -52l-2 -281q0 -50 -61 -50q-27 0 -43.5 12t-15.5 38zM534 269h-5l-71 -123h74z" />
    <glyph glyph-name="onehalf" unicode="&#xbd;" horiz-adv-x="767" 
d="M39 9q0 15 12 33l439 627q25 34 56 34q24 0 41.5 -11t17.5 -30q0 -14 -12 -32l-438 -628q-24 -35 -57 -35q-23 0 -41 11.5t-18 30.5zM72 352l2 249q0 5 -18 13t-18 23q0 29 34 48t58 19q28 0 46.5 -19t17.5 -52l-2 -281q-1 -50 -61 -50q-27 0 -43.5 12t-15.5 38zM424 64
q0 31 22 53l149 140q17 19 17 34q0 26 -31 26q-20 0 -28 -19q-12 -32 -54 -32q-27 0 -38.5 12t-11.5 41q0 23 13 37q32 41 123 41q56 0 95.5 -28.5t39.5 -76.5q0 -54 -47 -96l-111 -103v-3h80q13 0 29 2.5t24 2.5q17 0 28 -11.5t11 -27.5q0 -23 -22.5 -37t-46.5 -14h-175
q-66 0 -66 59z" />
    <glyph glyph-name="threequarters" unicode="&#xbe;" horiz-adv-x="792" 
d="M121 9q0 13 13 33l446 627q26 34 57 34q24 0 41 -11t17 -29q0 -16 -13 -33l-445 -628q-24 -35 -57 -35q-23 0 -41 11.5t-18 30.5zM29 382q0 53 52 53q35 0 43 -23q4 -14 10.5 -19.5t23.5 -5.5q49 0 49 49q0 28 -20.5 36.5t-59.5 8.5q-16 0 -25.5 11.5t-9.5 27.5t9 27.5
t26 11.5q71 0 71 42q0 31 -37 31q-29 0 -60 -25q-11 -9 -25 -9q-18 0 -28 10.5t-10 26.5q0 15 13 30q37 45 124 45q56 0 91.5 -27.5t35.5 -69.5q0 -54 -52 -84q65 -20 65 -92q0 -55 -45.5 -88.5t-107.5 -33.5q-52 0 -92.5 17.5t-40.5 49.5zM437 119q0 26 16 48l137 203
q21 32 67 32q58 0 58 -50v-200q2 0 8 0.5t9 0.5q16 0 26.5 -10t10.5 -24q0 -37 -43 -47l-11 -2v-29q0 -50 -55 -50t-55 50q0 4 0.5 13.5t0.5 12.5h-100q-69 0 -69 52zM613 269h-5l-71 -123h74z" />
    <glyph glyph-name="questiondown" unicode="&#xbf;" horiz-adv-x="492" 
d="M363 436q0 -33 -25.5 -56t-59.5 -23q-33 0 -56 21t-23 52q0 33 25.5 55.5t59.5 22.5q32 0 55.5 -20.5t23.5 -51.5zM469 -95q0 -33 -12.5 -52t-44.5 -32q-72 -33 -160 -33q-46 0 -84.5 8t-72 25.5t-52.5 51.5t-19 81q0 53 33.5 99.5t86.5 76.5q41 23 55.5 42t14.5 61
q0 22 18 35t47 13q71 0 71 -79q0 -50 -25 -81.5t-78 -62.5q-66 -40 -66 -98q0 -32 21 -48t55 -16q27 0 46 10q15 8 22 30q9 37 67 37q39 0 58 -15t19 -53z" />
    <glyph glyph-name="Agrave" unicode="&#xc0;" horiz-adv-x="701" 
d="M704 63q0 -32 -39.5 -48.5t-76.5 -16.5q-92 0 -111 71l-31 97h-244l-38 -103q-12 -35 -29 -49.5t-57 -14.5q-25 0 -45 13t-20 39q0 15 8 37l210 512q4 8 4 11t-1 11t-1 12q0 33 45.5 51.5t84.5 18.5q43 0 69 -22.5t37 -53.5l171 -496q6 -15 29 -24q35 -13 35 -45z
M416 278l-75 242q-1 6 -4 6q-5 0 -6 -6l-88 -242h173zM221 895q0 23 21 40.5t46 17.5q30 0 50 -23q9 -11 42.5 -57.5t38.5 -55.5q6 -12 6 -22q0 -16 -15.5 -28.5t-31.5 -12.5t-30 10q-16 10 -54.5 43t-48.5 44q-24 24 -24 44z" />
    <glyph glyph-name="Aacute" unicode="&#xc1;" horiz-adv-x="701" 
d="M704 63q0 -32 -39.5 -48.5t-76.5 -16.5q-92 0 -111 71l-31 97h-244l-38 -103q-12 -35 -29 -49.5t-57 -14.5q-25 0 -45 13t-20 39q0 15 8 37l210 512q4 8 4 11t-1 11t-1 12q0 33 45.5 51.5t84.5 18.5q43 0 69 -22.5t37 -53.5l171 -496q6 -15 29 -24q35 -13 35 -45z
M416 278l-75 242q-1 6 -4 6q-5 0 -6 -6l-88 -242h173zM486 900q0 -27 -24 -49q-9 -10 -50 -43.5t-57 -43.5q-14 -10 -31 -10q-14 0 -27 10t-13 26q0 10 6 22q5 9 40 57.5t45 59.5q19 24 50 24q22 0 41.5 -15.5t19.5 -37.5z" />
    <glyph glyph-name="Acircumflex" unicode="&#xc2;" horiz-adv-x="701" 
d="M704 63q0 -32 -39.5 -48.5t-76.5 -16.5q-92 0 -111 71l-31 97h-244l-38 -103q-12 -35 -29 -49.5t-57 -14.5q-25 0 -45 13t-20 39q0 15 8 37l210 512q4 8 4 11t-1 11t-1 12q0 33 45.5 51.5t84.5 18.5q43 0 69 -22.5t37 -53.5l171 -496q6 -15 29 -24q35 -13 35 -45z
M416 278l-75 242q-1 6 -4 6q-5 0 -6 -6l-88 -242h173zM522 802q0 -13 -12.5 -25.5t-28.5 -12.5q-9 0 -19 3q-12 4 -48.5 25.5t-60.5 37.5q-80 -54 -107 -63q-9 -3 -19 -3q-12 0 -24.5 10t-12.5 26q0 14 14 31q10 11 52 50.5t56 48.5q18 12 44 12t45 -12q13 -8 54 -46t54 -52
t13 -30z" />
    <glyph glyph-name="Atilde" unicode="&#xc3;" horiz-adv-x="701" 
d="M704 63q0 -32 -39.5 -48.5t-76.5 -16.5q-92 0 -111 71l-31 97h-244l-38 -103q-12 -35 -29 -49.5t-57 -14.5q-25 0 -45 13t-20 39q0 15 8 37l210 512q4 8 4 11t-1 11t-1 12q0 33 45.5 51.5t84.5 18.5q43 0 69 -22.5t37 -53.5l171 -496q6 -15 29 -24q35 -13 35 -45z
M416 278l-75 242q-1 6 -4 6q-5 0 -6 -6l-88 -242h173zM495 900q13 0 27 -11t14 -26q0 -11 -13 -33q-17 -28 -48 -47t-70 -19q-37 0 -69 18q-37 20 -52 20q-19 0 -39 -20q-14 -14 -28 -14t-27.5 10.5t-13.5 25.5q0 13 12 34q17 27 48.5 46.5t70.5 19.5q35 0 67 -18
q38 -20 52 -20q19 0 42 21q13 13 27 13z" />
    <glyph glyph-name="Adieresis" unicode="&#xc4;" horiz-adv-x="701" 
d="M704 63q0 -32 -39.5 -48.5t-76.5 -16.5q-92 0 -111 71l-31 97h-244l-38 -103q-12 -35 -29 -49.5t-57 -14.5q-25 0 -45 13t-20 39q0 15 8 37l210 512q4 8 4 11t-1 11t-1 12q0 33 45.5 51.5t84.5 18.5q43 0 69 -22.5t37 -53.5l171 -496q6 -15 29 -24q35 -13 35 -45z
M416 278l-75 242q-1 6 -4 6q-5 0 -6 -6l-88 -242h173zM330 828q0 -61 -83 -61q-80 0 -80 54q0 33 27.5 48t61.5 15q74 0 74 -56zM545 829q0 -34 -26.5 -48t-60.5 -14q-77 0 -77 57q0 60 84 60q80 0 80 -55z" />
    <glyph glyph-name="Aring" unicode="&#xc5;" horiz-adv-x="701" 
d="M704 63q0 -32 -39.5 -48.5t-76.5 -16.5q-92 0 -111 71l-31 97h-244l-38 -103q-12 -35 -29 -49.5t-57 -14.5q-25 0 -45 13t-20 39q0 15 8 37l210 512q4 8 4 11t-1 11t-1 12q0 33 45.5 51.5t84.5 18.5q43 0 69 -22.5t37 -53.5l171 -496q6 -15 29 -24q35 -13 35 -45z
M416 278l-75 242q-1 6 -4 6q-5 0 -6 -6l-88 -242h173zM481 863q0 -54 -36.5 -87t-89.5 -33q-52 0 -88.5 31.5t-36.5 84.5q0 54 37 88t88 34q53 0 89.5 -31.5t36.5 -86.5zM408 861q0 23 -13.5 38.5t-39.5 15.5q-24 0 -38 -15.5t-14 -38.5q0 -22 14 -37.5t38 -15.5
q25 0 39 15.5t14 37.5z" />
    <glyph glyph-name="AE" unicode="&#xc6;" horiz-adv-x="964" 
d="M936 85q0 -35 -32 -56t-69 -21l-310 1q-40 0 -65.5 17.5t-25.5 55.5v83h-213l-62 -108q-19 -35 -36 -47t-57 -12q-21 0 -40 10.5t-19 33.5q0 22 15 44l313 514q0 1 3 21q3 39 54.5 56.5t103.5 17.5h352q27 0 44.5 -14.5t17.5 -40.5q0 -29 -16.5 -48t-44.5 -19
q-11 0 -34 1.5t-35 1.5h-163q-16 0 -16 -18v-141l198 1q29 1 42.5 -14t13.5 -44q0 -58 -59 -58h-195v-156q0 -19 16 -19l198 1q11 0 34 3t35 3q22 0 37 -13.5t15 -35.5zM435 522q0 6 -5 6q-4 0 -7 -5l-142 -249h154v248z" />
    <glyph glyph-name="Ccedilla" unicode="&#xc7;" horiz-adv-x="655" 
d="M450 -132q0 -44 -34.5 -72t-91.5 -28q-41 0 -73.5 12.5t-32.5 38.5q0 16 10 30t26 14q11 0 19 -4q21 -7 36 -7q26 0 26 21q0 9 -7 16t-29 19q-19 11 -19 26q0 13 11 31l14 24q-137 15 -202.5 106.5t-65.5 238.5q0 156 93.5 266.5t234.5 110.5q107 0 195 -52
q53 -30 53 -77q0 -16 -1 -25q-6 -59 -85 -59q-65 0 -77 46t-73 46q-63 0 -105 -58q-53 -66 -53 -193q0 -224 158 -224q40 0 68.5 12.5t63.5 40.5q22 18 43 18q26 0 45.5 -18.5t19.5 -42.5q0 -17 -18 -42q-70 -88 -214 -96l-8 -19q-2 -3 -2 -8q0 -6 11 -10q64 -24 64 -82z
" />
    <glyph glyph-name="Egrave" unicode="&#xc8;" horiz-adv-x="622" 
d="M83 84v473q0 12 -8.5 20t-19 11.5t-19 13t-8.5 24.5q0 68 133 68h345q27 0 45 -15.5t18 -41.5q0 -29 -16.5 -47.5t-45.5 -18.5q-11 0 -34 1t-35 1q-20 0 -83.5 0.5t-84.5 0.5q-15 0 -15 -19v-141q17 0 91 1t111 1q56 0 56 -59q0 -58 -58 -58h-200v-156q0 -18 16 -18h203
q11 0 33.5 3.5t34.5 3.5q22 0 37 -13.5t15 -36.5q0 -35 -32 -55.5t-68 -20.5h-316q-42 0 -68.5 19t-26.5 59zM204 895q0 23 21 40.5t46 17.5q30 0 50 -23q9 -11 42.5 -57.5t38.5 -55.5q6 -12 6 -22q0 -16 -15.5 -28.5t-31.5 -12.5t-30 10q-16 10 -54.5 43t-48.5 44
q-24 24 -24 44z" />
    <glyph glyph-name="Eacute" unicode="&#xc9;" horiz-adv-x="602" 
d="M448 900q0 -27 -24 -49q-9 -10 -50 -43.5t-57 -43.5q-14 -10 -31 -10q-14 0 -27 10t-13 26q0 10 6 22q5 9 40 57.5t45 59.5q19 24 50 24q22 0 41.5 -15.5t19.5 -37.5zM63 84v473q0 12 -8.5 20t-19 11.5t-19 13t-8.5 24.5q0 68 133 68h345q27 0 45 -15.5t18 -41.5
q0 -29 -16.5 -47.5t-45.5 -18.5q-11 0 -34 1t-35 1q-20 0 -83.5 0.5t-84.5 0.5q-15 0 -15 -19v-141q17 0 91 1t111 1q56 0 56 -59q0 -58 -58 -58h-200v-156q0 -18 16 -18h203q11 0 33.5 3.5t34.5 3.5q22 0 37 -13.5t15 -36.5q0 -35 -32 -55.5t-68 -20.5h-316q-42 0 -68.5 19
t-26.5 59z" />
    <glyph glyph-name="Ecircumflex" unicode="&#xca;" horiz-adv-x="622" 
d="M504 802q0 -13 -12.5 -25.5t-28.5 -12.5q-9 0 -19 3q-12 4 -48.5 25.5t-60.5 37.5q-80 -54 -107 -63q-9 -3 -19 -3q-12 0 -24.5 10t-12.5 26q0 14 14 31q10 11 52 50.5t56 48.5q18 12 44 12t45 -12q13 -8 54 -46t54 -52t13 -30zM83 84v473q0 12 -8.5 20t-19 11.5t-19 13
t-8.5 24.5q0 68 133 68h345q27 0 45 -15.5t18 -41.5q0 -29 -16.5 -47.5t-45.5 -18.5q-11 0 -34 1t-35 1q-20 0 -83.5 0.5t-84.5 0.5q-15 0 -15 -19v-141q17 0 91 1t111 1q56 0 56 -59q0 -58 -58 -58h-200v-156q0 -18 16 -18h203q11 0 33.5 3.5t34.5 3.5q22 0 37 -13.5
t15 -36.5q0 -35 -32 -55.5t-68 -20.5h-316q-42 0 -68.5 19t-26.5 59z" />
    <glyph glyph-name="Edieresis" unicode="&#xcb;" horiz-adv-x="622" 
d="M312 828q0 -61 -83 -61q-80 0 -80 54q0 33 27.5 48t61.5 15q74 0 74 -56zM527 829q0 -34 -26.5 -48t-60.5 -14q-77 0 -77 57q0 60 84 60q80 0 80 -55zM83 84v473q0 12 -8.5 20t-19 11.5t-19 13t-8.5 24.5q0 68 133 68h345q27 0 45 -15.5t18 -41.5q0 -29 -16.5 -47.5
t-45.5 -18.5q-11 0 -34 1t-35 1q-20 0 -83.5 0.5t-84.5 0.5q-15 0 -15 -19v-141q17 0 91 1t111 1q56 0 56 -59q0 -58 -58 -58h-200v-156q0 -18 16 -18h203q11 0 33.5 3.5t34.5 3.5q22 0 37 -13.5t15 -36.5q0 -35 -32 -55.5t-68 -20.5h-316q-42 0 -68.5 19t-26.5 59z" />
    <glyph glyph-name="Igrave" unicode="&#xcc;" horiz-adv-x="330" 
d="M262 599l-3 -530q-1 -37 -26.5 -54.5t-63.5 -17.5t-63.5 17.5t-24.5 54.5l3 499q0 11 -9 18t-19 10t-19 13t-9 26q0 25 22.5 41.5t48 21.5t51.5 5q53 0 82.5 -26t29.5 -78zM35 895q0 23 21 40.5t46 17.5q30 0 50 -23q9 -11 42.5 -57.5t38.5 -55.5q6 -12 6 -22
q0 -16 -15.5 -28.5t-31.5 -12.5t-30 10q-16 10 -54.5 43t-48.5 44q-24 24 -24 44z" />
    <glyph glyph-name="Iacute" unicode="&#xcd;" horiz-adv-x="330" 
d="M262 599l-3 -530q-1 -37 -26.5 -54.5t-63.5 -17.5t-63.5 17.5t-24.5 54.5l3 499q0 11 -9 18t-19 10t-19 13t-9 26q0 25 22.5 41.5t48 21.5t51.5 5q53 0 82.5 -26t29.5 -78zM295 900q0 -27 -24 -49q-9 -10 -50 -43.5t-57 -43.5q-14 -10 -31 -10q-14 0 -27 10t-13 26
q0 10 6 22q5 9 40 57.5t45 59.5q19 24 50 24q22 0 41.5 -15.5t19.5 -37.5z" />
    <glyph glyph-name="Icircumflex" unicode="&#xce;" horiz-adv-x="330" 
d="M262 599l-3 -530q-1 -37 -26.5 -54.5t-63.5 -17.5t-63.5 17.5t-24.5 54.5l3 499q0 11 -9 18t-19 10t-19 13t-9 26q0 25 22.5 41.5t48 21.5t51.5 5q53 0 82.5 -26t29.5 -78zM330 802q0 -13 -12.5 -25.5t-28.5 -12.5q-9 0 -19 3q-12 4 -48.5 25.5t-60.5 37.5
q-80 -54 -107 -63q-9 -3 -19 -3q-12 0 -24.5 10t-12.5 26q0 14 14 31q10 11 52 50.5t56 48.5q18 12 44 12t45 -12q13 -8 54 -46t54 -52t13 -30z" />
    <glyph glyph-name="Idieresis" unicode="&#xcf;" horiz-adv-x="330" 
d="M262 599l-3 -530q-1 -37 -26.5 -54.5t-63.5 -17.5t-63.5 17.5t-24.5 54.5l3 499q0 11 -9 18t-19 10t-19 13t-9 26q0 25 22.5 41.5t48 21.5t51.5 5q53 0 82.5 -26t29.5 -78zM137 828q0 -61 -83 -61q-80 0 -80 54q0 33 27.5 48t61.5 15q74 0 74 -56zM352 829
q0 -34 -26.5 -48t-60.5 -14q-77 0 -77 57q0 60 84 60q80 0 80 -55z" />
    <glyph glyph-name="Eth" unicode="&#xd0;" horiz-adv-x="680" 
d="M642 364q0 -97 -34 -179t-106 -135.5t-171 -53.5q-21 0 -61.5 6.5t-61.5 6.5q-7 0 -23.5 -6t-30.5 -6q-35 0 -55.5 17t-20.5 52l1 227q-33 0 -49.5 9.5t-16.5 41.5q0 31 17 43.5t50 12.5l1 163q0 11 -8.5 17.5t-18 9.5t-18 12.5t-8.5 25.5q0 25 22.5 42t47.5 22.5t49 5.5
q41 0 72 -18q59 25 121 25q151 0 226.5 -94.5t75.5 -246.5zM469 367q0 37 -7 74t-22 71.5t-42 56t-62 21.5q-84 0 -84 -51l-1 -138h58q54 0 54 -51q0 -56 -57 -56h-56l-1 -148q0 -35 68 -35q45 0 76.5 24t47 64.5t22 81t6.5 86.5z" />
    <glyph glyph-name="Ntilde" unicode="&#xd1;" horiz-adv-x="702" 
d="M83 565q0 12 -8.5 20t-19 11.5t-19 13t-8.5 24.5q0 36 38.5 52t83.5 16q83 0 116 -60l230 -380l3 2l-5 364q0 39 16.5 56.5t54.5 17.5q69 0 69 -67l-4 -563q0 -35 -24 -55.5t-59 -20.5q-65 0 -101 64l-224 369l-3 -1l3 -358q0 -73 -72 -73q-36 0 -53.5 17t-16.5 52z
M502 900q13 0 27 -11t14 -26q0 -11 -13 -33q-17 -28 -48 -47t-70 -19q-37 0 -69 18q-37 20 -52 20q-19 0 -39 -20q-14 -14 -28 -14t-27.5 10.5t-13.5 25.5q0 13 12 34q17 27 48.5 46.5t70.5 19.5q35 0 67 -18q38 -20 52 -20q19 0 42 21q13 13 27 13z" />
    <glyph glyph-name="Ograve" unicode="&#xd2;" horiz-adv-x="707" 
d="M358 709q154 0 233.5 -95t79.5 -253q0 -163 -82.5 -268.5t-239.5 -105.5q-155 0 -233.5 94.5t-78.5 253.5q0 162 82 268t239 106zM494 379q0 92 -33.5 153.5t-101.5 61.5q-147 0 -147 -279q0 -90 32.5 -151t99.5 -61q150 0 150 276zM228 895q0 23 21 40.5t46 17.5
q30 0 50 -23q9 -11 42.5 -57.5t38.5 -55.5q6 -12 6 -22q0 -16 -15.5 -28.5t-31.5 -12.5t-30 10q-16 10 -54.5 43t-48.5 44q-24 24 -24 44z" />
    <glyph glyph-name="Oacute" unicode="&#xd3;" horiz-adv-x="707" 
d="M487 900q0 -27 -24 -49q-9 -10 -50 -43.5t-57 -43.5q-14 -10 -31 -10q-14 0 -27 10t-13 26q0 10 6 22q5 9 40 57.5t45 59.5q19 24 50 24q22 0 41.5 -15.5t19.5 -37.5zM358 709q154 0 233.5 -95t79.5 -253q0 -163 -82.5 -268.5t-239.5 -105.5q-155 0 -233.5 94.5
t-78.5 253.5q0 162 82 268t239 106zM494 379q0 92 -33.5 153.5t-101.5 61.5q-147 0 -147 -279q0 -90 32.5 -151t99.5 -61q150 0 150 276z" />
    <glyph glyph-name="Ocircumflex" unicode="&#xd4;" horiz-adv-x="707" 
d="M529 802q0 -13 -12.5 -25.5t-28.5 -12.5q-8 0 -19 3q-12 4 -48.5 25.5t-60.5 37.5q-80 -54 -107 -63q-9 -3 -19 -3q-12 0 -24.5 10t-12.5 26q0 14 14 31q10 11 52 50.5t56 48.5q18 12 44 12t45 -12q13 -8 54 -46t54 -52t13 -30zM358 709q154 0 233.5 -95t79.5 -253
q0 -163 -82.5 -268.5t-239.5 -105.5q-155 0 -233.5 94.5t-78.5 253.5q0 162 82 268t239 106zM494 379q0 92 -33.5 153.5t-101.5 61.5q-147 0 -147 -279q0 -90 32.5 -151t99.5 -61q150 0 150 276z" />
    <glyph glyph-name="Otilde" unicode="&#xd5;" horiz-adv-x="707" 
d="M358 709q154 0 233.5 -95t79.5 -253q0 -163 -82.5 -268.5t-239.5 -105.5q-155 0 -233.5 94.5t-78.5 253.5q0 162 82 268t239 106zM494 379q0 92 -33.5 153.5t-101.5 61.5q-147 0 -147 -279q0 -90 32.5 -151t99.5 -61q150 0 150 276zM500 900q13 0 27 -11t14 -26
q0 -11 -13 -33q-17 -28 -48 -47t-70 -19q-37 0 -69 18q-37 20 -52 20q-19 0 -39 -20q-14 -14 -28 -14t-27.5 10.5t-13.5 25.5q0 13 12 34q17 27 48.5 46.5t70.5 19.5q35 0 67 -18q38 -20 52 -20q19 0 42 21q13 13 27 13z" />
    <glyph glyph-name="Odieresis" unicode="&#xd6;" horiz-adv-x="707" 
d="M337 828q0 -61 -83 -61q-80 0 -80 54q0 33 27.5 48t61.5 15q74 0 74 -56zM552 829q0 -34 -26.5 -48t-60.5 -14q-77 0 -77 57q0 60 84 60q80 0 80 -55zM358 709q154 0 233.5 -95t79.5 -253q0 -163 -82.5 -268.5t-239.5 -105.5q-155 0 -233.5 94.5t-78.5 253.5
q0 162 82 268t239 106zM494 379q0 92 -33.5 153.5t-101.5 61.5q-147 0 -147 -279q0 -90 32.5 -151t99.5 -61q150 0 150 276z" />
    <glyph glyph-name="multiply" unicode="&#xd7;" horiz-adv-x="520" 
d="M483 489q0 -16 -14 -32l-128 -129l127 -129q15 -15 15 -33q0 -22 -21 -43t-43 -21q-17 0 -32 15l-127 129l-126 -129q-15 -15 -32 -15q-22 0 -43 21.5t-21 42.5q0 18 15 33l126 129l-127 130q-14 14 -14 31q0 22 21.5 43.5t42.5 21.5q18 0 31 -15l127 -130l127 130
q16 14 31 14q22 0 43.5 -21.5t21.5 -42.5z" />
    <glyph glyph-name="Oslash" unicode="&#xd8;" horiz-adv-x="709" 
d="M673 363q0 -106 -34 -189t-108.5 -135t-180.5 -52q-114 0 -189 55l-29 -34q-12 -16 -28 -16q-18 0 -38 17q-22 17 -22 39q0 12 10 25l36 43q-53 87 -53 217q0 162 82.5 269t239.5 107q109 0 182 -51l33 39q14 15 30 15q19 0 37 -16q22 -17 22 -39q0 -14 -10 -25l-39 -46
q59 -87 59 -223zM503 356q0 53 -15 86l-243 -297q37 -57 100 -57q46 0 78 21.5t48.5 61.5t23.5 84t8 101zM458 556q-34 51 -97 51q-46 0 -77.5 -22t-47.5 -63.5t-22.5 -85.5t-7.5 -101q0 -44 12 -73z" />
    <glyph glyph-name="Ugrave" unicode="&#xd9;" 
d="M636 642q0 -199 -3 -415q-1 -117 -78 -178t-198 -61q-146 0 -212 67t-65 194q0 136 3 319q0 11 -8.5 17.5t-19 9.5t-19 13t-8.5 26q0 25 21.5 41.5t47 22t52.5 5.5q51 0 80 -26.5t29 -77.5q0 -35 -1.5 -188t-1.5 -188q0 -55 29 -84t84 -29q54 0 85 29.5t31 82.5l3 420
q1 29 23 44t53 15t52 -14.5t21 -44.5zM238 895q0 23 21 40.5t46 17.5q30 0 50 -23q9 -11 42.5 -57.5t38.5 -55.5q6 -12 6 -22q0 -16 -15.5 -28.5t-31.5 -12.5t-30 10q-16 10 -54.5 43t-48.5 44q-24 24 -24 44z" />
    <glyph glyph-name="Uacute" unicode="&#xda;" 
d="M502 900q0 -27 -24 -49q-9 -10 -50 -43.5t-57 -43.5q-14 -10 -31 -10q-14 0 -27 10t-13 26q0 10 6 22q5 9 40 57.5t45 59.5q19 24 50 24q22 0 41.5 -15.5t19.5 -37.5zM636 642q0 -199 -3 -415q-1 -117 -78 -178t-198 -61q-146 0 -212 67t-65 194q0 136 3 319
q0 11 -8.5 17.5t-19 9.5t-19 13t-8.5 26q0 25 21.5 41.5t47 22t52.5 5.5q51 0 80 -26.5t29 -77.5q0 -35 -1.5 -188t-1.5 -188q0 -55 29 -84t84 -29q54 0 85 29.5t31 82.5l3 420q1 29 23 44t53 15t52 -14.5t21 -44.5z" />
    <glyph glyph-name="Ucircumflex" unicode="&#xdb;" 
d="M540 802q0 -13 -12.5 -25.5t-28.5 -12.5q-9 0 -19 3q-12 4 -48.5 25.5t-60.5 37.5q-80 -54 -107 -63q-9 -3 -19 -3q-12 0 -24.5 10t-12.5 26q0 14 14 31q10 11 52 50.5t56 48.5q18 12 44 12t45 -12q13 -8 54 -46t54 -52t13 -30zM636 642q0 -199 -3 -415q-1 -117 -78 -178
t-198 -61q-146 0 -212 67t-65 194q0 136 3 319q0 11 -8.5 17.5t-19 9.5t-19 13t-8.5 26q0 25 21.5 41.5t47 22t52.5 5.5q51 0 80 -26.5t29 -77.5q0 -35 -1.5 -188t-1.5 -188q0 -55 29 -84t84 -29q54 0 85 29.5t31 82.5l3 420q1 29 23 44t53 15t52 -14.5t21 -44.5z" />
    <glyph glyph-name="Udieresis" unicode="&#xdc;" 
d="M346 828q0 -61 -83 -61q-80 0 -80 54q0 33 27.5 48t61.5 15q74 0 74 -56zM561 829q0 -34 -26.5 -48t-60.5 -14q-77 0 -77 57q0 60 84 60q80 0 80 -55zM636 642q0 -199 -3 -415q-1 -117 -78 -178t-198 -61q-146 0 -212 67t-65 194q0 136 3 319q0 11 -8.5 17.5t-19 9.5
t-19 13t-8.5 26q0 25 21.5 41.5t47 22t52.5 5.5q51 0 80 -26.5t29 -77.5q0 -35 -1.5 -188t-1.5 -188q0 -55 29 -84t84 -29q54 0 85 29.5t31 82.5l3 420q1 29 23 44t53 15t52 -14.5t21 -44.5z" />
    <glyph glyph-name="Yacute" unicode="&#xdd;" horiz-adv-x="621" 
d="M219 275l-156 296q-8 17 -25 23q-38 13 -38 43t35.5 47.5t77.5 17.5q82 0 113 -70l107 -229h4l132 249q13 24 28 34t42 10t48 -12t21 -38q0 -20 -12 -39l-198 -330v-209q0 -37 -25 -54.5t-64 -17.5q-90 0 -90 72v207zM463 900q0 -27 -24 -49q-9 -10 -50 -43.5t-57 -43.5
q-14 -10 -31 -10q-14 0 -27 10t-13 26q0 10 6 22q5 9 40 57.5t45 59.5q19 24 50 24q22 0 41.5 -15.5t19.5 -37.5z" />
    <glyph glyph-name="Thorn" unicode="&#xde;" horiz-adv-x="635" 
d="M601 373q0 -129 -77 -197t-194 -68q-43 0 -91 10v-54q0 -34 -25 -52t-64 -18q-87 0 -87 75l1 561q0 35 24.5 53t63.5 18q88 0 88 -77v-45q43 13 91 13q65 0 108.5 -9.5t84.5 -37.5q77 -55 77 -172zM434 360q0 125 -107 125q-89 0 -89 -46v-193q0 -30 63 -30
q133 0 133 144z" />
    <glyph glyph-name="germandbls" unicode="&#xdf;" horiz-adv-x="644" 
d="M631 159q0 -70 -52 -117t-135 -47q-96 0 -145 56q-14 17 -14 39q0 21 14 37.5t33 16.5q16 0 26 -9q35 -31 77 -31q24 0 39 11t15 32q0 25 -30 47q-14 9 -44 25t-44 26q-36 27 -50.5 48t-14.5 58t18.5 60.5t56.5 47.5q26 17 37.5 35t11.5 48q0 31 -27 46t-60 15
q-102 0 -102 -122l-2 -415q0 -35 -22.5 -52t-58.5 -17q-81 0 -81 69l1 285q0 25 -18 29q-12 4 -18.5 7.5t-12 11.5t-5.5 21q0 37 56 58q8 230 252 230q105 0 174 -40.5t69 -122.5q0 -29 -9.5 -52.5t-28.5 -41.5t-31 -26.5t-34 -21.5q-27 -15 -27 -31q0 -12 14 -23
q11 -8 45.5 -26.5t56.5 -34.5q70 -48 70 -129z" />
    <glyph glyph-name="agrave" unicode="&#xe0;" horiz-adv-x="531" 
d="M520 69q0 -28 -37 -49.5t-79 -21.5q-30 0 -49.5 18t-25.5 46l-1 17q-56 -84 -159 -84q-69 0 -106.5 39t-37.5 102q0 65 35.5 100.5t104.5 49.5l153 32v32q0 30 -18 46.5t-48 16.5t-41.5 -8.5t-17.5 -28.5q-8 -25 -25 -35t-48 -10q-62 0 -62 59q0 31 12 48.5t52 36.5
q62 33 136 33q109 0 160.5 -47t51.5 -146v-181q0 -13 5.5 -19t20.5 -11q24 -8 24 -35zM319 196v32q0 9 -9 9q-5 0 -9 -1l-81 -18q-50 -10 -50 -59v-4q0 -22 14 -35t33 -13q67 0 94 56q8 16 8 33zM136 695q0 23 21 40.5t46 17.5q30 0 50 -23q9 -11 42.5 -57.5t38.5 -55.5
q6 -12 6 -22q0 -16 -15.5 -28.5t-31.5 -12.5t-30 10q-16 10 -54.5 43t-48.5 44q-24 24 -24 44z" />
    <glyph glyph-name="aacute" unicode="&#xe1;" horiz-adv-x="531" 
d="M520 69q0 -28 -37 -49.5t-79 -21.5q-30 0 -49.5 18t-25.5 46l-1 17q-56 -84 -159 -84q-69 0 -106.5 39t-37.5 102q0 65 35.5 100.5t104.5 49.5l153 32v32q0 30 -18 46.5t-48 16.5t-41.5 -8.5t-17.5 -28.5q-8 -25 -25 -35t-48 -10q-62 0 -62 59q0 31 12 48.5t52 36.5
q62 33 136 33q109 0 160.5 -47t51.5 -146v-181q0 -13 5.5 -19t20.5 -11q24 -8 24 -35zM319 196v32q0 9 -9 9q-5 0 -9 -1l-81 -18q-50 -10 -50 -59v-4q0 -22 14 -35t33 -13q67 0 94 56q8 16 8 33zM401 700q0 -27 -24 -49q-9 -10 -50 -43.5t-57 -43.5q-14 -10 -31 -10
q-14 0 -27 10t-13 26q0 10 6 22q5 9 40 57.5t45 59.5q19 24 50 24q22 0 41.5 -15.5t19.5 -37.5z" />
    <glyph glyph-name="acircumflex" unicode="&#xe2;" horiz-adv-x="531" 
d="M520 69q0 -28 -37 -49.5t-79 -21.5q-30 0 -49.5 18t-25.5 46l-1 17q-56 -84 -159 -84q-69 0 -106.5 39t-37.5 102q0 65 35.5 100.5t104.5 49.5l153 32v32q0 30 -18 46.5t-48 16.5t-41.5 -8.5t-17.5 -28.5q-8 -25 -25 -35t-48 -10q-62 0 -62 59q0 31 12 48.5t52 36.5
q62 33 136 33q109 0 160.5 -47t51.5 -146v-181q0 -13 5.5 -19t20.5 -11q24 -8 24 -35zM319 196v32q0 9 -9 9q-5 0 -9 -1l-81 -18q-50 -10 -50 -59v-4q0 -22 14 -35t33 -13q67 0 94 56q8 16 8 33zM431 602q0 -13 -12.5 -25.5t-28.5 -12.5q-8 0 -19 3q-12 4 -48.5 25.5
t-60.5 37.5q-80 -54 -107 -63q-9 -3 -19 -3q-12 0 -24.5 10t-12.5 26q0 14 14 31q10 11 52 50.5t56 48.5q18 12 44 12t45 -12q13 -8 54 -46t54 -52t13 -30z" />
    <glyph glyph-name="atilde" unicode="&#xe3;" horiz-adv-x="531" 
d="M520 69q0 -28 -37 -49.5t-79 -21.5q-30 0 -49.5 18t-25.5 46l-1 17q-56 -84 -159 -84q-69 0 -106.5 39t-37.5 102q0 65 35.5 100.5t104.5 49.5l153 32v32q0 30 -18 46.5t-48 16.5t-41.5 -8.5t-17.5 -28.5q-8 -25 -25 -35t-48 -10q-62 0 -62 59q0 31 12 48.5t52 36.5
q62 33 136 33q109 0 160.5 -47t51.5 -146v-181q0 -13 5.5 -19t20.5 -11q24 -8 24 -35zM319 196v32q0 9 -9 9q-5 0 -9 -1l-81 -18q-50 -10 -50 -59v-4q0 -22 14 -35t33 -13q67 0 94 56q8 16 8 33zM409 700q13 0 27 -11t14 -26q0 -11 -13 -33q-17 -28 -48 -47t-70 -19
q-37 0 -69 18q-37 20 -52 20q-19 0 -39 -20q-14 -14 -28 -14t-27.5 10.5t-13.5 25.5q0 13 12 34q17 27 48.5 46.5t70.5 19.5q35 0 67 -18q38 -20 52 -20q19 0 42 21q13 13 27 13z" />
    <glyph glyph-name="adieresis" unicode="&#xe4;" horiz-adv-x="531" 
d="M520 69q0 -28 -37 -49.5t-79 -21.5q-30 0 -49.5 18t-25.5 46l-1 17q-56 -84 -159 -84q-69 0 -106.5 39t-37.5 102q0 65 35.5 100.5t104.5 49.5l153 32v32q0 30 -18 46.5t-48 16.5t-41.5 -8.5t-17.5 -28.5q-8 -25 -25 -35t-48 -10q-62 0 -62 59q0 31 12 48.5t52 36.5
q62 33 136 33q109 0 160.5 -47t51.5 -146v-181q0 -13 5.5 -19t20.5 -11q24 -8 24 -35zM319 196v32q0 9 -9 9q-5 0 -9 -1l-81 -18q-50 -10 -50 -59v-4q0 -22 14 -35t33 -13q67 0 94 56q8 16 8 33zM240 628q0 -61 -83 -61q-80 0 -80 54q0 33 27.5 48t61.5 15q74 0 74 -56z
M455 629q0 -34 -26.5 -48t-60.5 -14q-77 0 -77 57q0 60 84 60q80 0 80 -55z" />
    <glyph glyph-name="aring" unicode="&#xe5;" horiz-adv-x="531" 
d="M520 69q0 -28 -37 -49.5t-79 -21.5q-30 0 -49.5 18t-25.5 46l-1 17q-56 -84 -159 -84q-69 0 -106.5 39t-37.5 102q0 65 35.5 100.5t104.5 49.5l153 32v32q0 30 -18 46.5t-48 16.5t-41.5 -8.5t-17.5 -28.5q-8 -25 -25 -35t-48 -10q-62 0 -62 59q0 31 12 48.5t52 36.5
q62 33 136 33q109 0 160.5 -47t51.5 -146v-181q0 -13 5.5 -19t20.5 -11q24 -8 24 -35zM319 196v32q0 9 -9 9q-5 0 -9 -1l-81 -18q-50 -10 -50 -59v-4q0 -22 14 -35t33 -13q67 0 94 56q8 16 8 33zM394 663q0 -54 -36.5 -87t-89.5 -33q-52 0 -88.5 31.5t-36.5 84.5q0 54 37 88
t88 34q53 0 89.5 -31.5t36.5 -86.5zM321 661q0 23 -13.5 38.5t-39.5 15.5q-24 0 -38 -15.5t-14 -38.5q0 -22 14 -37.5t38 -15.5q25 0 39 15.5t14 37.5z" />
    <glyph glyph-name="ae" unicode="&#xe6;" horiz-adv-x="817" 
d="M787 300q0 -41 -18 -65.5t-69 -24.5l-221 -1q-12 0 -12 -15q0 -48 29.5 -75t83.5 -27q57 0 110 42q16 14 34 14q21 0 34.5 -14.5t13.5 -32.5q0 -19 -17 -39q-29 -33 -83 -55t-119 -22q-140 0 -193 97q-67 -90 -191 -90q-69 0 -106.5 39.5t-37.5 101.5q0 66 35.5 101
t104.5 49l153 32v31q0 31 -18 48.5t-48 17.5q-31 0 -43 -8.5t-17 -27.5q-14 -46 -73 -46q-62 0 -62 59q0 32 12 49.5t52 36.5q66 34 135 34q112 0 155 -58q61 59 145 59q111 0 171 -63.5t60 -146.5zM625 300q18 0 18 19q0 40 -20.5 65.5t-58.5 25.5q-42 0 -65 -32t-30 -78
h156zM319 186v39q0 8 -10 8q-5 0 -9 -1l-79 -17q-51 -10 -51 -62v-3q0 -24 13.5 -36.5t36.5 -12.5q69 0 92 56q7 16 7 29z" />
    <glyph glyph-name="ccedilla" unicode="&#xe7;" horiz-adv-x="507" 
d="M373 -132q0 -44 -34.5 -72t-91.5 -28q-41 0 -73.5 12.5t-32.5 38.5q0 16 10 30t26 14q11 0 19 -4q21 -7 36 -7q26 0 26 21q0 9 -7 16t-29 19q-19 11 -19 26q0 13 11 31l13 24q-99 13 -151.5 77.5t-52.5 167.5q0 111 74.5 194t189.5 83q92 0 149 -37q40 -25 40 -63
q0 -10 -1 -16q-5 -34 -20.5 -47t-54.5 -13q-55 0 -65 44q-7 30 -35 30q-30 0 -52.5 -17.5t-34.5 -46t-17.5 -57t-5.5 -56.5q0 -66 30 -102.5t83 -36.5q47 0 96 36q16 11 32 11q19 0 34 -14.5t15 -35.5q0 -20 -17 -37q-52 -57 -155 -66l-8 -19q-2 -3 -2 -8q0 -6 11 -10
q64 -24 64 -82z" />
    <glyph glyph-name="egrave" unicode="&#xe8;" horiz-adv-x="532" 
d="M501 300q0 -41 -18 -65.5t-68 -24.5l-222 -1q-12 0 -12 -15q0 -48 30 -75t83 -27q57 0 110 42q17 14 34 14q21 0 34.5 -15t13.5 -32q0 -19 -17 -39q-28 -33 -82.5 -55t-119.5 -22q-122 0 -183 66t-61 183q0 112 69 194t175 82q116 0 175 -63t59 -147zM339 300q18 0 18 19
q0 40 -20.5 65.5t-58.5 25.5q-41 0 -64.5 -32.5t-29.5 -77.5h155zM145 695q0 23 21 40.5t46 17.5q30 0 50 -23q9 -11 42.5 -57.5t38.5 -55.5q6 -12 6 -22q0 -16 -15.5 -28.5t-31.5 -12.5t-30 10q-16 10 -54.5 43t-48.5 44q-24 24 -24 44z" />
    <glyph glyph-name="eacute" unicode="&#xe9;" horiz-adv-x="532" 
d="M409 700q0 -27 -24 -49q-9 -10 -50 -43.5t-57 -43.5q-14 -10 -31 -10q-14 0 -27 10t-13 26q0 10 6 22q5 9 40 57.5t45 59.5q19 24 50 24q22 0 41.5 -15.5t19.5 -37.5zM501 300q0 -41 -18 -65.5t-68 -24.5l-222 -1q-12 0 -12 -15q0 -48 30 -75t83 -27q57 0 110 42
q17 14 34 14q21 0 34.5 -15t13.5 -32q0 -19 -17 -39q-28 -33 -82.5 -55t-119.5 -22q-122 0 -183 66t-61 183q0 112 69 194t175 82q116 0 175 -63t59 -147zM339 300q18 0 18 19q0 40 -20.5 65.5t-58.5 25.5q-41 0 -64.5 -32.5t-29.5 -77.5h155z" />
    <glyph glyph-name="ecircumflex" unicode="&#xea;" horiz-adv-x="532" 
d="M445 602q0 -13 -12.5 -25.5t-28.5 -12.5q-8 0 -19 3q-12 4 -48.5 25.5t-60.5 37.5q-80 -54 -107 -63q-9 -3 -19 -3q-12 0 -24.5 10t-12.5 26q0 14 14 31q10 11 52 50.5t56 48.5q18 12 44 12t45 -12q13 -8 54 -46t54 -52t13 -30zM501 300q0 -41 -18 -65.5t-68 -24.5
l-222 -1q-12 0 -12 -15q0 -48 30 -75t83 -27q57 0 110 42q17 14 34 14q21 0 34.5 -15t13.5 -32q0 -19 -17 -39q-28 -33 -82.5 -55t-119.5 -22q-122 0 -183 66t-61 183q0 112 69 194t175 82q116 0 175 -63t59 -147zM339 300q18 0 18 19q0 40 -20.5 65.5t-58.5 25.5
q-41 0 -64.5 -32.5t-29.5 -77.5h155z" />
    <glyph glyph-name="edieresis" unicode="&#xeb;" horiz-adv-x="532" 
d="M253 628q0 -61 -83 -61q-80 0 -80 54q0 33 27.5 48t61.5 15q74 0 74 -56zM468 629q0 -34 -26.5 -48t-60.5 -14q-77 0 -77 57q0 60 84 60q80 0 80 -55zM501 300q0 -41 -18 -65.5t-68 -24.5l-222 -1q-12 0 -12 -15q0 -48 30 -75t83 -27q57 0 110 42q17 14 34 14
q21 0 34.5 -15t13.5 -32q0 -19 -17 -39q-28 -33 -82.5 -55t-119.5 -22q-122 0 -183 66t-61 183q0 112 69 194t175 82q116 0 175 -63t59 -147zM339 300q18 0 18 19q0 40 -20.5 65.5t-58.5 25.5q-41 0 -64.5 -32.5t-29.5 -77.5h155z" />
    <glyph glyph-name="igrave" unicode="&#xec;" horiz-adv-x="297" 
d="M274 56q0 -33 -34.5 -46.5t-78.5 -13.5q-104 0 -104 98v339q0 34 23 50.5t58 16.5q81 0 81 -67v-312q0 -12 8.5 -19t19 -10.5t19 -12.5t8.5 -23zM9 695q0 23 21 40.5t46 17.5q30 0 50 -23q9 -11 42.5 -57.5t38.5 -55.5q6 -12 6 -22q0 -16 -15.5 -28.5t-31.5 -12.5t-30 10
q-16 10 -54.5 43t-48.5 44q-24 24 -24 44z" />
    <glyph glyph-name="iacute" unicode="&#xed;" horiz-adv-x="297" 
d="M269 700q0 -27 -24 -49q-9 -10 -50 -43.5t-57 -43.5q-14 -10 -31 -10q-14 0 -27 10t-13 26q0 10 6 22q5 9 40 57.5t45 59.5q19 24 50 24q22 0 41.5 -15.5t19.5 -37.5zM274 56q0 -33 -34.5 -46.5t-78.5 -13.5q-104 0 -104 98v339q0 34 23 50.5t58 16.5q81 0 81 -67v-312
q0 -12 8.5 -19t19 -10.5t19 -12.5t8.5 -23z" />
    <glyph glyph-name="icircumflex" unicode="&#xee;" horiz-adv-x="297" 
d="M308 602q0 -13 -12.5 -25.5t-28.5 -12.5q-9 0 -19 3q-12 4 -48.5 25.5t-60.5 37.5q-80 -54 -107 -63q-9 -3 -19 -3q-12 0 -24.5 10t-12.5 26q0 14 14 31q10 11 52 50.5t56 48.5q18 12 44 12t45 -12q13 -8 54 -46t54 -52t13 -30zM274 56q0 -33 -34.5 -46.5t-78.5 -13.5
q-104 0 -104 98v339q0 34 23 50.5t58 16.5q81 0 81 -67v-312q0 -12 8.5 -19t19 -10.5t19 -12.5t8.5 -23z" />
    <glyph glyph-name="idieresis" unicode="&#xef;" horiz-adv-x="297" 
d="M116 628q0 -61 -83 -61q-80 0 -80 54q0 33 27.5 48t61.5 15q74 0 74 -56zM331 629q0 -34 -26.5 -48t-60.5 -14q-77 0 -77 57q0 60 84 60q80 0 80 -55zM274 56q0 -33 -34.5 -46.5t-78.5 -13.5q-104 0 -104 98v339q0 34 23 50.5t58 16.5q81 0 81 -67v-312q0 -12 8.5 -19
t19 -10.5t19 -12.5t8.5 -23z" />
    <glyph glyph-name="eth" unicode="&#xf0;" horiz-adv-x="568" 
d="M189 710q81 0 156 -44l49 32q13 8 24 8q16 1 30 -14t16 -30q0 -20 -24 -34l-25 -16q116 -112 116 -320q0 -135 -69.5 -221t-188.5 -86q-112 0 -180 55.5t-68 180.5q0 119 65.5 190t161.5 71q69 0 106 -40l5 2q-13 60 -54 101l-44 -27q-10 -7 -24 -9q-16 -1 -31 14t-15 30
q-1 18 21 32l21 12q-32 14 -69 19q-48 7 -48 41q0 30 16 41.5t53 11.5zM274 76q99 0 99 163q0 74 -26 116t-70 42q-94 0 -94 -169q0 -152 91 -152z" />
    <glyph glyph-name="ntilde" unicode="&#xf1;" horiz-adv-x="617" 
d="M593 58q0 -31 -36.5 -47.5t-85.5 -16.5q-37 0 -62 22t-24 59l2 253q0 57 -46 57q-40 0 -71.5 -36t-31.5 -76v-210q0 -34 -22.5 -50.5t-58.5 -16.5q-81 0 -81 67v299q0 22 -15 27q-37 10 -37 38q0 31 41.5 52t81.5 21q66 0 80 -72v-10q67 85 184 85q59 0 97 -39t38 -104
q0 -24 -2 -120t-2 -119q0 -12 7.5 -18.5t17.5 -9t18 -11t8 -24.5zM455 700q13 0 27 -11t14 -26q0 -11 -13 -33q-17 -28 -48 -47t-70 -19q-37 0 -69 18q-37 20 -52 20q-19 0 -39 -20q-14 -14 -28 -14t-27.5 10.5t-13.5 25.5q0 13 12 34q17 27 48.5 46.5t70.5 19.5
q35 0 67 -18q38 -20 52 -20q19 0 42 21q13 13 27 13z" />
    <glyph glyph-name="ograve" unicode="&#xf2;" horiz-adv-x="556" 
d="M281 509q118 0 184 -66t66 -185q0 -120 -69 -196t-187 -76q-117 0 -183.5 65.5t-66.5 183.5q0 120 68.5 197t187.5 77zM372 264q0 61 -21 103t-70 42q-98 0 -98 -184q0 -56 22 -98t68 -42q99 0 99 179zM149 695q0 23 21 40.5t46 17.5q30 0 50 -23q9 -11 42.5 -57.5
t38.5 -55.5q6 -12 6 -22q0 -16 -15.5 -28.5t-31.5 -12.5t-30 10q-16 10 -54.5 43t-48.5 44q-24 24 -24 44z" />
    <glyph glyph-name="oacute" unicode="&#xf3;" horiz-adv-x="556" 
d="M413 700q0 -27 -24 -49q-9 -10 -50 -43.5t-57 -43.5q-14 -10 -31 -10q-14 0 -27 10t-13 26q0 10 6 22q5 9 40 57.5t45 59.5q19 24 50 24q22 0 41.5 -15.5t19.5 -37.5zM281 509q118 0 184 -66t66 -185q0 -120 -69 -196t-187 -76q-117 0 -183.5 65.5t-66.5 183.5
q0 120 68.5 197t187.5 77zM372 264q0 61 -21 103t-70 42q-98 0 -98 -184q0 -56 22 -98t68 -42q99 0 99 179z" />
    <glyph glyph-name="ocircumflex" unicode="&#xf4;" horiz-adv-x="556" 
d="M451 602q0 -13 -12.5 -25.5t-28.5 -12.5q-8 0 -19 3q-12 4 -48.5 25.5t-60.5 37.5q-80 -54 -107 -63q-9 -3 -19 -3q-12 0 -24.5 10t-12.5 26q0 14 14 31q10 11 52 50.5t56 48.5q18 12 44 12t45 -12q13 -8 54 -46t54 -52t13 -30zM281 509q118 0 184 -66t66 -185
q0 -120 -69 -196t-187 -76q-117 0 -183.5 65.5t-66.5 183.5q0 120 68.5 197t187.5 77zM372 264q0 61 -21 103t-70 42q-98 0 -98 -184q0 -56 22 -98t68 -42q99 0 99 179z" />
    <glyph glyph-name="otilde" unicode="&#xf5;" horiz-adv-x="556" 
d="M281 509q118 0 184 -66t66 -185q0 -120 -69 -196t-187 -76q-117 0 -183.5 65.5t-66.5 183.5q0 120 68.5 197t187.5 77zM372 264q0 61 -21 103t-70 42q-98 0 -98 -184q0 -56 22 -98t68 -42q99 0 99 179zM425 700q13 0 27 -11t14 -26q0 -11 -13 -33q-17 -28 -48 -47
t-70 -19q-37 0 -69 18q-37 20 -52 20q-19 0 -39 -20q-14 -14 -28 -14t-27.5 10.5t-13.5 25.5q0 13 12 34q17 27 48.5 46.5t70.5 19.5q35 0 67 -18q38 -20 52 -20q19 0 42 21q13 13 27 13z" />
    <glyph glyph-name="odieresis" unicode="&#xf6;" horiz-adv-x="556" 
d="M258 628q0 -61 -83 -61q-80 0 -80 54q0 33 27.5 48t61.5 15q74 0 74 -56zM473 629q0 -34 -26.5 -48t-60.5 -14q-77 0 -77 57q0 60 84 60q80 0 80 -55zM281 509q118 0 184 -66t66 -185q0 -120 -69 -196t-187 -76q-117 0 -183.5 65.5t-66.5 183.5q0 120 68.5 197t187.5 77z
M372 264q0 61 -21 103t-70 42q-98 0 -98 -184q0 -56 22 -98t68 -42q99 0 99 179z" />
    <glyph glyph-name="divide" unicode="&#xf7;" horiz-adv-x="586" 
d="M379 536q0 -32 -26.5 -54t-60.5 -22q-33 0 -57 20t-24 51q0 32 26 54t61 22q33 0 57 -20t24 -51zM377 126q0 -32 -26 -54.5t-60 -22.5t-57.5 20t-23.5 51q0 32 26 54t61 22q33 0 56.5 -20t23.5 -50zM85 387h418q48 0 48 -58t-48 -58h-418q-25 0 -37.5 16t-12.5 42
t12.5 42t37.5 16z" />
    <glyph glyph-name="oslash" unicode="&#xf8;" horiz-adv-x="556" 
d="M531 260q0 -124 -69.5 -199t-186.5 -75q-75 0 -128 28l-28 -35q-13 -14 -28 -14q-19 0 -37.5 16.5t-18.5 36.5q0 13 10 24l26 32q-46 63 -46 161q0 122 69.5 198t186.5 76q74 0 131 -30l29 33q13 14 28 14q19 0 37.5 -16.5t18.5 -34.5q0 -14 -10 -25l-28 -33
q44 -63 44 -157zM183 222q0 -20 1 -29l154 189q-22 27 -57 27q-29 0 -49 -14.5t-30.5 -42t-14.5 -58.5t-4 -72zM372 267q0 10 -2 26l-150 -185q23 -23 53 -23q99 0 99 182z" />
    <glyph glyph-name="ugrave" unicode="&#xf9;" horiz-adv-x="608" 
d="M585 70q0 -33 -46 -54q-40 -20 -79 -20q-29 0 -48 17t-24 45l-1 22q-65 -87 -186 -87q-60 0 -96 37.5t-35 97.5l3 248q0 22 -20 29q-29 8 -29 33q0 34 46 50q34 12 73 12q37 0 61.5 -22t24.5 -57l-2 -251q0 -55 42 -55q25 0 48 12q23 13 40.5 40.5t17.5 53.5v213
q0 66 80 66q79 0 79 -66v-305q0 -18 25 -26q26 -10 26 -33zM173 695q0 23 21 40.5t46 17.5q30 0 50 -23q9 -11 42.5 -57.5t38.5 -55.5q6 -12 6 -22q0 -16 -15.5 -28.5t-31.5 -12.5t-30 10q-16 10 -54.5 43t-48.5 44q-24 24 -24 44z" />
    <glyph glyph-name="uacute" unicode="&#xfa;" horiz-adv-x="608" 
d="M438 700q0 -27 -24 -49q-9 -10 -50 -43.5t-57 -43.5q-14 -10 -31 -10q-14 0 -27 10t-13 26q0 10 6 22q5 9 40 57.5t45 59.5q19 24 50 24q22 0 41.5 -15.5t19.5 -37.5zM585 70q0 -33 -46 -54q-40 -20 -79 -20q-29 0 -48 17t-24 45l-1 22q-65 -87 -186 -87q-60 0 -96 37.5
t-35 97.5l3 248q0 22 -20 29q-29 8 -29 33q0 34 46 50q34 12 73 12q37 0 61.5 -22t24.5 -57l-2 -251q0 -55 42 -55q25 0 48 12q23 13 40.5 40.5t17.5 53.5v213q0 66 80 66q79 0 79 -66v-305q0 -18 25 -26q26 -10 26 -33z" />
    <glyph glyph-name="ucircumflex" unicode="&#xfb;" horiz-adv-x="608" 
d="M471 602q0 -13 -12.5 -25.5t-28.5 -12.5q-8 0 -19 3q-12 4 -48.5 25.5t-60.5 37.5q-80 -54 -107 -63q-9 -3 -19 -3q-12 0 -24.5 10t-12.5 26q0 14 14 31q10 11 52 50.5t56 48.5q18 12 44 12t45 -12q13 -8 54 -46t54 -52t13 -30zM585 70q0 -33 -46 -54q-40 -20 -79 -20
q-29 0 -48 17t-24 45l-1 22q-65 -87 -186 -87q-60 0 -96 37.5t-35 97.5l3 248q0 22 -20 29q-29 8 -29 33q0 34 46 50q34 12 73 12q37 0 61.5 -22t24.5 -57l-2 -251q0 -55 42 -55q25 0 48 12q23 13 40.5 40.5t17.5 53.5v213q0 66 80 66q79 0 79 -66v-305q0 -18 25 -26
q26 -10 26 -33z" />
    <glyph glyph-name="udieresis" unicode="&#xfc;" horiz-adv-x="608" 
d="M279 628q0 -61 -83 -61q-80 0 -80 54q0 33 27.5 48t61.5 15q74 0 74 -56zM494 629q0 -34 -26.5 -48t-60.5 -14q-77 0 -77 57q0 60 84 60q80 0 80 -55zM585 70q0 -33 -46 -54q-40 -20 -79 -20q-29 0 -48 17t-24 45l-1 22q-65 -87 -186 -87q-60 0 -96 37.5t-35 97.5l3 248
q0 22 -20 29q-29 8 -29 33q0 34 46 50q34 12 73 12q37 0 61.5 -22t24.5 -57l-2 -251q0 -55 42 -55q25 0 48 12q23 13 40.5 40.5t17.5 53.5v213q0 66 80 66q79 0 79 -66v-305q0 -18 25 -26q26 -10 26 -33z" />
    <glyph glyph-name="yacute" unicode="&#xfd;" horiz-adv-x="541" 
d="M51 -134q0 36 16 54t53 18q39 0 52 -16q5 -4 9 -4q11 0 18 19l33 77q-4 -1 -8 -1q-32 0 -45 31l-139 335q-7 15 -22 21q-33 14 -33 40q0 29 38 44t74 15q73 0 97 -67l96 -272h4l111 297q15 40 68 40q24 0 43.5 -12t19.5 -35q0 -12 -6 -27l-178 -438q-43 -108 -103 -154
q-48 -36 -115 -36q-83 0 -83 71zM422 700q0 -27 -24 -49q-9 -10 -50 -43.5t-57 -43.5q-14 -10 -31 -10q-14 0 -27 10t-13 26q0 10 6 22q5 9 40 57.5t45 59.5q19 24 50 24q22 0 41.5 -15.5t19.5 -37.5z" />
    <glyph glyph-name="thorn" unicode="&#xfe;" horiz-adv-x="574" 
d="M546 272q0 -98 -39 -166.5t-109 -99.5q-46 -20 -90 -20q-58 0 -95 35v-160q0 -33 -22 -49.5t-58 -16.5q-79 0 -79 66v772q0 34 22 50.5t57 16.5q79 0 79 -67v-190h5q53 61 143 61q47 0 89 -25q46 -28 71.5 -82t25.5 -125zM394 245q-2 147 -90 147q-39 0 -66 -33t-27 -81
v-128q0 -21 20.5 -41.5t42.5 -20.5q58 0 89 45t31 112z" />
    <glyph glyph-name="ydieresis" unicode="&#xff;" horiz-adv-x="541" 
d="M51 -134q0 36 16 54t53 18q39 0 52 -16q5 -4 9 -4q11 0 18 19l33 77q-4 -1 -8 -1q-32 0 -45 31l-139 335q-7 15 -22 21q-33 14 -33 40q0 29 38 44t74 15q73 0 97 -67l96 -272h4l111 297q15 40 68 40q24 0 43.5 -12t19.5 -35q0 -12 -6 -27l-178 -438q-43 -108 -103 -154
q-48 -36 -115 -36q-83 0 -83 71zM266 628q0 -61 -83 -61q-80 0 -80 54q0 33 27.5 48t61.5 15q74 0 74 -56zM481 629q0 -34 -26.5 -48t-60.5 -14q-77 0 -77 57q0 60 84 60q80 0 80 -55z" />
    <glyph glyph-name="Amacron" unicode="&#x100;" horiz-adv-x="701" 
d="M704 63q0 -32 -39.5 -48.5t-76.5 -16.5q-92 0 -111 71l-31 97h-244l-38 -103q-12 -35 -29 -49.5t-57 -14.5q-25 0 -45 13t-20 39q0 15 8 37l210 512q4 8 4 11t-1 11t-1 12q0 33 45.5 51.5t84.5 18.5q43 0 69 -22.5t37 -53.5l171 -496q6 -15 29 -24q35 -13 35 -45z
M416 278l-75 242q-1 6 -4 6q-5 0 -6 -6l-88 -242h173zM528 828q0 -21 -11.5 -35.5t-31.5 -14.5h-259q-20 0 -31.5 14.5t-11.5 35.5q0 22 11.5 36.5t31.5 14.5h259q20 0 31.5 -14.5t11.5 -36.5z" />
    <glyph glyph-name="amacron" unicode="&#x101;" horiz-adv-x="531" 
d="M520 69q0 -28 -37 -49.5t-79 -21.5q-30 0 -49.5 18t-25.5 46l-1 17q-56 -84 -159 -84q-69 0 -106.5 39t-37.5 102q0 65 35.5 100.5t104.5 49.5l153 32v32q0 30 -18 46.5t-48 16.5t-41.5 -8.5t-17.5 -28.5q-8 -25 -25 -35t-48 -10q-62 0 -62 59q0 31 12 48.5t52 36.5
q62 33 136 33q109 0 160.5 -47t51.5 -146v-181q0 -13 5.5 -19t20.5 -11q24 -8 24 -35zM319 196v32q0 9 -9 9q-5 0 -9 -1l-81 -18q-50 -10 -50 -59v-4q0 -22 14 -35t33 -13q67 0 94 56q8 16 8 33zM439 628q0 -21 -11.5 -35.5t-31.5 -14.5h-259q-20 0 -31.5 14.5t-11.5 35.5
q0 22 11.5 36.5t31.5 14.5h259q20 0 31.5 -14.5t11.5 -36.5z" />
    <glyph glyph-name="Abreve" unicode="&#x102;" horiz-adv-x="701" 
d="M704 63q0 -32 -39.5 -48.5t-76.5 -16.5q-92 0 -111 71l-31 97h-244l-38 -103q-12 -35 -29 -49.5t-57 -14.5q-25 0 -45 13t-20 39q0 15 8 37l210 512q4 8 4 11t-1 11t-1 12q0 33 45.5 51.5t84.5 18.5q43 0 69 -22.5t37 -53.5l171 -496q6 -15 29 -24q35 -13 35 -45z
M416 278l-75 242q-1 6 -4 6q-5 0 -6 -6l-88 -242h173zM524 891q0 -15 -11 -35q-19 -34 -59.5 -64t-100.5 -30q-92 0 -146 72q-20 25 -20 52q0 16 13 28.5t32 12.5q13 0 25 -10q26 -27 47.5 -38.5t50.5 -11.5q55 0 105 51q9 9 22 9q18 0 30 -11.5t12 -24.5z" />
    <glyph glyph-name="abreve" unicode="&#x103;" horiz-adv-x="531" 
d="M520 69q0 -28 -37 -49.5t-79 -21.5q-30 0 -49.5 18t-25.5 46l-1 17q-56 -84 -159 -84q-69 0 -106.5 39t-37.5 102q0 65 35.5 100.5t104.5 49.5l153 32v32q0 30 -18 46.5t-48 16.5t-41.5 -8.5t-17.5 -28.5q-8 -25 -25 -35t-48 -10q-62 0 -62 59q0 31 12 48.5t52 36.5
q62 33 136 33q109 0 160.5 -47t51.5 -146v-181q0 -13 5.5 -19t20.5 -11q24 -8 24 -35zM319 196v32q0 9 -9 9q-5 0 -9 -1l-81 -18q-50 -10 -50 -59v-4q0 -22 14 -35t33 -13q67 0 94 56q8 16 8 33zM435 691q0 -15 -11 -35q-19 -34 -59.5 -64t-100.5 -30q-92 0 -146 72
q-20 25 -20 52q0 16 13 28.5t32 12.5q13 0 25 -10q26 -27 47.5 -38.5t50.5 -11.5q56 0 105 51q9 9 22 9q18 0 30 -11.5t12 -24.5z" />
    <glyph glyph-name="Aogonek" unicode="&#x104;" horiz-adv-x="701" 
d="M470 -132q0 84 75 137q-56 11 -68 64l-31 97h-244l-38 -103q-12 -35 -29 -49.5t-57 -14.5q-25 0 -45 13t-20 39q0 15 8 37l210 512q4 8 4 11t-1 11t-1 12q0 33 45.5 51.5t84.5 18.5q43 0 69 -22.5t37 -53.5l171 -496q6 -15 29 -24q35 -13 35 -45q0 -11 -6 -20.5
t-14 -14.5t-23 -14q-81 -46 -81 -112q0 -40 38 -40q13 0 27 7t23 7q15 0 26 -11.5t11 -31.5q0 -31 -44 -49q-34 -16 -78 -16q-54 0 -83.5 27t-29.5 73zM416 278l-75 242q-1 6 -4 6q-5 0 -6 -6l-88 -242h173z" />
    <glyph glyph-name="aogonek" unicode="&#x105;" horiz-adv-x="531" 
d="M288 -129q0 83 78 139q-29 16 -37 52l-1 17q-56 -84 -159 -84q-69 0 -106.5 39t-37.5 102q0 65 35.5 100.5t104.5 49.5l153 32v32q0 30 -18 46.5t-48 16.5t-41.5 -8.5t-17.5 -28.5q-8 -25 -25 -35t-48 -10q-62 0 -62 59q0 31 12 48.5t52 36.5q62 33 136 33
q109 0 160.5 -47t51.5 -146v-181q0 -13 5.5 -19t20.5 -11q24 -8 24 -35t-38 -52q-84 -54 -84 -112q0 -38 38 -38q13 0 27 7t23 7q16 0 26.5 -12t10.5 -31q0 -27 -38 -47q-38 -18 -84 -18q-54 0 -83.5 26t-29.5 72zM319 196v32q0 9 -9 9q-5 0 -9 -1l-81 -18q-50 -10 -50 -59
v-4q0 -22 14 -35t33 -13q67 0 94 56q8 16 8 33z" />
    <glyph glyph-name="Cacute" unicode="&#x106;" horiz-adv-x="655" 
d="M500 900q0 -27 -24 -49q-9 -10 -50 -43.5t-57 -43.5q-14 -10 -31 -10q-14 0 -27 10t-13 26q0 10 6 22q5 9 40 57.5t45 59.5q19 24 50 24q22 0 41.5 -15.5t19.5 -37.5zM37 334q0 156 93.5 266.5t234.5 110.5q107 0 195 -52q53 -30 53 -77q0 -16 -1 -25q-6 -59 -85 -59
q-65 0 -77 46t-73 46q-63 0 -105 -58q-53 -66 -53 -193q0 -224 158 -224q40 0 68.5 12.5t63.5 40.5q22 18 43 18q26 0 45.5 -18.5t19.5 -42.5q0 -17 -18 -42q-76 -97 -241 -97q-164 0 -242.5 94t-78.5 254z" />
    <glyph glyph-name="cacute" unicode="&#x107;" horiz-adv-x="507" 
d="M419 700q0 -27 -24 -49q-9 -10 -50 -43.5t-57 -43.5q-14 -10 -31 -10q-14 0 -27 10t-13 26q0 10 6 22q5 9 40 57.5t45 59.5q19 24 50 24q22 0 41.5 -15.5t19.5 -37.5zM476 411q0 -10 -1 -16q-5 -34 -20.5 -47t-54.5 -13q-55 0 -65 44q-7 30 -35 30q-30 0 -52.5 -17.5
t-34.5 -46t-17.5 -57t-5.5 -56.5q0 -66 30 -102.5t83 -36.5q47 0 96 36q16 11 32 11q19 0 34 -14.5t15 -35.5q0 -20 -17 -37q-27 -30 -76 -49t-110 -19q-122 0 -188 67t-66 182q0 111 74.5 194t189.5 83q92 0 149 -37q40 -25 40 -63z" />
    <glyph glyph-name="Ccircumflex" unicode="&#x108;" horiz-adv-x="655" 
d="M533 802q0 -13 -12.5 -25.5t-28.5 -12.5q-8 0 -19 3q-12 4 -48.5 25.5t-60.5 37.5q-80 -54 -107 -63q-9 -3 -19 -3q-12 0 -24.5 10t-12.5 26q0 14 14 31q10 11 52 50.5t56 48.5q18 12 44 12t45 -12q13 -8 54 -46t54 -52t13 -30zM37 334q0 156 93.5 266.5t234.5 110.5
q107 0 195 -52q53 -30 53 -77q0 -16 -1 -25q-6 -59 -85 -59q-65 0 -77 46t-73 46q-63 0 -105 -58q-53 -66 -53 -193q0 -224 158 -224q40 0 68.5 12.5t63.5 40.5q22 18 43 18q26 0 45.5 -18.5t19.5 -42.5q0 -17 -18 -42q-76 -97 -241 -97q-164 0 -242.5 94t-78.5 254z" />
    <glyph glyph-name="ccircumflex" unicode="&#x109;" horiz-adv-x="507" 
d="M454 602q0 -13 -12.5 -25.5t-28.5 -12.5q-9 0 -19 3q-12 4 -48.5 25.5t-60.5 37.5q-80 -54 -107 -63q-9 -3 -19 -3q-12 0 -24.5 10t-12.5 26q0 14 14 31q10 11 52 50.5t56 48.5q18 12 44 12t45 -12q13 -8 54 -46t54 -52t13 -30zM476 411q0 -10 -1 -16q-5 -34 -20.5 -47
t-54.5 -13q-55 0 -65 44q-7 30 -35 30q-30 0 -52.5 -17.5t-34.5 -46t-17.5 -57t-5.5 -56.5q0 -66 30 -102.5t83 -36.5q47 0 96 36q16 11 32 11q19 0 34 -14.5t15 -35.5q0 -20 -17 -37q-27 -30 -76 -49t-110 -19q-122 0 -188 67t-66 182q0 111 74.5 194t189.5 83
q92 0 149 -37q40 -25 40 -63z" />
    <glyph glyph-name="Cdotaccent" unicode="&#x10a;" horiz-adv-x="655" 
d="M37 334q0 156 93.5 266.5t234.5 110.5q107 0 195 -52q53 -30 53 -77q0 -16 -1 -25q-6 -59 -85 -59q-65 0 -77 46t-73 46q-63 0 -105 -58q-53 -66 -53 -193q0 -224 158 -224q40 0 68.5 12.5t63.5 40.5q22 18 43 18q26 0 45.5 -18.5t19.5 -42.5q0 -17 -18 -42
q-76 -97 -241 -97q-164 0 -242.5 94t-78.5 254zM455 827q0 -30 -22.5 -46t-62.5 -16q-86 0 -86 57q0 30 23.5 47t63.5 17q39 0 61.5 -15.5t22.5 -43.5z" />
    <glyph glyph-name="cdotaccent" unicode="&#x10b;" horiz-adv-x="507" 
d="M476 411q0 -10 -1 -16q-5 -34 -20.5 -47t-54.5 -13q-55 0 -65 44q-7 30 -35 30q-30 0 -52.5 -17.5t-34.5 -46t-17.5 -57t-5.5 -56.5q0 -66 30 -102.5t83 -36.5q47 0 96 36q16 11 32 11q19 0 34 -14.5t15 -35.5q0 -20 -17 -37q-27 -30 -76 -49t-110 -19q-122 0 -188 67
t-66 182q0 111 74.5 194t189.5 83q92 0 149 -37q40 -25 40 -63zM375 627q0 -30 -22.5 -46t-62.5 -16q-86 0 -86 57q0 30 23.5 47t63.5 17q39 0 61.5 -15.5t22.5 -43.5z" />
    <glyph glyph-name="Ccaron" unicode="&#x10c;" horiz-adv-x="655" 
d="M204 904q0 13 12.5 25.5t28.5 12.5q9 0 19 -3q12 -4 48.5 -25.5t60.5 -37.5q80 54 107 63q9 3 19 3q12 0 24.5 -10t12.5 -26q0 -14 -14 -31q-10 -11 -52 -50.5t-56 -48.5q-18 -12 -44 -12t-45 12q-13 8 -54 46t-54 52t-13 30zM37 334q0 156 93.5 266.5t234.5 110.5
q107 0 195 -52q53 -30 53 -77q0 -16 -1 -25q-6 -59 -85 -59q-65 0 -77 46t-73 46q-63 0 -105 -58q-53 -66 -53 -193q0 -224 158 -224q40 0 68.5 12.5t63.5 40.5q22 18 43 18q26 0 45.5 -18.5t19.5 -42.5q0 -17 -18 -42q-76 -97 -241 -97q-164 0 -242.5 94t-78.5 254z" />
    <glyph glyph-name="ccaron" unicode="&#x10d;" horiz-adv-x="507" 
d="M119 704q0 13 12.5 25.5t28.5 12.5q8 0 19 -3q12 -4 48.5 -25.5t60.5 -37.5q80 54 107 63q9 3 19 3q12 0 24.5 -10t12.5 -26q0 -14 -14 -31q-10 -11 -52 -50.5t-56 -48.5q-18 -12 -44 -12t-45 12q-13 8 -54 46t-54 52t-13 30zM476 411q0 -10 -1 -16q-5 -34 -20.5 -47
t-54.5 -13q-55 0 -65 44q-7 30 -35 30q-30 0 -52.5 -17.5t-34.5 -46t-17.5 -57t-5.5 -56.5q0 -66 30 -102.5t83 -36.5q47 0 96 36q16 11 32 11q19 0 34 -14.5t15 -35.5q0 -20 -17 -37q-27 -30 -76 -49t-110 -19q-122 0 -188 67t-66 182q0 111 74.5 194t189.5 83
q92 0 149 -37q40 -25 40 -63z" />
    <glyph glyph-name="Dcaron" unicode="&#x10e;" horiz-adv-x="679" 
d="M181 904q0 13 12.5 25.5t28.5 12.5q8 0 19 -3q12 -4 48.5 -25.5t60.5 -37.5q80 54 107 63q9 3 19 3q12 0 24.5 -10t12.5 -26q0 -14 -14 -31q-10 -11 -52 -50.5t-56 -48.5q-18 -12 -44 -12t-45 12q-13 8 -54 46t-54 52t-13 30zM340 705q152 0 227 -95.5t75 -248.5
q0 -168 -94 -271q-84 -94 -217 -94q-23 0 -64 6.5t-52 6.5q-10 0 -30 -6t-32 -6q-34 0 -55 17.5t-20 51.5l3 497q0 11 -8.5 17.5t-18 9.5t-18 12.5t-8.5 25.5q0 25 21 41.5t46.5 22.5t51.5 6q44 0 72 -18q59 25 121 25zM468 367q0 97 -33 160t-100 63q-83 0 -83 -51l-3 -393
q0 -19 22 -27t46 -8q57 0 92.5 40t47 93.5t11.5 122.5z" />
    <glyph glyph-name="dcaron" unicode="&#x10f;" horiz-adv-x="623" 
d="M649 701q25 0 43.5 -11t18.5 -33q0 -29 -19 -77t-41 -81q-15 -25 -41 -25q-15 0 -29 8.5t-14 23.5q0 4 4 26q15 61 22 119q8 50 56 50zM567 70q0 -30 -39.5 -51.5t-85.5 -21.5q-29 0 -48 17.5t-25 45.5l-1 13q-59 -81 -153 -81q-89 0 -140 63.5t-51 171.5q0 130 72 206.5
t168 76.5q56 0 93 -35v159q0 34 22 50.5t57 16.5q79 0 79 -67v-503q0 -19 20 -24q32 -10 32 -37zM358 219v125q0 24 -20.5 44t-42.5 20q-57 0 -88 -44.5t-31 -111.5q0 -147 90 -147q40 0 66 33t26 81z" />
    <glyph glyph-name="Dcroat" unicode="&#x110;" horiz-adv-x="680" 
d="M642 364q0 -97 -34 -179t-106 -135.5t-171 -53.5q-21 0 -61.5 6.5t-61.5 6.5q-7 0 -23.5 -6t-30.5 -6q-35 0 -55.5 17t-20.5 52l1 227q-33 0 -49.5 9.5t-16.5 41.5q0 31 17 43.5t50 12.5l1 163q0 11 -8.5 17.5t-18 9.5t-18 12.5t-8.5 25.5q0 25 22.5 42t47.5 22.5t49 5.5
q41 0 72 -18q59 25 121 25q151 0 226.5 -94.5t75.5 -246.5zM469 367q0 37 -7 74t-22 71.5t-42 56t-62 21.5q-84 0 -84 -51l-1 -138h58q54 0 54 -51q0 -56 -57 -56h-56l-1 -148q0 -35 68 -35q45 0 76.5 24t47 64.5t22 81t6.5 86.5z" />
    <glyph glyph-name="dcroat" unicode="&#x111;" horiz-adv-x="593" 
d="M229 590q0 51 68 51l60 -1q2 31 23.5 46t55.5 15q76 0 79 -62h1q31 0 46.5 -10t15.5 -37q0 -50 -63 -50v-411q0 -19 20 -24q32 -10 32 -37q0 -30 -39.5 -51.5t-85.5 -21.5q-29 0 -48 17.5t-25 45.5l-1 13q-59 -81 -153 -81q-89 0 -140 63.5t-51 171.5q0 129 71.5 204.5
t168.5 75.5q56 0 93 -35v72l-61 1q-34 0 -50.5 8t-16.5 37zM358 219v122q0 24 -20.5 44t-42.5 20q-57 0 -88 -43t-31 -110q0 -147 90 -147q40 0 66 33t26 81z" />
    <glyph glyph-name="Emacron" unicode="&#x112;" horiz-adv-x="622" 
d="M83 84v473q0 12 -8.5 20t-19 11.5t-19 13t-8.5 24.5q0 68 133 68h345q27 0 45 -15.5t18 -41.5q0 -29 -16.5 -47.5t-45.5 -18.5q-11 0 -34 1t-35 1q-20 0 -83.5 0.5t-84.5 0.5q-15 0 -15 -19v-141q17 0 91 1t111 1q56 0 56 -59q0 -58 -58 -58h-200v-156q0 -18 16 -18h203
q11 0 33.5 3.5t34.5 3.5q22 0 37 -13.5t15 -36.5q0 -35 -32 -55.5t-68 -20.5h-316q-42 0 -68.5 19t-26.5 59zM508 828q0 -21 -11.5 -35.5t-31.5 -14.5h-259q-20 0 -31.5 14.5t-11.5 35.5q0 22 11.5 36.5t31.5 14.5h259q20 0 31.5 -14.5t11.5 -36.5z" />
    <glyph glyph-name="emacron" unicode="&#x113;" horiz-adv-x="532" 
d="M501 300q0 -41 -18 -65.5t-68 -24.5l-222 -1q-12 0 -12 -15q0 -48 30 -75t83 -27q57 0 110 42q17 14 34 14q21 0 34.5 -15t13.5 -32q0 -19 -17 -39q-28 -33 -82.5 -55t-119.5 -22q-122 0 -183 66t-61 183q0 112 69 194t175 82q116 0 175 -63t59 -147zM339 300q18 0 18 19
q0 40 -20.5 65.5t-58.5 25.5q-41 0 -64.5 -32.5t-29.5 -77.5h155zM446 628q0 -21 -11.5 -35.5t-31.5 -14.5h-259q-20 0 -31.5 14.5t-11.5 35.5q0 22 11.5 36.5t31.5 14.5h259q20 0 31.5 -14.5t11.5 -36.5z" />
    <glyph glyph-name="Ebreve" unicode="&#x114;" horiz-adv-x="622" 
d="M83 84v473q0 12 -8.5 20t-19 11.5t-19 13t-8.5 24.5q0 68 133 68h345q27 0 45 -15.5t18 -41.5q0 -29 -16.5 -47.5t-45.5 -18.5q-11 0 -34 1t-35 1q-20 0 -83.5 0.5t-84.5 0.5q-15 0 -15 -19v-141q17 0 91 1t111 1q56 0 56 -59q0 -58 -58 -58h-200v-156q0 -18 16 -18h203
q11 0 33.5 3.5t34.5 3.5q22 0 37 -13.5t15 -36.5q0 -35 -32 -55.5t-68 -20.5h-316q-42 0 -68.5 19t-26.5 59zM507 891q0 -15 -11 -35q-19 -34 -59.5 -64t-100.5 -30q-92 0 -146 72q-20 25 -20 52q0 16 13 28.5t32 12.5q13 0 25 -10q26 -27 47.5 -38.5t50.5 -11.5
q56 0 105 51q9 9 22 9q18 0 30 -11.5t12 -24.5z" />
    <glyph glyph-name="ebreve" unicode="&#x115;" horiz-adv-x="532" 
d="M501 300q0 -41 -18 -65.5t-68 -24.5l-222 -1q-12 0 -12 -15q0 -48 30 -75t83 -27q57 0 110 42q17 14 34 14q21 0 34.5 -15t13.5 -32q0 -19 -17 -39q-28 -33 -82.5 -55t-119.5 -22q-122 0 -183 66t-61 183q0 112 69 194t175 82q116 0 175 -63t59 -147zM339 300q18 0 18 19
q0 40 -20.5 65.5t-58.5 25.5q-41 0 -64.5 -32.5t-29.5 -77.5h155zM448 691q0 -15 -11 -35q-19 -34 -59.5 -64t-100.5 -30q-92 0 -146 72q-20 25 -20 52q0 16 13 28.5t32 12.5q13 0 25 -10q26 -27 47.5 -38.5t50.5 -11.5q55 0 105 51q9 9 22 9q18 0 30 -11.5t12 -24.5z" />
    <glyph glyph-name="Edotaccent" unicode="&#x116;" horiz-adv-x="622" 
d="M83 84v473q0 12 -8.5 20t-19 11.5t-19 13t-8.5 24.5q0 68 133 68h345q27 0 45 -15.5t18 -41.5q0 -29 -16.5 -47.5t-45.5 -18.5q-11 0 -34 1t-35 1q-20 0 -83.5 0.5t-84.5 0.5q-15 0 -15 -19v-141q17 0 91 1t111 1q56 0 56 -59q0 -58 -58 -58h-200v-156q0 -18 16 -18h203
q11 0 33.5 3.5t34.5 3.5q22 0 37 -13.5t15 -36.5q0 -35 -32 -55.5t-68 -20.5h-316q-42 0 -68.5 19t-26.5 59zM424 827q0 -30 -22.5 -46t-62.5 -16q-86 0 -86 57q0 30 23.5 47t63.5 17q39 0 61.5 -15.5t22.5 -43.5z" />
    <glyph glyph-name="edotaccent" unicode="&#x117;" horiz-adv-x="532" 
d="M501 300q0 -41 -18 -65.5t-68 -24.5l-222 -1q-12 0 -12 -15q0 -48 30 -75t83 -27q57 0 110 42q17 14 34 14q21 0 34.5 -15t13.5 -32q0 -19 -17 -39q-28 -33 -82.5 -55t-119.5 -22q-122 0 -183 66t-61 183q0 112 69 194t175 82q116 0 175 -63t59 -147zM339 300q18 0 18 19
q0 40 -20.5 65.5t-58.5 25.5q-41 0 -64.5 -32.5t-29.5 -77.5h155zM365 627q0 -30 -22.5 -46t-62.5 -16q-86 0 -86 57q0 30 23.5 47t63.5 17q39 0 61.5 -15.5t22.5 -43.5z" />
    <glyph glyph-name="Eogonek" unicode="&#x118;" horiz-adv-x="622" 
d="M83 84v473q0 12 -8.5 20t-19 11.5t-19 13t-8.5 24.5q0 68 133 68h345q27 0 45 -15.5t18 -41.5q0 -29 -16.5 -47.5t-45.5 -18.5q-11 0 -34 1t-35 1q-20 0 -83.5 0.5t-84.5 0.5q-15 0 -15 -19v-141q17 0 91 1t111 1q56 0 56 -59q0 -58 -58 -58h-200v-156q0 -18 16 -18h203
q11 0 33.5 3.5t34.5 3.5q22 0 37 -13.5t15 -36.5q0 -38 -45 -62q-88 -52 -88 -118q0 -40 38 -40q13 0 27 7t23 7q15 0 26 -11.5t11 -31.5q0 -29 -44 -49q-34 -16 -78 -16q-54 0 -83.5 27t-29.5 73q0 82 72 138h-244q-42 0 -69 19t-27 59z" />
    <glyph glyph-name="eogonek" unicode="&#x119;" horiz-adv-x="532" 
d="M250 -129q0 63 53 116q-24 -2 -36 -2q-122 0 -183 66t-61 183q0 112 69 194t175 82q116 0 175 -63t59 -147q0 -41 -18 -65.5t-68 -24.5l-222 -1q-12 0 -12 -15q0 -48 30 -75t83 -27q57 0 110 42q17 14 34 14q21 0 34.5 -15t13.5 -32q0 -23 -36 -57q-48 -47 -69 -78
t-21 -61q0 -38 38 -38q13 0 27 7t23 7q16 0 26.5 -12t10.5 -31q0 -27 -38 -47q-38 -18 -84 -18q-54 0 -83.5 26t-29.5 72zM339 300q18 0 18 19q0 40 -20.5 65.5t-58.5 25.5q-41 0 -64.5 -32.5t-29.5 -77.5h155z" />
    <glyph glyph-name="Ecaron" unicode="&#x11a;" horiz-adv-x="622" 
d="M172 904q0 13 12.5 25.5t28.5 12.5q9 0 19 -3q12 -4 48.5 -25.5t60.5 -37.5q80 54 107 63q9 3 19 3q12 0 24.5 -10t12.5 -26q0 -14 -14 -31q-10 -11 -52 -50.5t-56 -48.5q-18 -12 -44 -12t-45 12q-13 8 -54 46t-54 52t-13 30zM83 84v473q0 12 -8.5 20t-19 11.5t-19 13
t-8.5 24.5q0 68 133 68h345q27 0 45 -15.5t18 -41.5q0 -29 -16.5 -47.5t-45.5 -18.5q-11 0 -34 1t-35 1q-20 0 -83.5 0.5t-84.5 0.5q-15 0 -15 -19v-141q17 0 91 1t111 1q56 0 56 -59q0 -58 -58 -58h-200v-156q0 -18 16 -18h203q11 0 33.5 3.5t34.5 3.5q22 0 37 -13.5
t15 -36.5q0 -35 -32 -55.5t-68 -20.5h-316q-42 0 -68.5 19t-26.5 59z" />
    <glyph glyph-name="ecaron" unicode="&#x11b;" horiz-adv-x="532" 
d="M113 704q0 13 12.5 25.5t28.5 12.5q8 0 19 -3q12 -4 48.5 -25.5t60.5 -37.5q80 54 107 63q9 3 19 3q12 0 24.5 -10t12.5 -26q0 -14 -14 -31q-10 -11 -52 -50.5t-56 -48.5q-18 -12 -44 -12t-45 12q-13 8 -54 46t-54 52t-13 30zM501 300q0 -41 -18 -65.5t-68 -24.5l-222 -1
q-12 0 -12 -15q0 -48 30 -75t83 -27q57 0 110 42q17 14 34 14q21 0 34.5 -15t13.5 -32q0 -19 -17 -39q-28 -33 -82.5 -55t-119.5 -22q-122 0 -183 66t-61 183q0 112 69 194t175 82q116 0 175 -63t59 -147zM339 300q18 0 18 19q0 40 -20.5 65.5t-58.5 25.5q-41 0 -64.5 -32.5
t-29.5 -77.5h155z" />
    <glyph glyph-name="Gcircumflex" unicode="&#x11c;" horiz-adv-x="673" 
d="M541 802q0 -13 -12.5 -25.5t-28.5 -12.5q-8 0 -19 3q-12 4 -48.5 25.5t-60.5 37.5q-80 -54 -107 -63q-9 -3 -19 -3q-12 0 -24.5 10t-12.5 26q0 14 14 31q10 11 52 50.5t56 48.5q18 12 44 12t45 -12q13 -8 54 -46t54 -52t13 -30zM548 336q53 0 73 -23.5t20 -78.5
q0 -42 -6 -92q-4 -36 -20 -57q-78 -96 -257 -96q-158 0 -239.5 89.5t-81.5 252.5q0 157 93 269.5t243 112.5q105 0 190 -52q51 -30 51 -77q0 -44 -18.5 -62.5t-62.5 -18.5q-69 0 -79 45q-12 47 -75 47q-64 0 -105 -58q-54 -70 -54 -201q0 -224 154 -224q72 0 111 33
q4 48 4 67q1 9 -7 14.5t-18 8.5t-18 12.5t-8 25.5q0 32 37 47.5t73 15.5z" />
    <glyph glyph-name="gcircumflex" unicode="&#x11d;" horiz-adv-x="553" 
d="M444 602q0 -13 -12.5 -25.5t-28.5 -12.5q-9 0 -19 3q-12 4 -48.5 25.5t-60.5 37.5q-80 -54 -107 -63q-9 -3 -19 -3q-12 0 -24.5 10t-12.5 26q0 14 14 31q10 11 52 50.5t56 48.5q18 12 44 12t45 -12q13 -8 54 -46t54 -52t13 -30zM546 -34q0 -63 -44 -105q-72 -72 -235 -72
q-120 0 -188.5 30.5t-68.5 90.5q0 62 84 105q-55 25 -55 80q0 31 23.5 57.5t60.5 38.5q-42 18 -65 55t-23 81q0 48 21 84.5t56 57.5t76 31t86 10q76 0 132 -27q48 19 80 19q46 0 46 -34q0 -17 -19 -29q-22 -12 -31 -18q24 -37 24 -91q0 -75 -62 -123t-171 -48h-44
q-48 0 -48 -24q0 -15 12 -19.5t44 -4.5h113q89 0 142.5 -37.5t53.5 -107.5zM403 -63q0 46 -64 46h-88q-22 0 -56 6q-51 -19 -51 -53q0 -33 38.5 -47t86.5 -14q51 0 92.5 14t41.5 48zM354 332q0 90 -80 90q-40 0 -61.5 -24.5t-21.5 -65.5q0 -88 82 -88q40 0 60.5 23.5
t20.5 64.5z" />
    <glyph glyph-name="Gbreve" unicode="&#x11e;" horiz-adv-x="673" 
d="M548 336q53 0 73 -23.5t20 -78.5q0 -42 -6 -92q-4 -36 -20 -57q-78 -96 -257 -96q-158 0 -239.5 89.5t-81.5 252.5q0 157 93 269.5t243 112.5q105 0 190 -52q51 -30 51 -77q0 -44 -18.5 -62.5t-62.5 -18.5q-69 0 -79 45q-12 47 -75 47q-64 0 -105 -58q-54 -70 -54 -201
q0 -224 154 -224q72 0 111 33q4 48 4 67q1 9 -7 14.5t-18 8.5t-18 12.5t-8 25.5q0 32 37 47.5t73 15.5zM543 891q0 -15 -11 -35q-19 -34 -59.5 -64t-100.5 -30q-92 0 -146 72q-20 25 -20 52q0 16 13 28.5t32 12.5q13 0 25 -10q26 -27 47.5 -38.5t50.5 -11.5q56 0 105 51
q9 9 22 9q18 0 30 -11.5t12 -24.5z" />
    <glyph glyph-name="gbreve" unicode="&#x11f;" horiz-adv-x="553" 
d="M546 -34q0 -63 -44 -105q-72 -72 -235 -72q-120 0 -188.5 30.5t-68.5 90.5q0 62 84 105q-55 25 -55 80q0 31 23.5 57.5t60.5 38.5q-42 18 -65 55t-23 81q0 48 21 84.5t56 57.5t76 31t86 10q76 0 132 -27q48 19 80 19q46 0 46 -34q0 -17 -19 -29q-22 -12 -31 -18
q24 -37 24 -91q0 -75 -62 -123t-171 -48h-44q-48 0 -48 -24q0 -15 12 -19.5t44 -4.5h113q89 0 142.5 -37.5t53.5 -107.5zM403 -63q0 46 -64 46h-88q-22 0 -56 6q-51 -19 -51 -53q0 -33 38.5 -47t86.5 -14q51 0 92.5 14t41.5 48zM354 332q0 90 -80 90q-40 0 -61.5 -24.5
t-21.5 -65.5q0 -88 82 -88q40 0 60.5 23.5t20.5 64.5zM449 691q0 -15 -11 -35q-19 -34 -59.5 -64t-100.5 -30q-92 0 -146 72q-20 25 -20 52q0 16 13 28.5t32 12.5q13 0 25 -10q26 -27 47.5 -38.5t50.5 -11.5q56 0 105 51q9 9 22 9q18 0 30 -11.5t12 -24.5z" />
    <glyph glyph-name="Gdotaccent" unicode="&#x120;" horiz-adv-x="673" 
d="M548 336q53 0 73 -23.5t20 -78.5q0 -42 -6 -92q-4 -36 -20 -57q-78 -96 -257 -96q-158 0 -239.5 89.5t-81.5 252.5q0 157 93 269.5t243 112.5q105 0 190 -52q51 -30 51 -77q0 -44 -18.5 -62.5t-62.5 -18.5q-69 0 -79 45q-12 47 -75 47q-64 0 -105 -58q-54 -70 -54 -201
q0 -224 154 -224q72 0 111 33q4 48 4 67q1 9 -7 14.5t-18 8.5t-18 12.5t-8 25.5q0 32 37 47.5t73 15.5zM460 827q0 -30 -22.5 -46t-62.5 -16q-86 0 -86 57q0 30 23.5 47t63.5 17q39 0 61.5 -15.5t22.5 -43.5z" />
    <glyph glyph-name="gdotaccent" unicode="&#x121;" horiz-adv-x="553" 
d="M546 -34q0 -63 -44 -105q-72 -72 -235 -72q-120 0 -188.5 30.5t-68.5 90.5q0 62 84 105q-55 25 -55 80q0 31 23.5 57.5t60.5 38.5q-42 18 -65 55t-23 81q0 48 21 84.5t56 57.5t76 31t86 10q76 0 132 -27q48 19 80 19q46 0 46 -34q0 -17 -19 -29q-22 -12 -31 -18
q24 -37 24 -91q0 -75 -62 -123t-171 -48h-44q-48 0 -48 -24q0 -15 12 -19.5t44 -4.5h113q89 0 142.5 -37.5t53.5 -107.5zM403 -63q0 46 -64 46h-88q-22 0 -56 6q-51 -19 -51 -53q0 -33 38.5 -47t86.5 -14q51 0 92.5 14t41.5 48zM354 332q0 90 -80 90q-40 0 -61.5 -24.5
t-21.5 -65.5q0 -88 82 -88q40 0 60.5 23.5t20.5 64.5zM364 627q0 -30 -22.5 -46t-62.5 -16q-86 0 -86 57q0 30 23.5 47t63.5 17q39 0 61.5 -15.5t22.5 -43.5z" />
    <glyph glyph-name="Gcommaaccent" unicode="&#x122;" horiz-adv-x="673" 
d="M447 -110q0 -63 -74 -123q-12 -10 -27 -10q-13 0 -23.5 8.5t-10.5 20.5q0 11 9 24q10 13 10 22q0 10 -13 16q-12 6 -18.5 10.5t-12.5 14t-6 22.5q0 29 24 44t60 15q82 0 82 -64zM548 336q53 0 73 -23.5t20 -78.5q0 -42 -6 -92q-4 -36 -20 -57q-78 -96 -257 -96
q-158 0 -239.5 89.5t-81.5 252.5q0 157 93 269.5t243 112.5q105 0 190 -52q51 -30 51 -77q0 -44 -18.5 -62.5t-62.5 -18.5q-69 0 -79 45q-12 47 -75 47q-64 0 -105 -58q-54 -70 -54 -201q0 -224 154 -224q72 0 111 33q4 48 4 67q1 9 -7 14.5t-18 8.5t-18 12.5t-8 25.5
q0 32 37 47.5t73 15.5z" />
    <glyph glyph-name="gcommaaccent" unicode="&#x123;" horiz-adv-x="553" 
d="M546 -34q0 -63 -44 -105q-72 -72 -235 -72q-120 0 -188.5 30.5t-68.5 90.5q0 62 84 105q-55 25 -55 80q0 31 23.5 57.5t60.5 38.5q-42 18 -65 55t-23 81q0 48 21 84.5t56 57.5t76 31t86 10q76 0 132 -27q48 19 80 19q46 0 46 -34q0 -17 -19 -29q-22 -12 -31 -18
q24 -37 24 -91q0 -75 -62 -123t-171 -48h-44q-48 0 -48 -24q0 -15 12 -19.5t44 -4.5h113q89 0 142.5 -37.5t53.5 -107.5zM403 -63q0 46 -64 46h-88q-22 0 -56 6q-51 -19 -51 -53q0 -33 38.5 -47t86.5 -14q51 0 92.5 14t41.5 48zM354 332q0 90 -80 90q-40 0 -61.5 -24.5
t-21.5 -65.5q0 -88 82 -88q40 0 60.5 23.5t20.5 64.5zM195 628q0 60 74 122q12 10 27 10q13 0 23.5 -9t10.5 -21q0 -10 -9 -24q-10 -11 -10 -22q0 -10 13 -16q12 -6 18.5 -10t12.5 -13.5t6 -22.5q0 -30 -23.5 -44.5t-60.5 -14.5q-82 0 -82 65z" />
    <glyph glyph-name="Hcircumflex" unicode="&#x124;" 
d="M520 802q0 -13 -12.5 -25.5t-28.5 -12.5q-9 0 -19 3q-12 4 -48.5 25.5t-60.5 37.5q-80 -54 -107 -63q-9 -3 -19 -3q-12 0 -24.5 10t-12.5 26q0 14 14 31q10 11 52 50.5t56 48.5q18 12 44 12t45 -12q13 -8 54 -46t54 -52t13 -30zM676 63q0 -35 -38.5 -51.5t-81.5 -16.5
q-54 0 -80.5 25.5t-25.5 79.5v190h-196l-1 -220q-1 -37 -25 -55t-63 -18q-38 0 -62 17.5t-23 54.5l3 496q0 12 -8.5 20t-19 11.5t-19 13t-8.5 24.5q0 25 21.5 41t47 21.5t52.5 5.5q54 0 80.5 -25.5t25.5 -79.5v-177h196l1 207q1 37 24.5 55t62.5 18q38 0 62.5 -18t23.5 -55
l-4 -494q0 -12 8.5 -20t19 -11.5t19 -13t8.5 -25.5z" />
    <glyph glyph-name="hcircumflex" unicode="&#x125;" horiz-adv-x="597" 
d="M482 802q0 -13 -12.5 -25.5t-28.5 -12.5q-9 0 -19 3q-12 4 -48.5 25.5t-60.5 37.5q-80 -54 -107 -63q-9 -3 -19 -3q-12 0 -24.5 10t-12.5 26q0 14 14 31q10 11 52 50.5t56 48.5q18 12 44 12t45 -12q13 -8 54 -46t54 -52t13 -30zM573 58q0 -33 -38.5 -48t-82.5 -15
q-37 0 -60.5 21.5t-23.5 58.5l2 246q0 61 -45 61q-41 0 -72.5 -34.5t-31.5 -77.5v-208q0 -34 -23 -50.5t-58 -16.5q-81 0 -81 67v572q0 34 22.5 51t58.5 17t58.5 -17t22.5 -51l-1 -209h4q35 41 73.5 59.5t91.5 18.5q61 0 98.5 -38t37.5 -99q0 -24 -1.5 -122.5t-1.5 -122.5
q0 -12 7.5 -18.5t17.5 -9t18 -11t8 -24.5z" />
    <glyph glyph-name="Hbar" unicode="&#x126;" 
d="M16 495q0 49 67 49v21q0 12 -8.5 20t-19 11.5t-19 13t-8.5 24.5q0 25 21.5 41t47 21.5t52.5 5.5q54 0 80.5 -25.5t25.5 -79.5v-52h197v82q1 37 24.5 55t62.5 18q38 0 62.5 -18t23.5 -55l-1 -73q30 -1 45.5 -12t15.5 -39q0 -54 -62 -54l-2 -316q0 -12 8.5 -20t19 -11.5
t19 -13t8.5 -25.5q0 -35 -38.5 -51.5t-81.5 -16.5q-54 0 -80.5 25.5t-25.5 79.5v180h-196l-1 -210q-1 -37 -25 -55t-63 -18q-38 0 -62 17.5t-23 54.5q0 117 2 379q-33 0 -49.5 9t-16.5 38zM255 384h196v72h-196v-72z" />
    <glyph glyph-name="hbar" unicode="&#x127;" horiz-adv-x="597" 
d="M-4 584q0 49 63 51q0 33 23 50t58 17t57.5 -17t23.5 -50l62 1q62 0 62 -47q0 -50 -64 -50h-61v-114h4q35 41 73.5 59.5t91.5 18.5q61 0 98.5 -38t37.5 -99q0 -24 -1.5 -122.5t-1.5 -122.5q0 -12 7.5 -18.5t17.5 -9t18 -11t8 -24.5q0 -33 -38.5 -48t-82.5 -15
q-37 0 -60.5 21.5t-23.5 58.5l2 246q0 61 -45 61q-41 0 -72.5 -34.5t-31.5 -77.5v-208q0 -34 -23 -50.5t-58 -16.5q-81 0 -81 67v477q-32 0 -47.5 8.5t-15.5 36.5z" />
    <glyph glyph-name="Itilde" unicode="&#x128;" horiz-adv-x="330" 
d="M262 599l-3 -530q-1 -37 -26.5 -54.5t-63.5 -17.5t-63.5 17.5t-24.5 54.5l3 499q0 11 -9 18t-19 10t-19 13t-9 26q0 25 22.5 41.5t48 21.5t51.5 5q53 0 82.5 -26t29.5 -78zM302 900q13 0 27 -11t14 -26q0 -11 -13 -33q-17 -28 -48 -47t-70 -19q-37 0 -69 18
q-37 20 -52 20q-19 0 -39 -20q-14 -14 -28 -14t-27.5 10.5t-13.5 25.5q0 13 12 34q17 27 48.5 46.5t70.5 19.5q35 0 67 -18q38 -20 52 -20q19 0 42 21q13 13 27 13z" />
    <glyph glyph-name="itilde" unicode="&#x129;" horiz-adv-x="297" 
d="M274 56q0 -33 -34.5 -46.5t-78.5 -13.5q-104 0 -104 98v339q0 34 23 50.5t58 16.5q81 0 81 -67v-312q0 -12 8.5 -19t19 -10.5t19 -12.5t8.5 -23zM281 700q13 0 27 -11t14 -26q0 -11 -13 -33q-17 -28 -48 -47t-70 -19q-37 0 -69 18q-37 20 -52 20q-19 0 -39 -20
q-14 -14 -28 -14t-27.5 10.5t-13.5 25.5q0 13 12 34q17 27 48.5 46.5t70.5 19.5q35 0 67 -18q38 -20 52 -20q19 0 42 21q13 13 27 13z" />
    <glyph glyph-name="Imacron" unicode="&#x12a;" horiz-adv-x="330" 
d="M262 599l-3 -530q-1 -37 -26.5 -54.5t-63.5 -17.5t-63.5 17.5t-24.5 54.5l3 499q0 11 -9 18t-19 10t-19 13t-9 26q0 25 22.5 41.5t48 21.5t51.5 5q53 0 82.5 -26t29.5 -78zM334 828q0 -21 -11.5 -35.5t-31.5 -14.5h-259q-20 0 -31.5 14.5t-11.5 35.5q0 22 11.5 36.5
t31.5 14.5h259q20 0 31.5 -14.5t11.5 -36.5z" />
    <glyph glyph-name="imacron" unicode="&#x12b;" horiz-adv-x="297" 
d="M274 56q0 -33 -34.5 -46.5t-78.5 -13.5q-104 0 -104 98v339q0 34 23 50.5t58 16.5q81 0 81 -67v-312q0 -12 8.5 -19t19 -10.5t19 -12.5t8.5 -23zM312 628q0 -21 -11.5 -35.5t-31.5 -14.5h-259q-20 0 -31.5 14.5t-11.5 35.5q0 22 11.5 36.5t31.5 14.5h259q20 0 31.5 -14.5
t11.5 -36.5z" />
    <glyph glyph-name="Ibreve" unicode="&#x12c;" horiz-adv-x="330" 
d="M262 599l-3 -530q-1 -37 -26.5 -54.5t-63.5 -17.5t-63.5 17.5t-24.5 54.5l3 499q0 11 -9 18t-19 10t-19 13t-9 26q0 25 22.5 41.5t48 21.5t51.5 5q53 0 82.5 -26t29.5 -78zM332 891q0 -15 -11 -35q-19 -34 -59.5 -64t-100.5 -30q-92 0 -146 72q-20 25 -20 52
q0 16 13 28.5t32 12.5q13 0 25 -10q26 -27 47.5 -38.5t50.5 -11.5q55 0 105 51q9 9 22 9q18 0 30 -11.5t12 -24.5z" />
    <glyph glyph-name="ibreve" unicode="&#x12d;" horiz-adv-x="297" 
d="M274 56q0 -33 -34.5 -46.5t-78.5 -13.5q-104 0 -104 98v339q0 34 23 50.5t58 16.5q81 0 81 -67v-312q0 -12 8.5 -19t19 -10.5t19 -12.5t8.5 -23zM310 691q0 -15 -11 -35q-19 -34 -59.5 -64t-100.5 -30q-92 0 -146 72q-20 25 -20 52q0 16 13 28.5t32 12.5q13 0 25 -10
q26 -27 47.5 -38.5t50.5 -11.5q55 0 105 51q9 9 22 9q18 0 30 -11.5t12 -24.5z" />
    <glyph glyph-name="Iogonek" unicode="&#x12e;" horiz-adv-x="330" 
d="M28 635q0 25 22.5 41.5t48 21.5t51.5 5q53 0 82.5 -26t29.5 -78l-3 -529q0 -32 -30 -57q-68 -58 -68 -111q0 -40 38 -40q13 0 27 7t23 7q15 0 25.5 -11.5t10.5 -31.5q0 -31 -43 -49q-34 -16 -78 -16q-54 0 -84 27t-30 73q0 82 78 137q-48 14 -47 64l3 499q0 11 -9 18
t-19 10t-19 13t-9 26z" />
    <glyph glyph-name="iogonek" unicode="&#x12f;" horiz-adv-x="297" 
d="M43 -129q0 80 74 131q-60 18 -60 92v339q0 34 23 50.5t58 16.5q81 0 81 -67l-1 -312q0 -12 9 -19t19 -10.5t19 -12.5t9 -23q0 -19 -10.5 -29.5t-35.5 -22.5q-75 -37 -75 -99q0 -38 38 -38q13 0 27 7t23 7q16 0 26.5 -12t10.5 -30q0 -28 -38 -48q-38 -18 -84 -18
q-54 0 -83.5 26t-29.5 72zM234 640q0 -63 -94 -63q-88 0 -88 57q0 33 31 48.5t68 15.5q83 0 83 -58z" />
    <glyph glyph-name="Idotaccent" unicode="&#x130;" horiz-adv-x="330" 
d="M262 599l-3 -530q-1 -37 -26.5 -54.5t-63.5 -17.5t-63.5 17.5t-24.5 54.5l3 499q0 11 -9 18t-19 10t-19 13t-9 26q0 25 22.5 41.5t48 21.5t51.5 5q53 0 82.5 -26t29.5 -78zM256 827q0 -30 -22.5 -46t-62.5 -16q-86 0 -86 57q0 30 23.5 47t63.5 17q39 0 61.5 -15.5
t22.5 -43.5z" />
    <glyph glyph-name="dotlessi" unicode="&#x131;" horiz-adv-x="297" 
d="M274 56q0 -33 -34.5 -46.5t-78.5 -13.5q-104 0 -104 98v339q0 34 23 50.5t58 16.5q81 0 81 -67v-312q0 -12 8.5 -19t19 -10.5t19 -12.5t8.5 -23z" />
    <glyph glyph-name="IJ" unicode="&#x132;" horiz-adv-x="682" 
d="M262 599l-3 -530q-1 -37 -26.5 -54.5t-63.5 -17.5t-63.5 17.5t-24.5 54.5l3 499q0 11 -9 18t-19 10t-19 13t-9 26q0 25 22.5 41.5t48 21.5t51.5 5q53 0 82.5 -26t29.5 -78zM614 53q0 -105 -51.5 -170.5t-152.5 -65.5q-149 0 -149 79q0 42 18 60t62 18q59 0 70 -42
q3 -16 12 -16q14 0 14 39q0 9 -1 26t-1 25v562q0 12 -8.5 18.5t-19 9.5t-19 13t-8.5 26q0 35 39 51.5t83 16.5q52 0 81.5 -26t29.5 -77z" />
    <glyph glyph-name="ij" unicode="&#x133;" horiz-adv-x="588" 
d="M234 640q0 -63 -94 -63q-88 0 -88 57q0 33 31 48.5t68 15.5q83 0 83 -58zM274 56q0 -33 -34.5 -46.5t-78.5 -13.5q-104 0 -104 98v339q0 34 23 50.5t58 16.5q81 0 81 -67l-1 -312q0 -12 9 -19t19 -10.5t19 -12.5t9 -23zM456 698q82 0 82 -60q0 -61 -94 -61q-88 0 -88 57
q0 33 31.5 48.5t68.5 15.5zM524 24q0 -102 -42.5 -167.5t-136.5 -65.5q-55 0 -55 40q0 19 9 28.5t33 20.5q33 14 33 41q0 12 -1.5 47.5t-1.5 57.5v407q0 66 81 66q36 0 58.5 -16.5t22.5 -49.5v-409z" />
    <glyph glyph-name="Jcircumflex" unicode="&#x134;" horiz-adv-x="352" 
d="M350 802q0 -13 -12.5 -25.5t-28.5 -12.5q-9 0 -19 3q-12 4 -48.5 25.5t-60.5 37.5q-80 -54 -107 -63q-9 -3 -19 -3q-12 0 -24.5 10t-12.5 26q0 14 14 31q10 11 52 50.5t56 48.5q18 12 44 12t45 -12q13 -8 54 -46t54 -52t13 -30zM284 53q0 -105 -51.5 -170.5t-152.5 -65.5
q-149 0 -149 79q0 42 18 60t62 18q59 0 70 -42q3 -16 12 -16q14 0 14 39q0 9 -1 26t-1 25v562q0 12 -8.5 18.5t-19 9.5t-19 13t-8.5 26q0 35 39 51.5t83 16.5q52 0 81.5 -26t29.5 -77z" />
    <glyph glyph-name="jcircumflex" unicode="&#x135;" horiz-adv-x="292" 
d="M227 24q0 -102 -42.5 -167.5t-136.5 -65.5q-55 0 -55 40q0 19 9 28.5t33 20.5q33 14 33 41q0 12 -1.5 47.5t-1.5 57.5v407q0 66 81 66q36 0 58.5 -16.5t22.5 -49.5v-409zM315 602q0 -13 -12.5 -25.5t-28.5 -12.5q-8 0 -19 3q-12 4 -48.5 25.5t-60.5 37.5
q-80 -54 -107 -63q-9 -3 -19 -3q-12 0 -24.5 10t-12.5 26q0 14 14 31q10 11 52 50.5t56 48.5q18 12 44 12t45 -12q13 -8 54 -46t54 -52t13 -30z" />
    <glyph glyph-name="Kcommaaccent" unicode="&#x136;" horiz-adv-x="677" 
d="M428 -109q0 -63 -74 -123q-12 -10 -27 -10q-13 0 -23.5 8.5t-10.5 20.5q0 11 9 24q10 13 10 22t-13 16q-12 6 -18.5 10.5t-12.5 14t-6 22.5q0 29 24 44t60 15q82 0 82 -64zM669 57q0 -24 -23.5 -39t-47 -19t-46.5 -4q-42 0 -69 19t-48 58l-147 222l-30 -30l-1 -194
q0 -37 -24.5 -55t-63.5 -18q-40 0 -65 18t-24 55l4 495q0 13 -9 20.5t-19 10.5t-19 13t-9 26q0 35 41 51t81 16q110 0 110 -105l-1 -189l211 245q35 45 74 45q25 0 48.5 -12.5t23.5 -39.5q0 -22 -21 -46l-187 -207q-3 -3 -3 -6t3 -7l184 -250q10 -15 38 -25q39 -14 39 -48z
" />
    <glyph glyph-name="kcommaaccent" unicode="&#x137;" horiz-adv-x="548" 
d="M372 -109q0 -63 -74 -123q-12 -10 -27 -10q-13 0 -23.5 8.5t-10.5 20.5q0 11 9 24q10 13 10 22t-13 16q-12 6 -18.5 10.5t-12.5 14t-6 22.5q0 29 24 44t60 15q82 0 82 -64zM552 56q0 -28 -35 -44.5t-81 -16.5q-55 0 -81 44l-119 181l-21 -20l1 -137q0 -34 -22.5 -50.5
t-58.5 -16.5q-81 0 -81 67v571q0 34 22.5 51t58.5 17t58.5 -17t22.5 -51v-318l163 161q30 32 66 32q21 0 38.5 -12t17.5 -36q0 -19 -17 -35l-135 -124l139 -188q11 -15 39 -23q25 -8 25 -35z" />
    <glyph glyph-name="kgreenlandic" unicode="&#x138;" horiz-adv-x="548" 
d="M552 56q0 -28 -35 -44.5t-81 -16.5q-55 0 -81 44l-119 181l-21 -20l1 -137q0 -34 -22.5 -50.5t-58.5 -16.5q-81 0 -81 67v374q0 34 22.5 51t58.5 17t58.5 -17t22.5 -51v-121l158 156q30 32 66 32q21 0 38.5 -12t17.5 -36q0 -19 -17 -35l-130 -119l139 -188q11 -15 39 -23
q25 -8 25 -35z" />
    <glyph glyph-name="Lacute" unicode="&#x139;" horiz-adv-x="570" 
d="M309 900q0 -27 -24 -49q-9 -10 -50 -43.5t-57 -43.5q-14 -10 -31 -10q-14 0 -27 10t-13 26q0 10 6 22q5 9 40 57.5t45 59.5q19 24 50 24q22 0 41.5 -15.5t19.5 -37.5zM262 599l-1 -449q0 -19 19 -19h168q12 0 34 4t34 4q23 0 39 -16t16 -39q0 -35 -33.5 -55t-70.5 -20
h-283q-100 0 -100 87v472q0 11 -9 18t-19 10t-19 13t-9 26q0 25 22.5 41.5t48 21.5t51.5 5q53 0 82.5 -26t29.5 -78z" />
    <glyph glyph-name="lacute" unicode="&#x13a;" horiz-adv-x="294" 
d="M275 900q0 -27 -24 -49q-9 -10 -50 -43.5t-57 -43.5q-14 -10 -31 -10q-14 0 -27 10t-13 26q0 10 6 22q5 9 40 57.5t45 59.5q19 24 50 24q22 0 41.5 -15.5t19.5 -37.5zM267 59q0 -30 -37.5 -46.5t-86.5 -16.5q-38 0 -64 22.5t-26 60.5v556q0 34 22.5 50t58.5 16
q80 0 80 -66v-511q0 -12 8.5 -18.5t18 -9t18 -12t8.5 -25.5z" />
    <glyph glyph-name="Lcommaaccent" unicode="&#x13b;" horiz-adv-x="570" 
d="M406 -109q0 -63 -74 -123q-12 -10 -27 -10q-13 0 -23.5 8.5t-10.5 20.5q0 11 9 24q10 13 10 22t-13 16q-12 6 -18.5 10.5t-12.5 14t-6 22.5q0 29 24 44t60 15q82 0 82 -64zM262 599l-1 -449q0 -19 19 -19h168q12 0 34 4t34 4q23 0 39 -16t16 -39q0 -35 -33.5 -55
t-70.5 -20h-283q-100 0 -100 87v472q0 11 -9 18t-19 10t-19 13t-9 26q0 25 22.5 41.5t48 21.5t51.5 5q53 0 82.5 -26t29.5 -78z" />
    <glyph glyph-name="lcommaaccent" unicode="&#x13c;" horiz-adv-x="297" 
d="M241 -109q0 -63 -74 -123q-12 -10 -27 -10q-13 0 -23.5 8.5t-10.5 20.5q0 11 9 24q10 13 10 22t-13 16q-12 6 -18.5 10.5t-12.5 14t-6 22.5q0 29 24 44t60 15q82 0 82 -64zM270 59q0 -30 -37.5 -46.5t-86.5 -16.5q-38 0 -64 22.5t-26 60.5v556q0 34 22.5 50t58.5 16
q80 0 80 -66v-511q0 -12 8.5 -18.5t18 -9t18 -12t8.5 -25.5z" />
    <glyph glyph-name="Lcaron" unicode="&#x13d;" horiz-adv-x="570" 
d="M491 702q25 0 43.5 -11t18.5 -33q0 -29 -19 -77t-41 -81q-15 -25 -41 -25q-15 0 -29 8.5t-14 23.5q0 4 4 26q15 61 22 119q8 50 56 50zM262 599l-1 -449q0 -19 19 -19h168q12 0 34 4t34 4q23 0 39 -16t16 -39q0 -35 -33.5 -55t-70.5 -20h-283q-100 0 -100 87v472
q0 11 -9 18t-19 10t-19 13t-9 26q0 25 22.5 41.5t48 21.5t51.5 5q53 0 82.5 -26t29.5 -78z" />
    <glyph glyph-name="lcaron" unicode="&#x13e;" horiz-adv-x="321" 
d="M354 701q25 0 43.5 -11t18.5 -33q0 -29 -19 -77t-41 -81q-15 -25 -41 -25q-15 0 -29 8.5t-14 23.5q0 4 4 26q15 61 22 119q8 50 56 50zM270 59q0 -30 -37.5 -46.5t-86.5 -16.5q-38 0 -64 22.5t-26 60.5v556q0 34 22.5 50t58.5 16q80 0 80 -66v-511q0 -12 8.5 -18.5t18 -9
t18 -12t8.5 -25.5z" />
    <glyph glyph-name="Ldot" unicode="&#x13f;" horiz-adv-x="570" 
d="M526 384q0 -29 -23 -45t-62 -16q-87 0 -87 57q0 29 24 46.5t63 17.5t62 -16t23 -44zM262 599l-1 -449q0 -19 19 -19h168q12 0 34 4t34 4q23 0 39 -16t16 -39q0 -35 -33.5 -55t-70.5 -20h-283q-100 0 -100 87v472q0 11 -9 18t-19 10t-19 13t-9 26q0 25 22.5 41.5t48 21.5
t51.5 5q53 0 82.5 -26t29.5 -78z" />
    <glyph glyph-name="ldot" unicode="&#x140;" horiz-adv-x="426" 
d="M272 59q0 -30 -38.5 -47t-87.5 -17q-38 0 -64 22.5t-26 60.5v556q0 35 23 51t59 16q81 0 81 -67l-1 -510q0 -12 8.5 -19t18.5 -9t18.5 -11.5t8.5 -25.5zM434 361q0 -30 -22.5 -46t-62.5 -16q-86 0 -86 57q0 30 23.5 47t63.5 17q39 0 61.5 -15.5t22.5 -43.5z" />
    <glyph glyph-name="Lslash" unicode="&#x141;" horiz-adv-x="570" 
d="M84 369v199q0 11 -9 18t-19 10t-19 13t-9 26q0 25 22.5 41.5t48 21.5t51.5 5q53 0 82.5 -26t29.5 -78v-161l66 37q18 10 31 10q17 0 31.5 -17.5t14.5 -39.5q0 -26 -30 -42l-113 -60v-176q0 -18 19 -19h167q10 0 33.5 4t35.5 4q23 0 39 -16t16 -39q0 -34 -33.5 -54.5
t-70.5 -20.5h-263q-26 0 -45 3t-37.5 11.5t-28.5 27t-10 45.5v159q-16 -7 -25 -7q-17 0 -32 17.5t-15 39.5q0 26 31 42z" />
    <glyph glyph-name="lslash" unicode="&#x142;" horiz-adv-x="303" 
d="M270 61q0 -31 -37.5 -48t-86.5 -17q-38 0 -64 22.5t-26 60.5v205l-5 -2q-11 -6 -21 -6q-17 0 -31 18t-14 37q0 24 29 40l42 24v240q0 34 22.5 50t58.5 16q80 0 80 -66v-170l5 3q14 7 25 7q18 0 31.5 -18t13.5 -37q0 -25 -28 -40l-47 -27v-229q0 -18 21 -25q32 -11 32 -38
z" />
    <glyph glyph-name="Nacute" unicode="&#x143;" horiz-adv-x="702" 
d="M493 900q0 -27 -24 -49q-9 -10 -50 -43.5t-57 -43.5q-14 -10 -31 -10q-14 0 -27 10t-13 26q0 10 6 22q5 9 40 57.5t45 59.5q19 24 50 24q22 0 41.5 -15.5t19.5 -37.5zM83 565q0 12 -8.5 20t-19 11.5t-19 13t-8.5 24.5q0 36 38.5 52t83.5 16q83 0 116 -60l230 -380l3 2
l-5 364q0 39 16.5 56.5t54.5 17.5q69 0 69 -67l-4 -563q0 -35 -24 -55.5t-59 -20.5q-65 0 -101 64l-224 369l-3 -1l3 -358q0 -73 -72 -73q-36 0 -53.5 17t-16.5 52z" />
    <glyph glyph-name="nacute" unicode="&#x144;" horiz-adv-x="617" 
d="M446 700q0 -27 -24 -49q-9 -10 -50 -43.5t-57 -43.5q-14 -10 -31 -10q-14 0 -27 10t-13 26q0 10 6 22q5 9 40 57.5t45 59.5q19 24 50 24q22 0 41.5 -15.5t19.5 -37.5zM593 58q0 -31 -36.5 -47.5t-85.5 -16.5q-37 0 -62 22t-24 59l2 253q0 57 -46 57q-40 0 -71.5 -36
t-31.5 -76v-210q0 -34 -22.5 -50.5t-58.5 -16.5q-81 0 -81 67v299q0 22 -15 27q-37 10 -37 38q0 31 41.5 52t81.5 21q66 0 80 -72v-10q67 85 184 85q59 0 97 -39t38 -104q0 -24 -2 -120t-2 -119q0 -12 7.5 -18.5t17.5 -9t18 -11t8 -24.5z" />
    <glyph glyph-name="Ncommaaccent" unicode="&#x145;" horiz-adv-x="702" 
d="M438 -109q0 -63 -74 -123q-12 -10 -27 -10q-13 0 -23.5 8.5t-10.5 20.5q0 11 9 24q10 13 10 22t-13 16q-12 6 -18.5 10.5t-12.5 14t-6 22.5q0 29 24 44t60 15q82 0 82 -64zM83 565q0 12 -8.5 20t-19 11.5t-19 13t-8.5 24.5q0 36 38.5 52t83.5 16q83 0 116 -60l230 -380
l3 2l-5 364q0 39 16.5 56.5t54.5 17.5q69 0 69 -67l-4 -563q0 -35 -24 -55.5t-59 -20.5q-65 0 -101 64l-224 369l-3 -1l3 -358q0 -73 -72 -73q-36 0 -53.5 17t-16.5 52z" />
    <glyph glyph-name="ncommaaccent" unicode="&#x146;" horiz-adv-x="617" 
d="M396 -109q0 -63 -74 -123q-12 -10 -27 -10q-13 0 -23.5 8.5t-10.5 20.5q0 11 9 24q10 13 10 22t-13 16q-12 6 -18.5 10.5t-12.5 14t-6 22.5q0 29 24 44t60 15q82 0 82 -64zM593 58q0 -31 -36.5 -47.5t-85.5 -16.5q-37 0 -62 22t-24 59l2 253q0 57 -46 57q-40 0 -71.5 -36
t-31.5 -76v-210q0 -34 -22.5 -50.5t-58.5 -16.5q-81 0 -81 67v299q0 22 -15 27q-37 10 -37 38q0 31 41.5 52t81.5 21q66 0 80 -72v-10q67 85 184 85q59 0 97 -39t38 -104q0 -24 -2 -120t-2 -119q0 -12 7.5 -18.5t17.5 -9t18 -11t8 -24.5z" />
    <glyph glyph-name="Ncaron" unicode="&#x147;" horiz-adv-x="702" 
d="M197 904q0 13 12.5 25.5t28.5 12.5q8 0 19 -3q12 -4 48.5 -25.5t60.5 -37.5q80 54 107 63q9 3 19 3q12 0 24.5 -10t12.5 -26q0 -14 -14 -31q-10 -11 -52 -50.5t-56 -48.5q-18 -12 -44 -12t-45 12q-13 8 -54 46t-54 52t-13 30zM83 565q0 12 -8.5 20t-19 11.5t-19 13
t-8.5 24.5q0 36 38.5 52t83.5 16q83 0 116 -60l230 -380l3 2l-5 364q0 39 16.5 56.5t54.5 17.5q69 0 69 -67l-4 -563q0 -35 -24 -55.5t-59 -20.5q-65 0 -101 64l-224 369l-3 -1l3 -358q0 -73 -72 -73q-36 0 -53.5 17t-16.5 52z" />
    <glyph glyph-name="ncaron" unicode="&#x148;" horiz-adv-x="617" 
d="M154 704q0 13 12.5 25.5t28.5 12.5q9 0 19 -3q12 -4 48.5 -25.5t60.5 -37.5q80 54 107 63q9 3 19 3q12 0 24.5 -10t12.5 -26q0 -14 -14 -31q-10 -11 -52 -50.5t-56 -48.5q-18 -12 -44 -12t-45 12q-13 8 -54 46t-54 52t-13 30zM593 58q0 -31 -36.5 -47.5t-85.5 -16.5
q-37 0 -62 22t-24 59l2 253q0 57 -46 57q-40 0 -71.5 -36t-31.5 -76v-210q0 -34 -22.5 -50.5t-58.5 -16.5q-81 0 -81 67v299q0 22 -15 27q-37 10 -37 38q0 31 41.5 52t81.5 21q66 0 80 -72v-10q67 85 184 85q59 0 97 -39t38 -104q0 -24 -2 -120t-2 -119q0 -12 7.5 -18.5
t17.5 -9t18 -11t8 -24.5z" />
    <glyph glyph-name="napostrophe" unicode="&#x149;" horiz-adv-x="730" 
d="M140 612q0 -47 -20 -91.5t-56 -74.5q-13 -11 -28 -11q-16 0 -27.5 11.5t-11.5 26.5q0 12 12.5 34.5t12.5 31.5q0 6 -9.5 12t-21 12t-21 22t-9.5 40q0 34 27.5 59t61.5 25q41 0 65.5 -27.5t24.5 -69.5zM707 58q0 -31 -36.5 -47.5t-85.5 -16.5q-37 0 -62 22t-24 59l2 253
q0 57 -46 57q-40 0 -71.5 -36t-31.5 -76v-210q0 -34 -22.5 -50.5t-58.5 -16.5q-81 0 -81 67v299q0 22 -15 27q-37 10 -37 38q0 31 41.5 52t81.5 21q66 0 80 -72v-10q67 85 184 85q59 0 97 -39t38 -104q0 -24 -2 -120t-2 -119q0 -12 7.5 -18.5t17.5 -9t18 -11t8 -24.5z" />
    <glyph glyph-name="Eng" unicode="&#x14a;" horiz-adv-x="702" 
d="M28 634q0 36 38.5 52t83.5 16q83 0 116 -60l230 -380l3 2l-5 364q0 39 16.5 56.5t54.5 17.5q69 0 69 -67l-3 -569q-1 -125 -40 -189.5t-136 -64.5q-54 0 -92.5 18t-38.5 57q0 40 17 55.5t56 15.5q57 0 66 -41q5 -16 13 -16q23 0 23 59v44q-31 17 -53 56l-224 369l-3 -1
l3 -358q0 -73 -72 -73q-36 0 -53.5 17t-16.5 52l3 499q0 12 -8.5 20t-19 11.5t-19 13t-8.5 24.5z" />
    <glyph glyph-name="eng" unicode="&#x14b;" horiz-adv-x="621" 
d="M24 427q0 31 41.5 52t81.5 21q66 0 80 -72v-10q67 85 184 85q59 0 97 -39t38 -104q0 -24 -1 -168.5t-1 -167.5q0 -103 -42 -168t-136 -65q-55 0 -55 40q0 19 9 28.5t33 20.5q30 12 32 41q3 41 3 407q0 57 -47 57q-40 0 -71.5 -36t-31.5 -76v-210q0 -34 -22.5 -50.5
t-58.5 -16.5q-81 0 -81 67v299q0 22 -15 27q-37 10 -37 38z" />
    <glyph glyph-name="Omacron" unicode="&#x14c;" horiz-adv-x="707" 
d="M533 828q0 -21 -11.5 -35.5t-31.5 -14.5h-259q-20 0 -31.5 14.5t-11.5 35.5q0 22 11.5 36.5t31.5 14.5h259q20 0 31.5 -14.5t11.5 -36.5zM358 709q154 0 233.5 -95t79.5 -253q0 -163 -82.5 -268.5t-239.5 -105.5q-155 0 -233.5 94.5t-78.5 253.5q0 162 82 268t239 106z
M494 379q0 92 -33.5 153.5t-101.5 61.5q-147 0 -147 -279q0 -90 32.5 -151t99.5 -61q150 0 150 276z" />
    <glyph glyph-name="omacron" unicode="&#x14d;" horiz-adv-x="556" 
d="M457 628q0 -21 -11.5 -35.5t-31.5 -14.5h-259q-20 0 -31.5 14.5t-11.5 35.5q0 22 11.5 36.5t31.5 14.5h259q20 0 31.5 -14.5t11.5 -36.5zM281 509q118 0 184 -66t66 -185q0 -120 -69 -196t-187 -76q-117 0 -183.5 65.5t-66.5 183.5q0 120 68.5 197t187.5 77zM372 264
q0 61 -21 103t-70 42q-98 0 -98 -184q0 -56 22 -98t68 -42q99 0 99 179z" />
    <glyph glyph-name="Obreve" unicode="&#x14e;" horiz-adv-x="707" 
d="M358 709q154 0 233.5 -95t79.5 -253q0 -163 -82.5 -268.5t-239.5 -105.5q-155 0 -233.5 94.5t-78.5 253.5q0 162 82 268t239 106zM494 379q0 92 -33.5 153.5t-101.5 61.5q-147 0 -147 -279q0 -90 32.5 -151t99.5 -61q150 0 150 276zM531 891q0 -15 -11 -35
q-19 -34 -59.5 -64t-100.5 -30q-92 0 -146 72q-20 25 -20 52q0 16 13 28.5t32 12.5q13 0 25 -10q26 -27 47.5 -38.5t50.5 -11.5q56 0 105 51q9 9 22 9q18 0 30 -11.5t12 -24.5z" />
    <glyph glyph-name="obreve" unicode="&#x14f;" horiz-adv-x="556" 
d="M281 509q118 0 184 -66t66 -185q0 -120 -69 -196t-187 -76q-117 0 -183.5 65.5t-66.5 183.5q0 120 68.5 197t187.5 77zM372 264q0 61 -21 103t-70 42q-98 0 -98 -184q0 -56 22 -98t68 -42q99 0 99 179zM455 691q0 -15 -11 -35q-19 -34 -59.5 -64t-100.5 -30
q-92 0 -146 72q-20 25 -20 52q0 16 13 28.5t32 12.5q13 0 25 -10q26 -27 47.5 -38.5t50.5 -11.5q56 0 105 51q9 9 22 9q18 0 30 -11.5t12 -24.5z" />
    <glyph glyph-name="Ohungarumlaut" unicode="&#x150;" horiz-adv-x="707" 
d="M384 899q0 -22 -25 -49q-9 -10 -47 -43.5t-53 -43.5q-13 -9 -29 -9q-14 0 -27.5 9t-13.5 25q0 10 6 22q5 9 38.5 55.5t43.5 59.5q20 25 48 25q22 0 40.5 -15t18.5 -36zM593 899q0 -22 -25 -49q-10 -11 -47.5 -44t-53.5 -43q-13 -9 -29 -9q-14 0 -27 9t-13 25q0 10 6 22
q5 10 39 57t43 58q20 25 48 25q21 0 40 -15t19 -36zM358 709q154 0 233.5 -95t79.5 -253q0 -163 -82.5 -268.5t-239.5 -105.5q-155 0 -233.5 94.5t-78.5 253.5q0 162 82 268t239 106zM494 379q0 92 -33.5 153.5t-101.5 61.5q-147 0 -147 -279q0 -90 32.5 -151t99.5 -61
q150 0 150 276z" />
    <glyph glyph-name="ohungarumlaut" unicode="&#x151;" horiz-adv-x="556" 
d="M308 699q0 -22 -25 -49q-9 -10 -47 -43.5t-53 -43.5q-13 -9 -29 -9q-14 0 -27.5 9t-13.5 25q0 10 6 22q5 9 38.5 55.5t43.5 59.5q20 25 48 25q22 0 40.5 -15t18.5 -36zM517 699q0 -22 -25 -49q-10 -11 -47.5 -44t-53.5 -43q-13 -9 -29 -9q-14 0 -27 9t-13 25q0 10 6 22
q5 10 39 57t43 58q20 25 48 25q21 0 40 -15t19 -36zM281 509q118 0 184 -66t66 -185q0 -120 -69 -196t-187 -76q-117 0 -183.5 65.5t-66.5 183.5q0 120 68.5 197t187.5 77zM372 264q0 61 -21 103t-70 42q-98 0 -98 -184q0 -56 22 -98t68 -42q99 0 99 179z" />
    <glyph glyph-name="OE" unicode="&#x152;" horiz-adv-x="1028" 
d="M1000 82q0 -35 -32 -55.5t-69 -20.5h-314q-53 0 -65 30q0 2 -1 7.5t0 8.5q-59 -65 -169 -65q-155 0 -234 95t-79 254q0 77 20 143.5t58.5 118.5t101 81.5t142.5 29.5q115 0 173 -54q19 39 70 39h310q27 0 44.5 -15.5t17.5 -41.5q0 -29 -16.5 -47.5t-44.5 -18.5
q-11 0 -34 1t-35 1l-168 1q-15 0 -15 -19v-141l202 2q56 0 56 -59q0 -58 -59 -58h-199v-156q0 -18 15 -18h204q11 0 33.5 3.5t33.5 3.5q23 0 38 -13.5t15 -36.5zM499 379q0 92 -34.5 153.5t-104.5 61.5q-150 0 -150 -279q0 -91 33.5 -152.5t101.5 -61.5q154 0 154 278z" />
    <glyph glyph-name="oe" unicode="&#x153;" horiz-adv-x="884" 
d="M854 300q0 -90 -87 -90l-222 -1q-11 0 -11 -15q0 -48 29.5 -75t83.5 -27q55 0 110 42q17 14 34 14q20 0 33.5 -15t13.5 -32q0 -20 -16 -39q-28 -33 -83 -55t-120 -22q-114 0 -174 69q-63 -68 -163 -68q-117 0 -183 65.5t-66 183.5q0 120 68.5 197t187.5 77q114 0 175 -71
q62 72 155 72q116 0 175.5 -62.5t59.5 -147.5zM692 300q17 0 17 21q0 39 -20.5 64t-57.5 25q-42 0 -65.5 -32.5t-28.5 -77.5h155zM380 264q0 62 -21.5 103.5t-69.5 41.5q-30 0 -50.5 -15.5t-30.5 -43.5t-13.5 -57.5t-3.5 -67.5q0 -56 22 -98t67 -42q100 0 100 179z" />
    <glyph glyph-name="Racute" unicode="&#x154;" horiz-adv-x="685" 
d="M474 900q0 -27 -24 -49q-9 -10 -50 -43.5t-57 -43.5q-14 -10 -31 -10q-14 0 -27 10t-13 26q0 10 6 22q5 9 40 57.5t45 59.5q19 24 50 24q22 0 41.5 -15.5t19.5 -37.5zM669 52q0 -54 -95 -54q-37 0 -66 17t-56 64q-13 17 -43 80.5t-51 83.5q-30 26 -76 26q-16 0 -30 -3
v-199q-1 -35 -25.5 -53t-60.5 -18q-41 0 -64.5 18.5t-22.5 57.5l3 490q0 10 -8.5 16.5t-18 9t-18 12t-8.5 25.5q0 36 38.5 53.5t83.5 17.5q32 0 68 -17q63 23 126 23q62 0 103.5 -8.5t82.5 -37.5q74 -53 74 -161q0 -62 -38.5 -110.5t-101.5 -66.5v-4q28 -9 59.5 -46
t57.5 -95q17 -38 26.5 -52t21.5 -21q39 -23 39 -48zM444 486q0 104 -102 104q-90 0 -90 -49l-1 -145q0 -13 9 -20t17.5 -8t23.5 -1h20q56 1 89.5 32t33.5 87z" />
    <glyph glyph-name="racute" unicode="&#x155;" horiz-adv-x="458" 
d="M381 700q0 -27 -24 -49q-9 -10 -50 -43.5t-57 -43.5q-14 -10 -31 -10q-14 0 -27 10t-13 26q0 10 6 22q5 9 40 57.5t45 59.5q19 24 50 24q22 0 41.5 -15.5t19.5 -37.5zM445 435q0 -42 -17.5 -62.5t-58.5 -20.5q-42 0 -58 17q-7 10 -16 10q-16 0 -31 -29t-19 -57
q-5 -28 -5 -52v-178q0 -34 -23 -50.5t-59 -16.5q-82 0 -82 67l1 299q0 22 -22 28q-31 10 -31 35q0 36 49 57q44 19 72 19q39 0 59 -23t20 -59v-10h4q24 50 53.5 74t81.5 24q34 0 58 -18.5t24 -53.5z" />
    <glyph glyph-name="Rcommaaccent" unicode="&#x156;" horiz-adv-x="685" 
d="M439 -109q0 -63 -74 -123q-12 -10 -27 -10q-13 0 -23.5 8.5t-10.5 20.5q0 11 9 24q10 13 10 22t-13 16q-12 6 -18.5 10.5t-12.5 14t-6 22.5q0 29 24 44t60 15q82 0 82 -64zM669 52q0 -54 -95 -54q-37 0 -66 17t-56 64q-13 17 -43 80.5t-51 83.5q-30 26 -76 26
q-16 0 -30 -3v-199q-1 -35 -25.5 -53t-60.5 -18q-41 0 -64.5 18.5t-22.5 57.5l3 490q0 10 -8.5 16.5t-18 9t-18 12t-8.5 25.5q0 36 38.5 53.5t83.5 17.5q32 0 68 -17q63 23 126 23q62 0 103.5 -8.5t82.5 -37.5q74 -53 74 -161q0 -62 -38.5 -110.5t-101.5 -66.5v-4
q28 -9 59.5 -46t57.5 -95q17 -38 26.5 -52t21.5 -21q39 -23 39 -48zM444 486q0 104 -102 104q-90 0 -90 -49l-1 -145q0 -13 9 -20t17.5 -8t23.5 -1h20q56 1 89.5 32t33.5 87z" />
    <glyph glyph-name="rcommaaccent" unicode="&#x157;" horiz-adv-x="458" 
d="M238 -109q0 -63 -74 -123q-12 -10 -27 -10q-13 0 -23.5 8.5t-10.5 20.5q0 11 9 24q10 13 10 22t-13 16q-12 6 -18.5 10.5t-12.5 14t-6 22.5q0 29 24 44t60 15q82 0 82 -64zM445 435q0 -42 -17.5 -62.5t-58.5 -20.5q-42 0 -58 17q-7 10 -16 10q-16 0 -31 -29t-19 -57
q-5 -28 -5 -52v-178q0 -34 -23 -50.5t-59 -16.5q-82 0 -82 67l1 299q0 22 -22 28q-31 10 -31 35q0 36 49 57q44 19 72 19q39 0 59 -23t20 -59v-10h4q24 50 53.5 74t81.5 24q34 0 58 -18.5t24 -53.5z" />
    <glyph glyph-name="Rcaron" unicode="&#x158;" horiz-adv-x="685" 
d="M174 904q0 13 12.5 25.5t28.5 12.5q9 0 19 -3q12 -4 48.5 -25.5t60.5 -37.5q80 54 107 63q9 3 19 3q12 0 24.5 -10t12.5 -26q0 -14 -14 -31q-10 -11 -52 -50.5t-56 -48.5q-18 -12 -44 -12t-45 12q-13 8 -54 46t-54 52t-13 30zM669 52q0 -54 -95 -54q-37 0 -66 17t-56 64
q-13 17 -43 80.5t-51 83.5q-30 26 -76 26q-16 0 -30 -3v-199q-1 -35 -25.5 -53t-60.5 -18q-41 0 -64.5 18.5t-22.5 57.5l3 490q0 10 -8.5 16.5t-18 9t-18 12t-8.5 25.5q0 36 38.5 53.5t83.5 17.5q32 0 68 -17q63 23 126 23q62 0 103.5 -8.5t82.5 -37.5q74 -53 74 -161
q0 -62 -38.5 -110.5t-101.5 -66.5v-4q28 -9 59.5 -46t57.5 -95q17 -38 26.5 -52t21.5 -21q39 -23 39 -48zM444 486q0 104 -102 104q-90 0 -90 -49l-1 -145q0 -13 9 -20t17.5 -8t23.5 -1h20q56 1 89.5 32t33.5 87z" />
    <glyph glyph-name="rcaron" unicode="&#x159;" horiz-adv-x="458" 
d="M85 704q0 13 12.5 25.5t28.5 12.5q8 0 19 -3q12 -4 48.5 -25.5t60.5 -37.5q80 54 107 63q9 3 19 3q12 0 24.5 -10t12.5 -26q0 -14 -14 -31q-10 -11 -52 -50.5t-56 -48.5q-18 -12 -44 -12t-45 12q-13 8 -54 46t-54 52t-13 30zM445 435q0 -42 -17.5 -62.5t-58.5 -20.5
q-42 0 -58 17q-7 10 -16 10q-16 0 -31 -29t-19 -57q-5 -28 -5 -52v-178q0 -34 -23 -50.5t-59 -16.5q-82 0 -82 67l1 299q0 22 -22 28q-31 10 -31 35q0 36 49 57q44 19 72 19q39 0 59 -23t20 -59v-10h4q24 50 53.5 74t81.5 24q34 0 58 -18.5t24 -53.5z" />
    <glyph glyph-name="Sacute" unicode="&#x15a;" horiz-adv-x="584" 
d="M432 900q0 -27 -24 -49q-9 -10 -50 -43.5t-57 -43.5q-14 -10 -31 -10q-14 0 -27 10t-13 26q0 10 6 22q5 9 40 57.5t45 59.5q19 24 50 24q22 0 41.5 -15.5t19.5 -37.5zM549 190q0 -81 -70 -142t-195 -61q-167 0 -243 94q-15 18 -15 40q0 26 18.5 45.5t44.5 19.5
q23 0 40 -14q71 -63 156 -63q68 0 87 45q5 11 5 26q0 32 -44 60q-3 2 -80.5 40t-110.5 62q-49 36 -73 73t-24 94q0 96 74 148t170 52t167 -31q70 -30 70 -92q0 -18 -3 -29q-12 -45 -76 -45q-72 0 -82 49q-7 39 -75 39q-36 0 -59 -19.5t-23 -54.5q0 -40 56 -76
q33 -21 98.5 -53t80.5 -40q106 -61 106 -167z" />
    <glyph glyph-name="sacute" unicode="&#x15b;" horiz-adv-x="471" 
d="M378 700q0 -27 -24 -49q-9 -10 -50 -43.5t-57 -43.5q-14 -10 -31 -10q-14 0 -27 10t-13 26q0 10 6 22q5 9 40 57.5t45 59.5q19 24 50 24q22 0 41.5 -15.5t19.5 -37.5zM441 138q0 -64 -58 -108t-151 -44q-139 0 -196 73q-12 15 -12 35q0 21 15.5 36t36.5 15q19 0 35 -14
q45 -39 103 -39q71 0 71 45q0 22 -27 38q-14 8 -57.5 25.5t-68.5 31.5q-42 23 -66.5 51.5t-24.5 74.5q0 71 58 111t144 40q117 0 170 -60q13 -14 13 -33q0 -21 -14.5 -35t-35.5 -14q-15 0 -32 11q-37 27 -87 27q-58 0 -58 -40q0 -22 35 -40q20 -10 64.5 -28t66.5 -30
q76 -43 76 -129z" />
    <glyph glyph-name="Scircumflex" unicode="&#x15c;" horiz-adv-x="584" 
d="M468 802q0 -13 -12.5 -25.5t-28.5 -12.5q-9 0 -19 3q-12 4 -48.5 25.5t-60.5 37.5q-80 -54 -107 -63q-9 -3 -19 -3q-12 0 -24.5 10t-12.5 26q0 14 14 31q10 11 52 50.5t56 48.5q18 12 44 12t45 -12q13 -8 54 -46t54 -52t13 -30zM549 190q0 -81 -70 -142t-195 -61
q-167 0 -243 94q-15 18 -15 40q0 26 18.5 45.5t44.5 19.5q23 0 40 -14q71 -63 156 -63q68 0 87 45q5 11 5 26q0 32 -44 60q-3 2 -80.5 40t-110.5 62q-49 36 -73 73t-24 94q0 96 74 148t170 52t167 -31q70 -30 70 -92q0 -18 -3 -29q-12 -45 -76 -45q-72 0 -82 49
q-7 39 -75 39q-36 0 -59 -19.5t-23 -54.5q0 -40 56 -76q33 -21 98.5 -53t80.5 -40q106 -61 106 -167z" />
    <glyph glyph-name="scircumflex" unicode="&#x15d;" horiz-adv-x="471" 
d="M410 602q0 -13 -12.5 -25.5t-28.5 -12.5q-9 0 -19 3q-12 4 -48.5 25.5t-60.5 37.5q-80 -54 -107 -63q-9 -3 -19 -3q-12 0 -24.5 10t-12.5 26q0 14 14 31q10 11 52 50.5t56 48.5q18 12 44 12t45 -12q13 -8 54 -46t54 -52t13 -30zM441 138q0 -64 -58 -108t-151 -44
q-139 0 -196 73q-12 15 -12 35q0 21 15.5 36t36.5 15q19 0 35 -14q45 -39 103 -39q71 0 71 45q0 22 -27 38q-14 8 -57.5 25.5t-68.5 31.5q-42 23 -66.5 51.5t-24.5 74.5q0 71 58 111t144 40q117 0 170 -60q13 -14 13 -33q0 -21 -14.5 -35t-35.5 -14q-15 0 -32 11
q-37 27 -87 27q-58 0 -58 -40q0 -22 35 -40q20 -10 64.5 -28t66.5 -30q76 -43 76 -129z" />
    <glyph glyph-name="Scedilla" unicode="&#x15e;" horiz-adv-x="584" 
d="M383 -132q0 -44 -34.5 -72t-91.5 -28q-41 0 -73.5 12.5t-32.5 38.5q0 16 10 30t26 14q11 0 19 -4q21 -7 36 -7q26 0 26 21q0 9 -7 16t-29 19q-19 11 -19 26q0 13 11 31l14 24q-134 13 -197 92q-15 18 -15 40q0 26 18.5 45.5t44.5 19.5q23 0 40 -14q71 -63 156 -63
q68 0 87 45q5 11 5 26q0 32 -44 60q-3 2 -80.5 40t-110.5 62q-49 36 -73 73t-24 94q0 96 74 148t170 52t167 -31q70 -30 70 -92q0 -18 -3 -29q-12 -45 -76 -45q-72 0 -82 49q-7 39 -75 39q-36 0 -59 -19.5t-23 -54.5q0 -40 56 -76q33 -21 98.5 -53t80.5 -40
q106 -61 106 -167q0 -75 -60.5 -133.5t-169.5 -67.5l-9 -21q-2 -3 -2 -8q0 -6 11 -10q64 -24 64 -82z" />
    <glyph glyph-name="scedilla" unicode="&#x15f;" horiz-adv-x="471" 
d="M331 -132q0 -44 -34.5 -72t-91.5 -28q-41 0 -73.5 12.5t-32.5 38.5q0 16 10 30t26 14q11 0 19 -4q21 -7 36 -7q26 0 26 21q0 9 -7 16t-29 19q-19 11 -19 26q0 13 11 31l13 24q-104 12 -149 70q-12 15 -12 35q0 21 15.5 36t36.5 15q19 0 35 -14q45 -39 103 -39q71 0 71 45
q0 22 -27 38q-14 8 -57.5 25.5t-68.5 31.5q-42 23 -66.5 51.5t-24.5 74.5q0 71 58 111t144 40q117 0 170 -60q13 -14 13 -33q0 -21 -14.5 -35t-35.5 -14q-15 0 -32 11q-37 27 -87 27q-58 0 -58 -40q0 -22 35 -40q20 -10 64.5 -28t66.5 -30q76 -43 76 -129q0 -58 -47.5 -99.5
t-126.5 -50.5l-9 -20q-2 -3 -2 -8q0 -6 11 -10q64 -24 64 -82z" />
    <glyph glyph-name="Scaron" unicode="&#x160;" horiz-adv-x="584" 
d="M135 904q0 13 12.5 25.5t28.5 12.5q8 0 19 -3q12 -4 48.5 -25.5t60.5 -37.5q80 54 107 63q9 3 19 3q12 0 24.5 -10t12.5 -26q0 -14 -14 -31q-10 -11 -52 -50.5t-56 -48.5q-18 -12 -44 -12t-45 12q-13 8 -54 46t-54 52t-13 30zM549 190q0 -81 -70 -142t-195 -61
q-167 0 -243 94q-15 18 -15 40q0 26 18.5 45.5t44.5 19.5q23 0 40 -14q71 -63 156 -63q68 0 87 45q5 11 5 26q0 32 -44 60q-3 2 -80.5 40t-110.5 62q-49 36 -73 73t-24 94q0 96 74 148t170 52t167 -31q70 -30 70 -92q0 -18 -3 -29q-12 -45 -76 -45q-72 0 -82 49
q-7 39 -75 39q-36 0 -59 -19.5t-23 -54.5q0 -40 56 -76q33 -21 98.5 -53t80.5 -40q106 -61 106 -167z" />
    <glyph glyph-name="scaron" unicode="&#x161;" horiz-adv-x="471" 
d="M81 704q0 13 12.5 25.5t28.5 12.5q8 0 19 -3q12 -4 48.5 -25.5t60.5 -37.5q80 54 107 63q9 3 19 3q12 0 24.5 -10t12.5 -26q0 -14 -14 -31q-10 -11 -52 -50.5t-56 -48.5q-18 -12 -44 -12t-45 12q-13 8 -54 46t-54 52t-13 30zM441 138q0 -64 -58 -108t-151 -44
q-139 0 -196 73q-12 15 -12 35q0 21 15.5 36t36.5 15q19 0 35 -14q45 -39 103 -39q71 0 71 45q0 22 -27 38q-14 8 -57.5 25.5t-68.5 31.5q-42 23 -66.5 51.5t-24.5 74.5q0 71 58 111t144 40q117 0 170 -60q13 -14 13 -33q0 -21 -14.5 -35t-35.5 -14q-15 0 -32 11
q-37 27 -87 27q-58 0 -58 -40q0 -22 35 -40q20 -10 64.5 -28t66.5 -30q76 -43 76 -129z" />
    <glyph glyph-name="Tcommaaccent" unicode="&#x162;" horiz-adv-x="632" 
d="M389 -109q0 -63 -74 -123q-12 -10 -27 -10q-13 0 -23.5 8.5t-10.5 20.5q0 11 9 24q10 13 10 22t-13 16q-12 6 -18.5 10.5t-12.5 14t-6 22.5q0 29 24 44t60 15q82 0 82 -64zM616 637q0 -29 -17.5 -50t-44.5 -21q-18 0 -40 2q-16 2 -63 2q-32 0 -43 -2.5t-11 -11.5l-1 -487
q0 -35 -24 -53.5t-64 -18.5t-64 18t-24 54l1 490q0 11 -58 11q-43 0 -61 -2q-15 -2 -41 -2q-25 0 -40.5 19t-15.5 45q0 29 18 46.5t46 17.5h486q27 0 44 -15t17 -42z" />
    <glyph glyph-name="tcommaaccent" unicode="&#x163;" horiz-adv-x="354" 
d="M276 -109q0 -63 -74 -123q-12 -10 -27 -10q-13 0 -23.5 8.5t-10.5 20.5q0 11 9 24q10 13 10 22t-13 16q-12 6 -18.5 10.5t-12.5 14t-6 22.5q0 29 24 44t60 15q82 0 82 -64zM326 59q0 -32 -47 -50q-35 -13 -87 -13t-84 28.5t-32 81.5v251q0 20 -18 27q-23 7 -33 15t-10 26
q0 23 13.5 35t40.5 22q23 9 37 41q4 8 11.5 26.5t12.5 28.5q20 36 56 36q21 0 35 -13.5t15 -36.5l2 -77l37 -5q26 -4 37 -13.5t11 -32.5q0 -46 -55 -56l-30 -4v-246q0 -13 14 -18.5t30 -7t30 -12.5t14 -33z" />
    <glyph glyph-name="Tcaron" unicode="&#x164;" horiz-adv-x="632" 
d="M145 904q0 13 12.5 25.5t28.5 12.5q8 0 19 -3q12 -4 48.5 -25.5t60.5 -37.5q80 54 107 63q9 3 19 3q12 0 24.5 -10t12.5 -26q0 -14 -14 -31q-10 -11 -52 -50.5t-56 -48.5q-18 -12 -44 -12t-45 12q-13 8 -54 46t-54 52t-13 30zM616 637q0 -29 -17.5 -50t-44.5 -21
q-18 0 -40 2q-16 2 -63 2q-32 0 -43 -2.5t-11 -11.5l-1 -487q0 -35 -24 -53.5t-64 -18.5t-64 18t-24 54l1 490q0 11 -58 11q-43 0 -61 -2q-15 -2 -41 -2q-25 0 -40.5 19t-15.5 45q0 29 18 46.5t46 17.5h486q27 0 44 -15t17 -42z" />
    <glyph glyph-name="tcaron" unicode="&#x165;" horiz-adv-x="354" 
d="M357 734q25 0 43.5 -11t18.5 -33q0 -29 -19 -77t-41 -81q-15 -25 -41 -25q-15 0 -29 8.5t-14 23.5q0 4 4 26q15 61 22 119q8 50 56 50zM326 59q0 -32 -47 -50q-35 -13 -87 -13t-84 28.5t-32 81.5v251q0 20 -18 27q-23 7 -33 15t-10 26q0 23 13.5 35t40.5 22q23 9 37 41
q4 8 11.5 26.5t12.5 28.5q20 36 56 36q21 0 35 -13.5t15 -36.5l2 -77l37 -5q26 -4 37 -13.5t11 -32.5q0 -46 -55 -56l-30 -4v-246q0 -13 14 -18.5t30 -7t30 -12.5t14 -33z" />
    <glyph glyph-name="Tbar" unicode="&#x166;" horiz-adv-x="632" 
d="M87 346q0 55 68 55h66v158q0 11 -58 11q-43 0 -61 -2q-15 -2 -41 -2q-25 0 -40.5 19t-15.5 45q0 29 18 46.5t46 17.5h486q27 0 44 -15t17 -42q0 -29 -17.5 -50t-44.5 -21q-18 0 -40 2q-16 2 -63 2q-32 0 -43 -2.5t-11 -11.5v-154h71q62 0 62 -51q0 -54 -64 -54h-70v-228
q0 -35 -24 -53.5t-64 -18.5t-64 18t-24 54v227l-66 1q-34 0 -50.5 9t-16.5 40z" />
    <glyph glyph-name="tbar" unicode="&#x167;" horiz-adv-x="354" 
d="M19 258q0 48 57 51v48q0 20 -18 27q-23 7 -33 15t-10 26q0 23 13.5 35t40.5 22q23 9 37 41q4 8 11.5 26.5t12.5 28.5q20 36 56 36q21 0 35 -13.5t15 -36.5l2 -77l37 -5q26 -4 37 -13.5t11 -32.5q0 -46 -55 -56l-30 -4v-66h8q62 0 62 -47q0 -50 -64 -50h-6v-83
q0 -13 14 -18.5t30 -7t30 -12.5t14 -33q0 -32 -47 -50q-35 -13 -87 -13t-84 28.5t-32 81.5v107q-28 0 -42.5 9t-14.5 36z" />
    <glyph glyph-name="Utilde" unicode="&#x168;" 
d="M636 642q0 -199 -3 -415q-1 -117 -78 -178t-198 -61q-146 0 -212 67t-65 194q0 136 3 319q0 11 -8.5 17.5t-19 9.5t-19 13t-8.5 26q0 25 21.5 41.5t47 22t52.5 5.5q51 0 80 -26.5t29 -77.5q0 -35 -1.5 -188t-1.5 -188q0 -55 29 -84t84 -29q54 0 85 29.5t31 82.5l3 420
q1 29 23 44t53 15t52 -14.5t21 -44.5zM512 900q13 0 27 -11t14 -26q0 -11 -13 -33q-17 -28 -48 -47t-70 -19q-37 0 -69 18q-37 20 -52 20q-19 0 -39 -20q-14 -14 -28 -14t-27.5 10.5t-13.5 25.5q0 13 12 34q17 27 48.5 46.5t70.5 19.5q35 0 67 -18q38 -20 52 -20q19 0 42 21
q13 13 27 13z" />
    <glyph glyph-name="utilde" unicode="&#x169;" horiz-adv-x="608" 
d="M585 70q0 -33 -46 -54q-40 -20 -79 -20q-29 0 -48 17t-24 45l-1 22q-65 -87 -186 -87q-60 0 -96 37.5t-35 97.5l3 248q0 22 -20 29q-29 8 -29 33q0 34 46 50q34 12 73 12q37 0 61.5 -22t24.5 -57l-2 -251q0 -55 42 -55q25 0 48 12q23 13 40.5 40.5t17.5 53.5v213
q0 66 80 66q79 0 79 -66v-305q0 -18 25 -26q26 -10 26 -33zM444 700q13 0 27 -11t14 -26q0 -11 -13 -33q-17 -28 -48 -47t-70 -19q-37 0 -69 18q-37 20 -52 20q-19 0 -39 -20q-14 -14 -28 -14t-27.5 10.5t-13.5 25.5q0 13 12 34q17 27 48.5 46.5t70.5 19.5q35 0 67 -18
q38 -20 52 -20q19 0 42 21q13 13 27 13z" />
    <glyph glyph-name="Umacron" unicode="&#x16a;" 
d="M636 642q0 -199 -3 -415q-1 -117 -78 -178t-198 -61q-146 0 -212 67t-65 194q0 136 3 319q0 11 -8.5 17.5t-19 9.5t-19 13t-8.5 26q0 25 21.5 41.5t47 22t52.5 5.5q51 0 80 -26.5t29 -77.5q0 -35 -1.5 -188t-1.5 -188q0 -55 29 -84t84 -29q54 0 85 29.5t31 82.5l3 420
q1 29 23 44t53 15t52 -14.5t21 -44.5zM545 828q0 -21 -11.5 -35.5t-31.5 -14.5h-259q-20 0 -31.5 14.5t-11.5 35.5q0 22 11.5 36.5t31.5 14.5h259q20 0 31.5 -14.5t11.5 -36.5z" />
    <glyph glyph-name="umacron" unicode="&#x16b;" horiz-adv-x="608" 
d="M585 70q0 -33 -46 -54q-40 -20 -79 -20q-29 0 -48 17t-24 45l-1 22q-65 -87 -186 -87q-60 0 -96 37.5t-35 97.5l3 248q0 22 -20 29q-29 8 -29 33q0 34 46 50q34 12 73 12q37 0 61.5 -22t24.5 -57l-2 -251q0 -55 42 -55q25 0 48 12q23 13 40.5 40.5t17.5 53.5v213
q0 66 80 66q79 0 79 -66v-305q0 -18 25 -26q26 -10 26 -33zM480 628q0 -21 -11.5 -35.5t-31.5 -14.5h-259q-20 0 -31.5 14.5t-11.5 35.5q0 22 11.5 36.5t31.5 14.5h259q20 0 31.5 -14.5t11.5 -36.5z" />
    <glyph glyph-name="Ubreve" unicode="&#x16c;" 
d="M636 642q0 -199 -3 -415q-1 -117 -78 -178t-198 -61q-146 0 -212 67t-65 194q0 136 3 319q0 11 -8.5 17.5t-19 9.5t-19 13t-8.5 26q0 25 21.5 41.5t47 22t52.5 5.5q51 0 80 -26.5t29 -77.5q0 -35 -1.5 -188t-1.5 -188q0 -55 29 -84t84 -29q54 0 85 29.5t31 82.5l3 420
q1 29 23 44t53 15t52 -14.5t21 -44.5zM541 891q0 -15 -11 -35q-19 -34 -59.5 -64t-100.5 -30q-92 0 -146 72q-20 25 -20 52q0 16 13 28.5t32 12.5q13 0 25 -10q26 -27 47.5 -38.5t50.5 -11.5q56 0 105 51q9 9 22 9q18 0 30 -11.5t12 -24.5z" />
    <glyph glyph-name="ubreve" unicode="&#x16d;" horiz-adv-x="608" 
d="M585 70q0 -33 -46 -54q-40 -20 -79 -20q-29 0 -48 17t-24 45l-1 22q-65 -87 -186 -87q-60 0 -96 37.5t-35 97.5l3 248q0 22 -20 29q-29 8 -29 33q0 34 46 50q34 12 73 12q37 0 61.5 -22t24.5 -57l-2 -251q0 -55 42 -55q25 0 48 12q23 13 40.5 40.5t17.5 53.5v213
q0 66 80 66q79 0 79 -66v-305q0 -18 25 -26q26 -10 26 -33zM476 691q0 -15 -11 -35q-19 -34 -59.5 -64t-100.5 -30q-92 0 -146 72q-20 25 -20 52q0 16 13 28.5t32 12.5q13 0 25 -10q26 -27 47.5 -38.5t50.5 -11.5q55 0 105 51q9 9 22 9q18 0 30 -11.5t12 -24.5z" />
    <glyph glyph-name="Uring" unicode="&#x16e;" 
d="M498 863q0 -54 -36.5 -87t-89.5 -33q-52 0 -88.5 31.5t-36.5 84.5q0 54 37 88t88 34q53 0 89.5 -31.5t36.5 -86.5zM425 861q0 23 -13.5 38.5t-39.5 15.5q-24 0 -38 -15.5t-14 -38.5q0 -22 14 -37.5t38 -15.5q25 0 39 15.5t14 37.5zM636 642q0 -199 -3 -415
q-1 -117 -78 -178t-198 -61q-146 0 -212 67t-65 194q0 136 3 319q0 11 -8.5 17.5t-19 9.5t-19 13t-8.5 26q0 25 21.5 41.5t47 22t52.5 5.5q51 0 80 -26.5t29 -77.5q0 -35 -1.5 -188t-1.5 -188q0 -55 29 -84t84 -29q54 0 85 29.5t31 82.5l3 420q1 29 23 44t53 15t52 -14.5
t21 -44.5z" />
    <glyph glyph-name="uring" unicode="&#x16f;" horiz-adv-x="608" 
d="M433 663q0 -54 -36.5 -87t-89.5 -33q-52 0 -88.5 31.5t-36.5 84.5q0 54 37 88t88 34q53 0 89.5 -31.5t36.5 -86.5zM360 661q0 23 -13.5 38.5t-39.5 15.5q-24 0 -38 -15.5t-14 -38.5q0 -22 14 -37.5t38 -15.5q25 0 39 15.5t14 37.5zM585 70q0 -33 -46 -54q-40 -20 -79 -20
q-29 0 -48 17t-24 45l-1 22q-65 -87 -186 -87q-60 0 -96 37.5t-35 97.5l3 248q0 22 -20 29q-29 8 -29 33q0 34 46 50q34 12 73 12q37 0 61.5 -22t24.5 -57l-2 -251q0 -55 42 -55q25 0 48 12q23 13 40.5 40.5t17.5 53.5v213q0 66 80 66q79 0 79 -66v-305q0 -18 25 -26
q26 -10 26 -33z" />
    <glyph glyph-name="Uhungarumlaut" unicode="&#x170;" 
d="M636 642q0 -199 -3 -415q-1 -117 -78 -178t-198 -61q-146 0 -212 67t-65 194q0 136 3 319q0 11 -8.5 17.5t-19 9.5t-19 13t-8.5 26q0 25 21.5 41.5t47 22t52.5 5.5q51 0 80 -26.5t29 -77.5q0 -35 -1.5 -188t-1.5 -188q0 -55 29 -84t84 -29q54 0 85 29.5t31 82.5l3 420
q1 29 23 44t53 15t52 -14.5t21 -44.5zM399 899q0 -22 -25 -49q-9 -10 -47 -43.5t-53 -43.5q-14 -9 -29 -9q-14 0 -27.5 9t-13.5 25q0 10 6 22q5 9 38.5 55.5t43.5 59.5q20 25 48 25q22 0 40.5 -15t18.5 -36zM608 899q0 -22 -25 -49q-10 -11 -47.5 -44t-53.5 -43
q-14 -9 -29 -9q-14 0 -27 9t-13 25q0 10 6 22q5 10 39 57t43 58q20 25 48 25q21 0 40 -15t19 -36z" />
    <glyph glyph-name="uhungarumlaut" unicode="&#x171;" horiz-adv-x="608" 
d="M585 70q0 -33 -46 -54q-40 -20 -79 -20q-29 0 -48 17t-24 45l-1 22q-65 -87 -186 -87q-60 0 -96 37.5t-35 97.5l3 248q0 22 -20 29q-29 8 -29 33q0 34 46 50q34 12 73 12q37 0 61.5 -22t24.5 -57l-2 -251q0 -55 42 -55q25 0 48 12q23 13 40.5 40.5t17.5 53.5v213
q0 66 80 66q79 0 79 -66v-305q0 -18 25 -26q26 -10 26 -33zM335 699q0 -22 -25 -49q-9 -10 -47 -43.5t-53 -43.5q-14 -9 -29 -9q-14 0 -27.5 9t-13.5 25q0 10 6 22q5 9 38.5 55.5t43.5 59.5q20 25 48 25q22 0 40.5 -15t18.5 -36zM544 699q0 -22 -25 -49q-10 -11 -47.5 -44
t-53.5 -43q-14 -9 -29 -9q-14 0 -27 9t-13 25q0 10 6 22q5 10 39 57t43 58q20 25 48 25q21 0 40 -15t19 -36z" />
    <glyph glyph-name="Uogonek" unicode="&#x172;" 
d="M636 642q0 -199 -3 -415q-1 -103 -61.5 -162.5t-160.5 -72.5q-53 -38 -53 -90q0 -40 38 -40q13 0 27 7t23 7q15 0 26 -11.5t11 -31.5q0 -31 -44 -49q-34 -16 -78 -16q-54 0 -83.5 27t-29.5 73q0 68 58 123q-228 21 -226 258q0 136 3 319q0 11 -8.5 17.5t-19 9.5t-19 13
t-8.5 26q0 25 21.5 41.5t47 22t52.5 5.5q51 0 80 -26.5t29 -77.5q0 -35 -1.5 -188t-1.5 -188q0 -55 29 -84t84 -29q54 0 85 29.5t31 82.5l3 420q1 29 23 44t53 15t52 -14.5t21 -44.5z" />
    <glyph glyph-name="uogonek" unicode="&#x173;" horiz-adv-x="608" 
d="M352 -129q0 83 76 137q-33 17 -40 50l-1 22q-65 -87 -186 -87q-60 0 -96 37.5t-35 97.5l3 248q0 22 -20 29q-29 8 -29 33q0 34 46 50q34 12 73 12q37 0 61.5 -22t24.5 -57l-2 -251q0 -55 42 -55q25 0 48 12q23 13 40.5 40.5t17.5 53.5v213q0 66 80 66q79 0 79 -66v-305
q0 -18 25 -26q26 -10 26 -33q0 -18 -9.5 -29.5t-33.5 -27.5q-79 -48 -79 -108q0 -38 38 -38q13 0 27 7t23 7q15 0 25.5 -11.5t10.5 -31.5q0 -27 -38 -47q-33 -18 -83 -18q-54 0 -84 26t-30 72z" />
    <glyph glyph-name="Wcircumflex" unicode="&#x174;" horiz-adv-x="976" 
d="M667 802q0 -13 -12.5 -25.5t-28.5 -12.5q-8 0 -19 3q-12 4 -48.5 25.5t-60.5 37.5q-80 -54 -107 -63q-9 -3 -19 -3q-12 0 -24.5 10t-12.5 26q0 14 14 31q10 11 52 50.5t56 48.5q18 12 44 12t45 -12q13 -8 54 -46t54 -52t13 -30zM955 646q0 -16 -5 -31l-167 -518
q-34 -105 -114 -105q-90 0 -117 95l-57 204l-59 -195q-31 -104 -121 -104q-47 0 -78 27.5t-43 73.5l-133 474q-3 11 -13.5 17.5t-20.5 9.5t-18.5 14.5t-8.5 31.5q0 31 39 46.5t74 15.5q98 0 114 -71l114 -457h6l91 311l-26 105q-5 20 -5 35q0 76 97 76q65 0 77 -73l93 -453
h6l133 459q9 34 25.5 48t52.5 14q64 0 64 -50z" />
    <glyph glyph-name="wcircumflex" unicode="&#x175;" horiz-adv-x="778" 
d="M570 602q0 -13 -12.5 -25.5t-28.5 -12.5q-9 0 -19 3q-12 4 -48.5 25.5t-60.5 37.5q-80 -54 -107 -63q-9 -3 -19 -3q-12 0 -24.5 10t-12.5 26q0 14 14 31q10 11 52 50.5t56 48.5q18 12 44 12t45 -12q13 -8 54 -46t54 -52t13 -30zM762 423l-134 -342q-35 -87 -102 -87
q-38 0 -65.5 20.5t-37.5 55.5l-39 142l-46 -136q-15 -40 -37 -61t-60 -21q-81 0 -107 80l-87 287q-9 32 -23 37q-34 13 -34 41q0 29 34.5 44t73.5 15q78 0 95 -68l75 -283h4l69 213l-17 54q-5 15 -5 25q0 30 25.5 45t60.5 15q64 0 75 -64l60 -283h4l100 302q14 40 66 40
q19 0 38.5 -11.5t19.5 -33.5q0 -11 -6 -26z" />
    <glyph glyph-name="Ycircumflex" unicode="&#x176;" horiz-adv-x="621" 
d="M219 275l-156 296q-8 17 -25 23q-38 13 -38 43t35.5 47.5t77.5 17.5q82 0 113 -70l107 -229h4l132 249q13 24 28 34t42 10t48 -12t21 -38q0 -20 -12 -39l-198 -330v-209q0 -37 -25 -54.5t-64 -17.5q-90 0 -90 72v207zM501 802q0 -13 -12.5 -25.5t-28.5 -12.5q-8 0 -19 3
q-12 4 -48.5 25.5t-60.5 37.5q-80 -54 -107 -63q-9 -3 -19 -3q-12 0 -24.5 10t-12.5 26q0 14 14 31q10 11 52 50.5t56 48.5q18 12 44 12t45 -12q13 -8 54 -46t54 -52t13 -30z" />
    <glyph glyph-name="ycircumflex" unicode="&#x177;" horiz-adv-x="541" 
d="M51 -134q0 36 16 54t53 18q39 0 52 -16q5 -4 9 -4q11 0 18 19l33 77q-4 -1 -8 -1q-32 0 -45 31l-139 335q-7 15 -22 21q-33 14 -33 40q0 29 38 44t74 15q73 0 97 -67l96 -272h4l111 297q15 40 68 40q24 0 43.5 -12t19.5 -35q0 -12 -6 -27l-178 -438q-43 -108 -103 -154
q-48 -36 -115 -36q-83 0 -83 71zM458 602q0 -13 -12.5 -25.5t-28.5 -12.5q-9 0 -19 3q-12 4 -48.5 25.5t-60.5 37.5q-80 -54 -107 -63q-9 -3 -19 -3q-12 0 -24.5 10t-12.5 26q0 14 14 31q10 11 52 50.5t56 48.5q18 12 44 12t45 -12q13 -8 54 -46t54 -52t13 -30z" />
    <glyph glyph-name="Ydieresis" unicode="&#x178;" horiz-adv-x="621" 
d="M219 275l-156 296q-8 17 -25 23q-38 13 -38 43t35.5 47.5t77.5 17.5q82 0 113 -70l107 -229h4l132 249q13 24 28 34t42 10t48 -12t21 -38q0 -20 -12 -39l-198 -330v-209q0 -37 -25 -54.5t-64 -17.5q-90 0 -90 72v207zM307 828q0 -61 -83 -61q-80 0 -80 54q0 33 27.5 48
t61.5 15q74 0 74 -56zM522 829q0 -34 -26.5 -48t-60.5 -14q-77 0 -77 57q0 60 84 60q80 0 80 -55z" />
    <glyph glyph-name="Zacute" unicode="&#x179;" horiz-adv-x="592" 
d="M440 900q0 -27 -24 -49q-9 -10 -50 -43.5t-57 -43.5q-14 -10 -31 -10q-14 0 -27 10t-13 26q0 10 6 22q5 9 40 57.5t45 59.5q19 24 50 24q22 0 41.5 -15.5t19.5 -37.5zM569 80q0 -33 -33 -53.5t-68 -20.5h-343q-103 0 -103 78q0 34 25 67l292 407q4 6 4 10q0 5 -7 5h-194
q-10 0 -28 -1t-28 -1q-27 0 -43.5 15.5t-16.5 42.5q0 29 16 46.5t45 17.5h372q97 0 97 -77q0 -35 -24 -68l-294 -408q-3 -4 -3 -7q0 -6 9 -6h205q15 0 35.5 3.5t30.5 3.5q23 0 38.5 -15.5t15.5 -38.5z" />
    <glyph glyph-name="zacute" unicode="&#x17a;" horiz-adv-x="498" 
d="M391 700q0 -27 -24 -49q-9 -10 -50 -43.5t-57 -43.5q-14 -10 -31 -10q-14 0 -27 10t-13 26q0 10 6 22q5 9 40 57.5t45 59.5q19 24 50 24q22 0 41.5 -15.5t19.5 -37.5zM470 54q0 -23 -14.5 -39t-37.5 -16h-332q-27 0 -44 18t-17 44q0 41 35 78l225 249h-196
q-23 0 -37.5 14.5t-14.5 37.5t14.5 38.5t37.5 15.5h296q31 0 55 -18.5t24 -48.5q0 -47 -35 -84l-204 -221q-3 -3 -3 -7q0 -9 10 -9l186 2q24 0 38 -15t14 -39z" />
    <glyph glyph-name="Zdotaccent" unicode="&#x17b;" horiz-adv-x="592" 
d="M569 80q0 -33 -33 -53.5t-68 -20.5h-343q-103 0 -103 78q0 34 25 67l292 407q4 6 4 10q0 5 -7 5h-194q-10 0 -28 -1t-28 -1q-27 0 -43.5 15.5t-16.5 42.5q0 29 16 46.5t45 17.5h372q97 0 97 -77q0 -35 -24 -68l-294 -408q-3 -4 -3 -7q0 -6 9 -6h205q15 0 35.5 3.5
t30.5 3.5q23 0 38.5 -15.5t15.5 -38.5zM397 827q0 -30 -22.5 -46t-62.5 -16q-86 0 -86 57q0 30 23.5 47t63.5 17q39 0 61.5 -15.5t22.5 -43.5z" />
    <glyph glyph-name="zdotaccent" unicode="&#x17c;" horiz-adv-x="498" 
d="M470 54q0 -23 -14.5 -39t-37.5 -16h-332q-27 0 -44 18t-17 44q0 41 35 78l225 249h-196q-23 0 -37.5 14.5t-14.5 37.5t14.5 38.5t37.5 15.5h296q31 0 55 -18.5t24 -48.5q0 -47 -35 -84l-204 -221q-3 -3 -3 -7q0 -9 10 -9l186 2q24 0 38 -15t14 -39zM346 627
q0 -30 -22.5 -46t-62.5 -16q-86 0 -86 57q0 30 23.5 47t63.5 17q39 0 61.5 -15.5t22.5 -43.5z" />
    <glyph glyph-name="Zcaron" unicode="&#x17d;" horiz-adv-x="592" 
d="M144 904q0 13 12.5 25.5t28.5 12.5q9 0 19 -3q12 -4 48.5 -25.5t60.5 -37.5q80 54 107 63q9 3 19 3q12 0 24.5 -10t12.5 -26q0 -14 -14 -31q-10 -11 -52 -50.5t-56 -48.5q-18 -12 -44 -12t-45 12q-13 8 -54 46t-54 52t-13 30zM569 80q0 -33 -33 -53.5t-68 -20.5h-343
q-103 0 -103 78q0 34 25 67l292 407q4 6 4 10q0 5 -7 5h-194q-10 0 -28 -1t-28 -1q-27 0 -43.5 15.5t-16.5 42.5q0 29 16 46.5t45 17.5h372q97 0 97 -77q0 -35 -24 -68l-294 -408q-3 -4 -3 -7q0 -6 9 -6h205q15 0 35.5 3.5t30.5 3.5q23 0 38.5 -15.5t15.5 -38.5z" />
    <glyph glyph-name="zcaron" unicode="&#x17e;" horiz-adv-x="498" 
d="M95 704q0 13 12.5 25.5t28.5 12.5q8 0 19 -3q12 -4 48.5 -25.5t60.5 -37.5q80 54 107 63q9 3 19 3q12 0 24.5 -10t12.5 -26q0 -14 -14 -31q-10 -11 -52 -50.5t-56 -48.5q-18 -12 -44 -12t-45 12q-13 8 -54 46t-54 52t-13 30zM470 54q0 -23 -14.5 -39t-37.5 -16h-332
q-27 0 -44 18t-17 44q0 41 35 78l225 249h-196q-23 0 -37.5 14.5t-14.5 37.5t14.5 38.5t37.5 15.5h296q31 0 55 -18.5t24 -48.5q0 -47 -35 -84l-204 -221q-3 -3 -3 -7q0 -9 10 -9l186 2q24 0 38 -15t14 -39z" />
    <glyph glyph-name="florin" unicode="&#x192;" horiz-adv-x="462" 
d="M474 607q-7 -25 -23 -35t-42 -11q-59 0 -66 33q-4 20 -18 20q-29 0 -42 -73l-8 -48h17q54 0 54 -43q0 -29 -17 -49.5t-46 -20.5h-26l-57 -344q-13 -85 -76 -142q-46 -43 -100 -43q-19 0 -32 10t-13 30q0 21 30 37q27 16 37 75l62 378h-8q-42 3 -42 55q0 23 14.5 40
t42.5 18h12q29 113 83 163.5t145 50.5q60 0 94 -18q30 -16 30 -51q0 -14 -5 -32z" />
    <glyph glyph-name="AEacute" unicode="&#x1fc;" horiz-adv-x="964" 
d="M727 900q0 -27 -24 -49q-9 -10 -50 -43.5t-57 -43.5q-14 -10 -31 -10q-14 0 -27 10t-13 26q0 10 6 22q5 9 40 57.5t45 59.5q19 24 50 24q22 0 41.5 -15.5t19.5 -37.5zM936 85q0 -35 -32 -56t-69 -21l-310 1q-40 0 -65.5 17.5t-25.5 55.5v83h-213l-62 -108
q-19 -35 -36 -47t-57 -12q-21 0 -40 10.5t-19 33.5q0 22 15 44l313 514q0 1 3 21q3 39 54.5 56.5t103.5 17.5h352q27 0 44.5 -14.5t17.5 -40.5q0 -29 -16.5 -48t-44.5 -19q-11 0 -34 1.5t-35 1.5h-163q-16 0 -16 -18v-141l198 1q29 1 42.5 -14t13.5 -44q0 -58 -59 -58h-195
v-156q0 -19 16 -19l198 1q11 0 34 3t35 3q22 0 37 -13.5t15 -35.5zM435 522q0 6 -5 6q-4 0 -7 -5l-142 -249h154v248z" />
    <glyph glyph-name="aeacute" unicode="&#x1fd;" horiz-adv-x="817" 
d="M546 700q0 -27 -24 -49q-9 -10 -50 -43.5t-57 -43.5q-14 -10 -31 -10q-14 0 -27 10t-13 26q0 10 6 22q5 9 40 57.5t45 59.5q19 24 50 24q22 0 41.5 -15.5t19.5 -37.5zM787 300q0 -41 -18 -65.5t-69 -24.5l-221 -1q-12 0 -12 -15q0 -48 29.5 -75t83.5 -27q57 0 110 42
q16 14 34 14q21 0 34.5 -14.5t13.5 -32.5q0 -19 -17 -39q-29 -33 -83 -55t-119 -22q-140 0 -193 97q-67 -90 -191 -90q-69 0 -106.5 39.5t-37.5 101.5q0 66 35.5 101t104.5 49l153 32v31q0 31 -18 48.5t-48 17.5q-31 0 -43 -8.5t-17 -27.5q-14 -46 -73 -46q-62 0 -62 59
q0 32 12 49.5t52 36.5q66 34 135 34q112 0 155 -58q61 59 145 59q111 0 171 -63.5t60 -146.5zM625 300q18 0 18 19q0 40 -20.5 65.5t-58.5 25.5q-42 0 -65 -32t-30 -78h156zM319 186v39q0 8 -10 8q-5 0 -9 -1l-79 -17q-51 -10 -51 -62v-3q0 -24 13.5 -36.5t36.5 -12.5
q69 0 92 56q7 16 7 29z" />
    <glyph glyph-name="Oslashacute" unicode="&#x1fe;" horiz-adv-x="709" 
d="M673 363q0 -106 -34 -189t-108.5 -135t-180.5 -52q-114 0 -189 55l-29 -34q-12 -16 -28 -16q-18 0 -38 17q-22 17 -22 39q0 12 10 25l36 43q-53 87 -53 217q0 162 82.5 269t239.5 107q109 0 182 -51l33 39q14 15 30 15q19 0 37 -16q22 -17 22 -39q0 -14 -10 -25l-39 -46
q59 -87 59 -223zM503 356q0 53 -15 86l-243 -297q37 -57 100 -57q46 0 78 21.5t48.5 61.5t23.5 84t8 101zM458 556q-34 51 -97 51q-46 0 -77.5 -22t-47.5 -63.5t-22.5 -85.5t-7.5 -101q0 -44 12 -73zM486 900q0 -27 -24 -49q-9 -10 -50 -43.5t-57 -43.5q-14 -10 -31 -10
q-14 0 -27 10t-13 26q0 10 6 22q5 9 40 57.5t45 59.5q19 24 50 24q22 0 41.5 -15.5t19.5 -37.5z" />
    <glyph glyph-name="oslashacute" unicode="&#x1ff;" horiz-adv-x="556" 
d="M531 260q0 -124 -69.5 -199t-186.5 -75q-75 0 -128 28l-28 -35q-13 -14 -28 -14q-19 0 -37.5 16.5t-18.5 36.5q0 13 10 24l26 32q-46 63 -46 161q0 122 69.5 198t186.5 76q74 0 131 -30l29 33q13 14 28 14q19 0 37.5 -16.5t18.5 -34.5q0 -14 -10 -25l-28 -33
q44 -63 44 -157zM183 222q0 -20 1 -29l154 189q-22 27 -57 27q-29 0 -49 -14.5t-30.5 -42t-14.5 -58.5t-4 -72zM372 267q0 10 -2 26l-150 -185q23 -23 53 -23q99 0 99 182zM413 700q0 -27 -24 -49q-9 -10 -50 -43.5t-57 -43.5q-14 -10 -31 -10q-14 0 -27 10t-13 26
q0 10 6 22q5 9 40 57.5t45 59.5q19 24 50 24q22 0 41.5 -15.5t19.5 -37.5z" />
    <glyph glyph-name="Scommaaccent" unicode="&#x218;" horiz-adv-x="584" 
d="M381 -109q0 -63 -74 -123q-12 -10 -27 -10q-13 0 -23.5 8.5t-10.5 20.5q0 11 9 24q10 13 10 22t-13 16q-12 6 -18.5 10.5t-12.5 14t-6 22.5q0 29 24 44t60 15q82 0 82 -64zM549 190q0 -81 -70 -142t-195 -61q-167 0 -243 94q-15 18 -15 40q0 26 18.5 45.5t44.5 19.5
q23 0 40 -14q71 -63 156 -63q68 0 87 45q5 11 5 26q0 32 -44 60q-3 2 -80.5 40t-110.5 62q-49 36 -73 73t-24 94q0 96 74 148t170 52t167 -31q70 -30 70 -92q0 -18 -3 -29q-12 -45 -76 -45q-72 0 -82 49q-7 39 -75 39q-36 0 -59 -19.5t-23 -54.5q0 -40 56 -76
q33 -21 98.5 -53t80.5 -40q106 -61 106 -167z" />
    <glyph glyph-name="scommaaccent" unicode="&#x219;" horiz-adv-x="471" 
d="M322 -109q0 -63 -74 -123q-12 -10 -27 -10q-13 0 -23.5 8.5t-10.5 20.5q0 11 9 24q10 13 10 22t-13 16q-12 6 -18.5 10.5t-12.5 14t-6 22.5q0 29 24 44t60 15q82 0 82 -64zM441 138q0 -64 -58 -108t-151 -44q-139 0 -196 73q-12 15 -12 35q0 21 15.5 36t36.5 15
q19 0 35 -14q45 -39 103 -39q71 0 71 45q0 22 -27 38q-14 8 -57.5 25.5t-68.5 31.5q-42 23 -66.5 51.5t-24.5 74.5q0 71 58 111t144 40q117 0 170 -60q13 -14 13 -33q0 -21 -14.5 -35t-35.5 -14q-15 0 -32 11q-37 27 -87 27q-58 0 -58 -40q0 -22 35 -40q20 -10 64.5 -28
t66.5 -30q76 -43 76 -129z" />
    <glyph glyph-name="uni021A" unicode="&#x21a;" horiz-adv-x="632" 
d="M389 -109q0 -63 -74 -123q-12 -10 -27 -10q-13 0 -23.5 8.5t-10.5 20.5q0 11 9 24q10 13 10 22t-13 16q-12 6 -18.5 10.5t-12.5 14t-6 22.5q0 29 24 44t60 15q82 0 82 -64zM616 637q0 -29 -17.5 -50t-44.5 -21q-18 0 -40 2q-16 2 -63 2q-32 0 -43 -2.5t-11 -11.5l-1 -487
q0 -35 -24 -53.5t-64 -18.5t-64 18t-24 54l1 490q0 11 -58 11q-43 0 -61 -2q-15 -2 -41 -2q-25 0 -40.5 19t-15.5 45q0 29 18 46.5t46 17.5h486q27 0 44 -15t17 -42z" />
    <glyph glyph-name="uni021B" unicode="&#x21b;" horiz-adv-x="354" 
d="M276 -109q0 -63 -74 -123q-12 -10 -27 -10q-13 0 -23.5 8.5t-10.5 20.5q0 11 9 24q10 13 10 22t-13 16q-12 6 -18.5 10.5t-12.5 14t-6 22.5q0 29 24 44t60 15q82 0 82 -64zM326 59q0 -32 -47 -50q-35 -13 -87 -13t-84 28.5t-32 81.5v251q0 20 -18 27q-23 7 -33 15t-10 26
q0 23 13.5 35t40.5 22q23 9 37 41q4 8 11.5 26.5t12.5 28.5q20 36 56 36q21 0 35 -13.5t15 -36.5l2 -77l37 -5q26 -4 37 -13.5t11 -32.5q0 -46 -55 -56l-30 -4v-246q0 -13 14 -18.5t30 -7t30 -12.5t14 -33z" />
    <glyph glyph-name="dotlessj" unicode="&#x237;" horiz-adv-x="302" 
d="M227 24q0 -102 -42.5 -167.5t-136.5 -65.5q-55 0 -55 40q0 19 9 28.5t33 20.5q33 14 33 41q0 12 -1.5 47.5t-1.5 57.5v407q0 66 81 66q36 0 58.5 -16.5t22.5 -49.5v-409z" />
    <glyph glyph-name="circumflex" unicode="&#x2c6;" horiz-adv-x="474" 
d="M403 602q0 -13 -12.5 -25.5t-28.5 -12.5q-8 0 -19 3q-12 4 -48.5 25.5t-60.5 37.5q-80 -54 -107 -63q-9 -3 -19 -3q-12 0 -24.5 10t-12.5 26q0 14 14 31q10 11 52 50.5t56 48.5q18 12 44 12t45 -12q13 -8 54 -46t54 -52t13 -30z" />
    <glyph glyph-name="caron" unicode="&#x2c7;" horiz-adv-x="474" 
d="M71 704q0 13 12.5 25.5t28.5 12.5q8 0 19 -3q12 -4 48.5 -25.5t60.5 -37.5q80 54 107 63q9 3 19 3q12 0 24.5 -10t12.5 -26q0 -14 -14 -31q-10 -11 -52 -50.5t-56 -48.5q-18 -12 -44 -12t-45 12q-13 8 -54 46t-54 52t-13 30z" />
    <glyph glyph-name="uni02C9" unicode="&#x2c9;" horiz-adv-x="498" 
d="M422 628q0 -21 -11.5 -35.5t-31.5 -14.5h-259q-20 0 -31.5 14.5t-11.5 35.5q0 22 11.5 36.5t31.5 14.5h259q20 0 31.5 -14.5t11.5 -36.5z" />
    <glyph glyph-name="breve" unicode="&#x2d8;" horiz-adv-x="476" 
d="M406 691q0 -15 -11 -35q-19 -34 -59.5 -64t-100.5 -30q-92 0 -146 72q-20 25 -20 52q0 16 13 28.5t32 12.5q13 0 25 -10q26 -27 47.5 -38.5t50.5 -11.5q55 0 105 51q9 9 22 9q18 0 30 -11.5t12 -24.5z" />
    <glyph glyph-name="dotaccent" unicode="&#x2d9;" horiz-adv-x="319" 
d="M245 627q0 -30 -22.5 -46t-62.5 -16q-86 0 -86 57q0 30 23.5 47t63.5 17q39 0 61.5 -15.5t22.5 -43.5z" />
    <glyph glyph-name="ring" unicode="&#x2da;" horiz-adv-x="413" 
d="M332 663q0 -54 -36.5 -87t-89.5 -33q-52 0 -88.5 31.5t-36.5 84.5q0 54 37 88t88 34q53 0 89.5 -31.5t36.5 -86.5zM259 661q0 23 -13.5 38.5t-39.5 15.5q-24 0 -38 -15.5t-14 -38.5q0 -22 14 -37.5t38 -15.5q25 0 39 15.5t14 37.5z" />
    <glyph glyph-name="ogonek" unicode="&#x2db;" horiz-adv-x="365" 
d="M215 -138q13 0 27 7t23 7q15 0 26 -11.5t11 -31.5q0 -31 -44 -49q-34 -16 -78 -16q-54 0 -83.5 27t-29.5 73q0 54 37.5 100.5t103.5 72.5l54 -31q-43 -20 -64 -50.5t-21 -57.5q0 -40 38 -40z" />
    <glyph glyph-name="tilde" unicode="&#x2dc;" horiz-adv-x="503" 
d="M391 700q13 0 27 -11t14 -26q0 -11 -13 -33q-17 -28 -48 -47t-70 -19q-37 0 -69 18q-37 20 -52 20q-19 0 -39 -20q-14 -14 -28 -14t-27.5 10.5t-13.5 25.5q0 13 12 34q17 27 48.5 46.5t70.5 19.5q35 0 67 -18q38 -20 52 -20q19 0 42 21q13 13 27 13z" />
    <glyph glyph-name="hungarumlaut" unicode="&#x2dd;" horiz-adv-x="552" 
d="M267 699q0 -22 -25 -49q-9 -10 -47 -43.5t-53 -43.5q-14 -9 -29 -9q-14 0 -27.5 9t-13.5 25q0 10 6 22q5 9 38.5 55.5t43.5 59.5q20 25 48 25q22 0 40.5 -15t18.5 -36zM476 699q0 -22 -25 -49q-10 -11 -47.5 -44t-53.5 -43q-14 -9 -29 -9q-14 0 -27 9t-13 25q0 10 6 22
q5 10 39 57t43 58q20 25 48 25q21 0 40 -15t19 -36z" />
    <glyph glyph-name="uni03BC" unicode="&#x3bc;" horiz-adv-x="611" 
d="M588 70q0 -33 -44 -53q-42 -21 -81 -21q-28 0 -47 16t-24 43l-2 25q-25 -34 -63.5 -56t-80.5 -23q-17 0 -29 10q15 -57 15 -142q0 -72 -80 -72q-37 0 -59 16t-21 50q0 47 2.5 257.5t2.5 256.5q0 12 -7.5 19.5t-17 10t-17.5 9.5t-8 20q0 35 44 51q35 13 75 13
q37 0 61.5 -21.5t24.5 -53.5l-3 -248q0 -63 45 -63q15 0 37 9q27 12 47 39.5t20 56.5v215q0 34 22 50t58 16q79 0 79 -66v-303q0 -20 16 -24q35 -9 35 -37z" />
    <glyph glyph-name="pi" unicode="&#x3c0;" horiz-adv-x="631" 
d="M592 59q0 -33 -39 -48.5t-93 -15.5q-102 0 -102 81l3 301l-119 1q0 -172 -27 -314q-8 -39 -27.5 -53t-56.5 -14q-33 0 -53.5 18.5t-20.5 46.5q0 10 4 26q39 139 39 272q0 20 -19 26q-14 4 -21 7t-15 11.5t-8 20.5q0 61 133 61h370q23 0 35.5 -15t12.5 -39q0 -55 -50 -55
h-24v-252q0 -13 12 -19.5t27 -8.5t27 -11.5t12 -26.5z" />
    <glyph glyph-name="Wgrave" unicode="&#x1e80;" horiz-adv-x="976" 
d="M955 646q0 -16 -5 -31l-167 -518q-34 -105 -114 -105q-90 0 -117 95l-57 204l-59 -195q-31 -104 -121 -104q-47 0 -78 27.5t-43 73.5l-133 474q-3 11 -13.5 17.5t-20.5 9.5t-18.5 14.5t-8.5 31.5q0 31 39 46.5t74 15.5q98 0 114 -71l114 -457h6l91 311l-26 105
q-5 20 -5 35q0 76 97 76q65 0 77 -73l93 -453h6l133 459q9 34 25.5 48t52.5 14q64 0 64 -50zM367 895q0 23 21 40.5t46 17.5q30 0 50 -23q9 -11 42.5 -57.5t38.5 -55.5q6 -12 6 -22q0 -16 -15.5 -28.5t-31.5 -12.5t-30 10q-16 10 -54.5 43t-48.5 44q-24 24 -24 44z" />
    <glyph glyph-name="wgrave" unicode="&#x1e81;" horiz-adv-x="778" 
d="M762 423l-134 -342q-35 -87 -102 -87q-38 0 -65.5 20.5t-37.5 55.5l-39 142l-46 -136q-15 -40 -37 -61t-60 -21q-81 0 -107 80l-87 287q-9 32 -23 37q-34 13 -34 41q0 29 34.5 44t73.5 15q78 0 95 -68l75 -283h4l69 213l-17 54q-5 15 -5 25q0 30 25.5 45t60.5 15
q64 0 75 -64l60 -283h4l100 302q14 40 66 40q19 0 38.5 -11.5t19.5 -33.5q0 -11 -6 -26zM268 695q0 23 21 40.5t46 17.5q30 0 50 -23q9 -11 42.5 -57.5t38.5 -55.5q6 -12 6 -22q0 -16 -15.5 -28.5t-31.5 -12.5t-30 10q-16 10 -54.5 43t-48.5 44q-24 24 -24 44z" />
    <glyph glyph-name="Wacute" unicode="&#x1e82;" horiz-adv-x="976" 
d="M631 900q0 -27 -24 -49q-9 -10 -50 -43.5t-57 -43.5q-14 -10 -31 -10q-14 0 -27 10t-13 26q0 10 6 22q5 9 40 57.5t45 59.5q19 24 50 24q22 0 41.5 -15.5t19.5 -37.5zM955 646q0 -16 -5 -31l-167 -518q-34 -105 -114 -105q-90 0 -117 95l-57 204l-59 -195
q-31 -104 -121 -104q-47 0 -78 27.5t-43 73.5l-133 474q-3 11 -13.5 17.5t-20.5 9.5t-18.5 14.5t-8.5 31.5q0 31 39 46.5t74 15.5q98 0 114 -71l114 -457h6l91 311l-26 105q-5 20 -5 35q0 76 97 76q65 0 77 -73l93 -453h6l133 459q9 34 25.5 48t52.5 14q64 0 64 -50z" />
    <glyph glyph-name="wacute" unicode="&#x1e83;" horiz-adv-x="778" 
d="M530 700q0 -27 -24 -49q-9 -10 -50 -43.5t-57 -43.5q-14 -10 -31 -10q-14 0 -27 10t-13 26q0 10 6 22q5 9 40 57.5t45 59.5q19 24 50 24q22 0 41.5 -15.5t19.5 -37.5zM762 423l-134 -342q-35 -87 -102 -87q-38 0 -65.5 20.5t-37.5 55.5l-39 142l-46 -136q-15 -40 -37 -61
t-60 -21q-81 0 -107 80l-87 287q-9 32 -23 37q-34 13 -34 41q0 29 34.5 44t73.5 15q78 0 95 -68l75 -283h4l69 213l-17 54q-5 15 -5 25q0 30 25.5 45t60.5 15q64 0 75 -64l60 -283h4l100 302q14 40 66 40q19 0 38.5 -11.5t19.5 -33.5q0 -11 -6 -26z" />
    <glyph glyph-name="Wdieresis" unicode="&#x1e84;" horiz-adv-x="976" 
d="M475 828q0 -61 -83 -61q-80 0 -80 54q0 33 27.5 48t61.5 15q74 0 74 -56zM690 829q0 -34 -26.5 -48t-60.5 -14q-77 0 -77 57q0 60 84 60q80 0 80 -55zM955 646q0 -16 -5 -31l-167 -518q-34 -105 -114 -105q-90 0 -117 95l-57 204l-59 -195q-31 -104 -121 -104
q-47 0 -78 27.5t-43 73.5l-133 474q-3 11 -13.5 17.5t-20.5 9.5t-18.5 14.5t-8.5 31.5q0 31 39 46.5t74 15.5q98 0 114 -71l114 -457h6l91 311l-26 105q-5 20 -5 35q0 76 97 76q65 0 77 -73l93 -453h6l133 459q9 34 25.5 48t52.5 14q64 0 64 -50z" />
    <glyph glyph-name="wdieresis" unicode="&#x1e85;" horiz-adv-x="778" 
d="M376 628q0 -61 -83 -61q-80 0 -80 54q0 33 27.5 48t61.5 15q74 0 74 -56zM591 629q0 -34 -26.5 -48t-60.5 -14q-77 0 -77 57q0 60 84 60q80 0 80 -55zM762 423l-134 -342q-35 -87 -102 -87q-38 0 -65.5 20.5t-37.5 55.5l-39 142l-46 -136q-15 -40 -37 -61t-60 -21
q-81 0 -107 80l-87 287q-9 32 -23 37q-34 13 -34 41q0 29 34.5 44t73.5 15q78 0 95 -68l75 -283h4l69 213l-17 54q-5 15 -5 25q0 30 25.5 45t60.5 15q64 0 75 -64l60 -283h4l100 302q14 40 66 40q19 0 38.5 -11.5t19.5 -33.5q0 -11 -6 -26z" />
    <glyph glyph-name="Ygrave" unicode="&#x1ef2;" horiz-adv-x="621" 
d="M219 275l-156 296q-8 17 -25 23q-38 13 -38 43t35.5 47.5t77.5 17.5q82 0 113 -70l107 -229h4l132 249q13 24 28 34t42 10t48 -12t21 -38q0 -20 -12 -39l-198 -330v-209q0 -37 -25 -54.5t-64 -17.5q-90 0 -90 72v207zM198 895q0 23 21 40.5t46 17.5q30 0 50 -23
q9 -11 42.5 -57.5t38.5 -55.5q6 -12 6 -22q0 -16 -15.5 -28.5t-31.5 -12.5t-30 10q-16 10 -54.5 43t-48.5 44q-24 24 -24 44z" />
    <glyph glyph-name="ygrave" unicode="&#x1ef3;" horiz-adv-x="541" 
d="M51 -134q0 36 16 54t53 18q39 0 52 -16q5 -4 9 -4q11 0 18 19l33 77q-4 -1 -8 -1q-32 0 -45 31l-139 335q-7 15 -22 21q-33 14 -33 40q0 29 38 44t74 15q73 0 97 -67l96 -272h4l111 297q15 40 68 40q24 0 43.5 -12t19.5 -35q0 -12 -6 -27l-178 -438q-43 -108 -103 -154
q-48 -36 -115 -36q-83 0 -83 71zM157 695q0 23 21 40.5t46 17.5q30 0 50 -23q9 -11 42.5 -57.5t38.5 -55.5q6 -12 6 -22q0 -16 -15.5 -28.5t-31.5 -12.5t-30 10q-16 10 -54.5 43t-48.5 44q-24 24 -24 44z" />
    <glyph glyph-name="endash" unicode="&#x2013;" horiz-adv-x="695" 
d="M663 287q0 -63 -51 -63h-526q-27 0 -40 17.5t-13 45.5q0 63 53 63h526q51 0 51 -63z" />
    <glyph glyph-name="emdash" unicode="&#x2014;" horiz-adv-x="820" 
d="M787 287q0 -63 -51 -63h-650q-27 0 -40 17.5t-13 45.5q0 63 53 63h650q51 0 51 -63z" />
    <glyph glyph-name="quoteleft" unicode="&#x2018;" horiz-adv-x="290" 
d="M238 519q0 -34 -27 -59t-62 -25q-41 0 -65.5 27t-24.5 69q0 48 20 92t56 74q14 12 28 12q16 0 27 -11.5t11 -27.5q0 -12 -12 -33.5t-12 -31.5q0 -7 9.5 -13t21 -11.5t21 -21.5t9.5 -40z" />
    <glyph glyph-name="quoteright" unicode="&#x2019;" horiz-adv-x="290" 
d="M231 612q0 -47 -20 -91.5t-56 -74.5q-13 -11 -28 -11q-16 0 -27.5 11.5t-11.5 26.5q0 12 12.5 34.5t12.5 31.5q0 6 -9.5 12t-21 12t-21 22t-9.5 40q0 34 27.5 59t61.5 25q41 0 65.5 -27.5t24.5 -69.5z" />
    <glyph glyph-name="quotesinglbase" unicode="&#x201a;" horiz-adv-x="290" 
d="M231 60q0 -47 -20 -91t-56 -74q-14 -12 -27 -12q-17 0 -28.5 11.5t-11.5 27.5q0 11 12.5 33t12.5 32q0 6 -9.5 12.5t-21 12t-21 21.5t-9.5 41q0 34 27.5 58.5t61.5 24.5q41 0 65.5 -27.5t24.5 -69.5z" />
    <glyph glyph-name="quotedblleft" unicode="&#x201c;" horiz-adv-x="513" 
d="M461 519q0 -34 -27 -59t-61 -25q-42 0 -66.5 27t-24.5 69q0 47 20 92t56 74q15 12 29 12q16 0 27 -11.5t11 -27.5q0 -11 -12 -33t-12 -32q0 -7 9.5 -13t20.5 -11.5t20.5 -21.5t9.5 -40zM238 519q0 -34 -27 -59t-62 -25q-41 0 -65.5 27t-24.5 69q0 48 20 92t56 74
q14 12 28 12q16 0 27 -11.5t11 -27.5q0 -12 -12 -33.5t-12 -31.5q0 -7 9.5 -13t21 -11.5t21 -21.5t9.5 -40z" />
    <glyph glyph-name="quotedblright" unicode="&#x201d;" horiz-adv-x="513" 
d="M454 612q0 -47 -20 -92t-55 -74q-14 -11 -29 -11t-26.5 11.5t-11.5 26.5q0 12 12 34.5t12 31.5q0 6 -9.5 12t-21 12t-21 22t-9.5 40q0 34 27.5 59t61.5 25q42 0 66 -27.5t24 -69.5zM231 612q0 -47 -20 -91.5t-56 -74.5q-13 -11 -28 -11q-16 0 -27.5 11.5t-11.5 26.5
q0 12 12.5 34.5t12.5 31.5q0 6 -9.5 12t-21 12t-21 22t-9.5 40q0 34 27.5 59t61.5 25q41 0 65.5 -27.5t24.5 -69.5z" />
    <glyph glyph-name="quotedblbase" unicode="&#x201e;" horiz-adv-x="513" 
d="M454 60q0 -47 -20 -91.5t-55 -74.5q-15 -11 -28 -11q-16 0 -27.5 11.5t-11.5 27.5q0 11 12 33t12 32q0 7 -9.5 13t-21 12t-21 22t-9.5 40q0 34 27.5 58.5t61.5 24.5q42 0 66 -27.5t24 -69.5zM231 60q0 -47 -20 -91t-56 -74q-14 -12 -27 -12q-17 0 -28.5 11.5t-11.5 27.5
q0 11 12.5 33t12.5 32q0 7 -9.5 13t-21 12t-21 22t-9.5 40q0 34 27.5 58.5t61.5 24.5q41 0 65.5 -27.5t24.5 -69.5z" />
    <glyph glyph-name="dagger" unicode="&#x2020;" horiz-adv-x="578" 
d="M551 420q0 -57 -46 -57h-142v-222q0 -134 -18.5 -239.5t-56.5 -105.5q-36 0 -55 106t-19 239v222h-139q-48 0 -48 56t48 57h139v155q0 34 20.5 51.5t53.5 17.5t53.5 -17.5t20.5 -51.5v-155h143q46 0 46 -56z" />
    <glyph glyph-name="daggerdbl" unicode="&#x2021;" horiz-adv-x="591" 
d="M558 37q0 -25 -12 -41t-36 -16h-143v-111q0 -34 -19 -51.5t-53 -17.5t-53 17.5t-19 51.5v111h-142q-46 0 -46 57q0 56 46 56h142v98q0 23 12.5 40t12.5 20q0 1 -12.5 18t-12.5 41v97h-142q-48 0 -48 56q0 25 12 41t36 16h142v111q0 34 19 51.5t53 17.5t53 -17.5t19 -51.5
v-111h143q46 0 46 -57q0 -56 -46 -56h-143v-97q0 -24 -12 -41t-12 -18q0 -3 12 -20t12 -40v-98h143q48 0 48 -56z" />
    <glyph glyph-name="bullet" unicode="&#x2022;" horiz-adv-x="477" 
d="M377 288q0 -59 -42 -96.5t-102 -37.5q-56 0 -94.5 39.5t-38.5 94.5q0 59 41.5 99t101.5 40q57 0 95.5 -40.5t38.5 -98.5z" />
    <glyph glyph-name="ellipsis" unicode="&#x2026;" horiz-adv-x="784" 
d="M736 76q0 -37 -28 -63t-65 -26q-35 0 -60.5 23.5t-25.5 58.5q0 37 28 62.5t65 25.5q35 0 60.5 -23t25.5 -58zM482 76q0 -38 -27.5 -63.5t-65.5 -25.5q-35 0 -60.5 23.5t-25.5 58.5q0 37 27.5 62.5t64.5 25.5q35 0 61 -23t26 -58zM228 76q0 -37 -28 -63t-65 -26
q-35 0 -60.5 23.5t-25.5 58.5q0 37 28 62.5t65 25.5q35 0 60.5 -23t25.5 -58z" />
    <glyph glyph-name="perthousand" unicode="&#x2030;" horiz-adv-x="1182" 
d="M194 713q79 0 119.5 -47t40.5 -128q0 -80 -43 -134t-121 -54t-119 47.5t-41 128.5q0 79 43 133t121 54zM679 663q0 -17 -12 -32l-418 -601q-23 -34 -56 -34q-19 0 -39 10t-20 31q0 14 12 32l419 600q25 34 56 34q20 0 39 -10t19 -30zM623 350q78 0 119 -47.5t41 -127.5
t-43 -134t-121 -54t-119 47.5t-41 128.5q0 80 43 133.5t121 53.5zM248 538q0 94 -54 94q-57 0 -57 -108q0 -39 13 -66t40 -27q58 0 58 107zM677 175q0 96 -55 96q-58 0 -58 -110q0 -39 14 -66.5t41 -27.5q58 0 58 108zM992 350q78 0 119 -47.5t41 -127.5t-43 -134t-121 -54
t-119 47.5t-41 128.5q0 80 43 133.5t121 53.5zM1046 175q0 96 -55 96q-58 0 -58 -110q0 -39 14 -66.5t41 -27.5q58 0 58 108z" />
    <glyph glyph-name="guilsinglleft" unicode="&#x2039;" horiz-adv-x="299" 
d="M254 401l-79 -149q67 -127 75 -147q4 -9 4 -19q0 -22 -24 -36q-13 -7 -25 -7q-22 0 -38 18q-10 9 -55.5 70.5t-54.5 76.5q-13 23 -13 44q0 23 13 45q8 14 55.5 75.5t58.5 72.5q18 18 38 18q13 0 24 -7q25 -15 25 -36q0 -10 -4 -19z" />
    <glyph glyph-name="guilsinglright" unicode="&#x203a;" horiz-adv-x="299" 
d="M256 252q0 -21 -13 -44q-9 -15 -55 -76.5t-56 -70.5q-16 -18 -39 -18q-13 0 -24 7q-24 13 -24 35q0 11 4 20l76 147q-71 129 -79 149q-4 12 -4 19q0 22 24 36q13 7 25 7q21 0 39 -18q11 -12 58 -73t55 -75q13 -22 13 -45z" />
    <glyph glyph-name="fraction" unicode="&#x2044;" horiz-adv-x="454" 
d="M504 663q0 -16 -13 -33l-445 -628q-24 -35 -57 -35q-23 0 -41 11.5t-18 30.5q0 16 13 33l446 627q26 34 57 34q24 0 41 -11t17 -29z" />
    <glyph glyph-name="Euro" unicode="&#x20ac;" horiz-adv-x="685" 
d="M389 -21q-125 0 -196 64.5t-89 185.5h-49q-35 0 -35 42q0 40 35 40h44q0 35 3 68h-49q-35 0 -35 42q0 40 35 40h60q29 112 105.5 177t179.5 65q143 0 211 -84q18 -25 18 -44q0 -20 -18.5 -37.5t-41.5 -17.5q-18 0 -41 19q-25 23 -49 32t-62 9q-104 0 -140 -119h147
q42 0 42 -31q0 -23 -12.5 -37t-33.5 -14h-157q-2 -11 -2 -36q-1 -6 -1 -32h132q42 0 42 -31q0 -23 -12.5 -37t-33.5 -14h-120q25 -127 142 -127q67 0 128 53q20 18 40 18q22 0 40.5 -17.5t18.5 -37.5q0 -27 -23 -53q-81 -86 -223 -86z" />
    <glyph glyph-name="afii61289" unicode="&#x2113;" horiz-adv-x="538" 
d="M28 245q0 18 7.5 29.5t28.5 23.5l53 33v188q0 70 29 114.5t68 60t86 15.5q75 0 125.5 -37t50.5 -121q0 -100 -81 -187q-37 -41 -131 -103v-58q0 -97 75 -97q38 0 67 11q21 8 36 8q22 0 36.5 -14.5t14.5 -38.5q0 -27 -26 -43q-56 -35 -155 -35q-100 0 -147.5 48t-47.5 125
v38l-10 -5q-18 -9 -32 -9q-22 0 -34.5 16.5t-12.5 37.5zM264 533v-141q46 38 64 75t18 83q0 61 -39 61q-21 0 -32 -16.5t-11 -61.5z" />
    <glyph glyph-name="trademark" unicode="&#x2122;" horiz-adv-x="936" 
d="M908 304q0 -23 -24 -33.5t-51 -10.5q-68 0 -68 67l2 196l-5 1l-63 -131q-13 -30 -42 -30q-28 0 -41 30l-60 132h-5l-1 -220q0 -45 -45 -45t-43 44l2 300q0 12 -6 14q-24 11 -24 27q0 46 84 46q48 0 73 -45l82 -157h3l79 159q19 43 63 43q27 0 42 -11.5t14 -35.5l-2 -296
q0 -10 18 -19t18 -25zM391 649q0 -18 -11.5 -31.5t-28.5 -13.5q-9 0 -29 1t-31 1q-33 0 -33 -8v-291q0 -46 -57 -46q-58 0 -58 46v292q0 8 -36 8q-8 0 -27 -1.5t-31 -1.5q-16 0 -26 12t-10 29q0 19 11.5 30t30.5 11h296q18 0 29 -9.5t11 -27.5z" />
    <glyph glyph-name="estimated" unicode="&#x212e;" horiz-adv-x="717" 
d="M159 293v-158q0 -10 12 -27q65 -82 200 -82q69 0 133 24.5t98 65.5l39 -3q-45 -57 -117.5 -88t-153.5 -31q-141 0 -230.5 92t-89.5 226q0 131 91 224.5t219 93.5q131 0 219 -88.5t88 -233.5v-15h-508zM159 325h402v166q0 13 -11 28q-62 79 -189 79q-116 0 -190 -80
q-12 -14 -12 -29v-164z" />
    <glyph glyph-name="minus" unicode="&#x2212;" horiz-adv-x="586" 
d="M503 271h-418q-25 0 -37.5 16t-12.5 42t12.5 42t37.5 16h418q48 0 48 -58t-48 -58z" />
    <glyph glyph-name="uni2215" unicode="&#x2215;" horiz-adv-x="454" 
d="M504 663q0 -16 -13 -33l-445 -628q-24 -35 -57 -35q-23 0 -41 11.5t-18 30.5q0 16 13 33l446 627q26 34 57 34q24 0 41 -11t17 -29z" />
    <glyph glyph-name="uni2219" unicode="&#x2219;" horiz-adv-x="276" 
d="M228 346q0 -37 -27.5 -62t-65.5 -25q-35 0 -60.5 23.5t-25.5 58.5q0 37 27.5 62t64.5 25q35 0 61 -23.5t26 -58.5z" />
    <glyph glyph-name="ff" unicode="&#xfb00;" horiz-adv-x="643" 
d="M422 621v-9q56 93 170 93q72 0 107 -20q31 -16 31 -58q0 -71 -68 -71q-51 0 -67 39q-6 14 -20 14q-38 0 -38 -64q0 -6 1 -30t1 -29l29 -4q17 -2 27.5 -5t19 -14t8.5 -29q0 -31 -18.5 -42.5t-54.5 -16.5l-12 -2v-310q0 -34 -22.5 -50.5t-58.5 -16.5q-81 0 -81 67l1 353
q0 87 23 150q-16 -12 -47 -12q-53 0 -66 39q-6 14 -20 14q-28 0 -28 -67q0 -47 1 -54l22 -3q52 -5 52 -49q0 -52 -65 -60l-10 -1v-310q0 -34 -22.5 -50.5t-57.5 -16.5q-81 0 -81 67v291q0 11 -4.5 18t-9.5 9.5t-15 5.5q-29 7 -29 38q0 23 16.5 36t46.5 24q25 215 200 215
q56 0 91 -13q48 -17 48 -66z" />
    <glyph glyph-name="i.dot" horiz-adv-x="297" 
d="M234 640q0 -63 -94 -63q-88 0 -88 57q0 33 31 48.5t68 15.5q83 0 83 -58zM274 56q0 -33 -34.5 -46.5t-78.5 -13.5q-104 0 -104 98v339q0 34 23 50.5t58 16.5q81 0 81 -67l-1 -312q0 -12 9 -19t19 -10.5t19 -12.5t9 -23z" />
    <glyph glyph-name="caron.alt" horiz-adv-x="344" 
d="M182 701q25 0 43.5 -11t18.5 -33q0 -29 -19 -77t-41 -81q-15 -25 -41 -25q-15 0 -29 8.5t-14 23.5q0 4 4 26q15 61 22 119q8 50 56 50z" />
    <glyph glyph-name="commaaccent" horiz-adv-x="302" 
d="M234 -109q0 -63 -74 -123q-12 -10 -27 -10q-13 0 -23.5 8.5t-10.5 20.5q0 11 9 24q10 13 10 22t-13 16q-12 6 -18.5 10.5t-12.5 14t-6 22.5q0 29 24 44t60 15q82 0 82 -64z" />
    <glyph glyph-name="commaaccent.g" horiz-adv-x="302" 
d="M68 628q0 60 74 122q12 10 27 10q13 0 23.5 -9t10.5 -21q0 -10 -9 -24q-10 -11 -10 -22q0 -10 13 -16q12 -6 18.5 -10t12.5 -13.5t6 -22.5q0 -30 -23.5 -44.5t-60.5 -14.5q-82 0 -82 65z" />
    <glyph glyph-name="a.sb" horiz-adv-x="590" 
d="M24 225q0 125 66 205.5t186 80.5q62 0 120 -42q7 -4 16 -4q6 0 26.5 15t36.5 15q41 0 41 -46v-320q0 -16 28 -28q22 -10 22 -31q0 -34 -42.5 -54t-82.5 -20q-29 0 -48 17t-24 45l-1 8q-65 -75 -157 -75q-50 0 -87.5 19.5t-58.5 53.5t-31 74t-10 87zM177 250
q0 -145 88 -145q41 0 67 33t26 75v139q0 21 -21 39t-45 18q-56 0 -85.5 -44.5t-29.5 -114.5z" />
    <glyph glyph-name="aacute.sb" horiz-adv-x="590" 
d="M426 700q0 -27 -24 -49q-9 -10 -50 -43.5t-57 -43.5q-14 -10 -31 -10q-14 0 -27 10t-13 26q0 10 6 22q5 9 40 57.5t45 59.5q19 24 50 24q22 0 41.5 -15.5t19.5 -37.5zM24 225q0 125 66 205.5t186 80.5q62 0 120 -42q7 -4 16 -4q6 0 26.5 15t36.5 15q41 0 41 -46v-320
q0 -16 28 -28q22 -10 22 -31q0 -34 -42.5 -54t-82.5 -20q-29 0 -48 17t-24 45l-1 8q-65 -75 -157 -75q-50 0 -87.5 19.5t-58.5 53.5t-31 74t-10 87zM177 250q0 -145 88 -145q41 0 67 33t26 75v139q0 21 -21 39t-45 18q-56 0 -85.5 -44.5t-29.5 -114.5z" />
    <glyph glyph-name="agrave.sb" horiz-adv-x="590" 
d="M24 225q0 125 66 205.5t186 80.5q62 0 120 -42q7 -4 16 -4q6 0 26.5 15t36.5 15q41 0 41 -46v-320q0 -16 28 -28q22 -10 22 -31q0 -34 -42.5 -54t-82.5 -20q-29 0 -48 17t-24 45l-1 8q-65 -75 -157 -75q-50 0 -87.5 19.5t-58.5 53.5t-31 74t-10 87zM177 250
q0 -145 88 -145q41 0 67 33t26 75v139q0 21 -21 39t-45 18q-56 0 -85.5 -44.5t-29.5 -114.5zM160 695q0 23 21 40.5t46 17.5q30 0 50 -23q9 -11 42.5 -57.5t38.5 -55.5q6 -12 6 -22q0 -16 -15.5 -28.5t-31.5 -12.5t-30 10q-16 10 -54.5 43t-48.5 44q-24 24 -24 44z" />
    <glyph glyph-name="acircumflex.sb" horiz-adv-x="590" 
d="M454 602q0 -13 -12.5 -25.5t-28.5 -12.5q-9 0 -19 3q-12 4 -48.5 25.5t-60.5 37.5q-80 -54 -107 -63q-9 -3 -19 -3q-12 0 -24.5 10t-12.5 26q0 14 14 31q10 11 52 50.5t56 48.5q18 12 44 12t45 -12q13 -8 54 -46t54 -52t13 -30zM24 225q0 125 66 205.5t186 80.5
q62 0 120 -42q7 -4 16 -4q6 0 26.5 15t36.5 15q41 0 41 -46v-320q0 -16 28 -28q22 -10 22 -31q0 -34 -42.5 -54t-82.5 -20q-29 0 -48 17t-24 45l-1 8q-65 -75 -157 -75q-50 0 -87.5 19.5t-58.5 53.5t-31 74t-10 87zM177 250q0 -145 88 -145q41 0 67 33t26 75v139
q0 21 -21 39t-45 18q-56 0 -85.5 -44.5t-29.5 -114.5z" />
    <glyph glyph-name="adieresis.sb" horiz-adv-x="590" 
d="M261 628q0 -61 -83 -61q-80 0 -80 54q0 33 27.5 48t61.5 15q74 0 74 -56zM476 629q0 -34 -26.5 -48t-60.5 -14q-77 0 -77 57q0 60 84 60q80 0 80 -55zM24 225q0 125 66 205.5t186 80.5q62 0 120 -42q7 -4 16 -4q6 0 26.5 15t36.5 15q41 0 41 -46v-320q0 -16 28 -28
q22 -10 22 -31q0 -34 -42.5 -54t-82.5 -20q-29 0 -48 17t-24 45l-1 8q-65 -75 -157 -75q-50 0 -87.5 19.5t-58.5 53.5t-31 74t-10 87zM177 250q0 -145 88 -145q41 0 67 33t26 75v139q0 21 -21 39t-45 18q-56 0 -85.5 -44.5t-29.5 -114.5z" />
    <glyph glyph-name="atilde.sb" horiz-adv-x="590" 
d="M24 225q0 125 66 205.5t186 80.5q62 0 120 -42q7 -4 16 -4q6 0 26.5 15t36.5 15q41 0 41 -46v-320q0 -16 28 -28q22 -10 22 -31q0 -34 -42.5 -54t-82.5 -20q-29 0 -48 17t-24 45l-1 8q-65 -75 -157 -75q-50 0 -87.5 19.5t-58.5 53.5t-31 74t-10 87zM177 250
q0 -145 88 -145q41 0 67 33t26 75v139q0 21 -21 39t-45 18q-56 0 -85.5 -44.5t-29.5 -114.5zM431 700q13 0 27 -11t14 -26q0 -11 -13 -33q-17 -28 -48 -47t-70 -19q-37 0 -69 18q-37 20 -52 20q-19 0 -39 -20q-14 -14 -28 -14t-27.5 10.5t-13.5 25.5q0 13 12 34
q17 27 48.5 46.5t70.5 19.5q35 0 67 -18q38 -20 52 -20q19 0 42 21q13 13 27 13z" />
    <glyph glyph-name="amacron.sb" horiz-adv-x="590" 
d="M24 225q0 125 66 205.5t186 80.5q62 0 120 -42q7 -4 16 -4q6 0 26.5 15t36.5 15q41 0 41 -46v-320q0 -16 28 -28q22 -10 22 -31q0 -34 -42.5 -54t-82.5 -20q-29 0 -48 17t-24 45l-1 8q-65 -75 -157 -75q-50 0 -87.5 19.5t-58.5 53.5t-31 74t-10 87zM177 250
q0 -145 88 -145q41 0 67 33t26 75v139q0 21 -21 39t-45 18q-56 0 -85.5 -44.5t-29.5 -114.5zM461 628q0 -21 -11.5 -35.5t-31.5 -14.5h-259q-20 0 -31.5 14.5t-11.5 35.5q0 22 11.5 36.5t31.5 14.5h259q20 0 31.5 -14.5t11.5 -36.5z" />
    <glyph glyph-name="aring.sb" horiz-adv-x="590" 
d="M24 225q0 125 66 205.5t186 80.5q62 0 120 -42q7 -4 16 -4q6 0 26.5 15t36.5 15q41 0 41 -46v-320q0 -16 28 -28q22 -10 22 -31q0 -34 -42.5 -54t-82.5 -20q-29 0 -48 17t-24 45l-1 8q-65 -75 -157 -75q-50 0 -87.5 19.5t-58.5 53.5t-31 74t-10 87zM177 250
q0 -145 88 -145q41 0 67 33t26 75v139q0 21 -21 39t-45 18q-56 0 -85.5 -44.5t-29.5 -114.5zM413 663q0 -54 -36.5 -87t-89.5 -33q-52 0 -88.5 31.5t-36.5 84.5q0 54 37 88t88 34q53 0 89.5 -31.5t36.5 -86.5zM340 661q0 23 -13.5 38.5t-39.5 15.5q-24 0 -38 -15.5
t-14 -38.5q0 -22 14 -37.5t38 -15.5q25 0 39 15.5t14 37.5z" />
    <glyph glyph-name="abreve.sb" horiz-adv-x="590" 
d="M24 225q0 125 66 205.5t186 80.5q62 0 120 -42q7 -4 16 -4q6 0 26.5 15t36.5 15q41 0 41 -46v-320q0 -16 28 -28q22 -10 22 -31q0 -34 -42.5 -54t-82.5 -20q-29 0 -48 17t-24 45l-1 8q-65 -75 -157 -75q-50 0 -87.5 19.5t-58.5 53.5t-31 74t-10 87zM177 250
q0 -145 88 -145q41 0 67 33t26 75v139q0 21 -21 39t-45 18q-56 0 -85.5 -44.5t-29.5 -114.5zM460 691q0 -15 -11 -35q-19 -34 -59.5 -64t-100.5 -30q-92 0 -146 72q-20 25 -20 52q0 16 13 28.5t32 12.5q13 0 25 -10q26 -27 47.5 -38.5t50.5 -11.5q55 0 105 51q9 9 22 9
q18 0 30 -11.5t12 -24.5z" />
    <glyph glyph-name="aogonek.sb" horiz-adv-x="590" 
d="M334 -129q0 83 76 137q-31 16 -40 50l-1 8q-66 -75 -158 -75q-50 0 -87.5 19.5t-58.5 53.5t-31 74t-10 87q0 125 66 205.5t186 80.5q62 0 120 -42q7 -4 16 -4q6 0 26.5 15t36.5 15q41 0 41 -46v-320q0 -18 25 -26q26 -10 26 -33q0 -18 -9.5 -29.5t-33.5 -27.5
q-79 -48 -79 -108q0 -38 38 -38q13 0 27 7t23 7q15 0 25.5 -11.5t10.5 -31.5q0 -27 -38 -47q-33 -18 -83 -18q-54 0 -84 26t-30 72zM177 250q0 -145 88 -145q41 0 67 33t26 75v139q0 21 -21 39t-45 18q-56 0 -85.5 -44.5t-29.5 -114.5z" />
    <glyph glyph-name="ae.sb" horiz-adv-x="879" 
d="M45 222q0 123 71.5 206t192.5 83q80 0 155 -35q12 -5 20 -5q10 0 28 9q54 30 112 30q110 0 167.5 -63t57.5 -147q0 -90 -87 -90l-222 -1q-11 0 -11 -15q0 -48 29.5 -75t83.5 -27q55 0 110 42q17 14 34 14q20 0 33.5 -15t13.5 -32q0 -20 -16 -39q-28 -33 -83 -55t-120 -22
q-134 0 -189 93q-71 -89 -192 -89q-94 0 -141 67t-47 166zM687 300q17 0 17 21q0 39 -20.5 64t-57.5 25q-44 0 -68 -29t-26 -81h155zM378 213l6 161q1 21 -17 28t-47 7q-56 0 -89.5 -49t-33.5 -118q0 -137 84 -137q40 0 68 33.5t29 74.5z" />
    <glyph glyph-name="aeacute.sb" horiz-adv-x="879" 
d="M618 700q0 -27 -24 -49q-9 -10 -50 -43.5t-57 -43.5q-14 -10 -31 -10q-14 0 -27 10t-13 26q0 10 6 22q5 9 40 57.5t45 59.5q19 24 50 24q22 0 41.5 -15.5t19.5 -37.5zM45 222q0 123 71.5 206t192.5 83q80 0 155 -35q12 -5 20 -5q10 0 28 9q54 30 112 30q110 0 167.5 -63
t57.5 -147q0 -90 -87 -90l-222 -1q-11 0 -11 -15q0 -48 29.5 -75t83.5 -27q55 0 110 42q17 14 34 14q20 0 33.5 -15t13.5 -32q0 -20 -16 -39q-28 -33 -83 -55t-120 -22q-134 0 -189 93q-71 -89 -192 -89q-94 0 -141 67t-47 166zM687 300q17 0 17 21q0 39 -20.5 64t-57.5 25
q-44 0 -68 -29t-26 -81h155zM378 213l6 161q1 21 -17 28t-47 7q-56 0 -89.5 -49t-33.5 -118q0 -137 84 -137q40 0 68 33.5t29 74.5z" />
    <glyph glyph-name="g.sb" horiz-adv-x="578" 
d="M360 -25v105h-4q-51 -69 -143 -69t-139.5 60t-47.5 154q0 126 67 206t187 80q58 0 118 -41q8 -5 17 -5q5 0 25.5 15t36.5 15q41 0 41 -46v-435q0 -103 -70 -163t-189 -60q-127 0 -186 46q-38 24 -38 74q0 62 72 62q64 0 78 -44q5 -20 21 -30.5t56 -10.5q46 0 72 22t26 65
zM361 233v117q0 23 -21.5 41t-44.5 18q-57 0 -86.5 -44.5t-29.5 -114.5q0 -52 20.5 -88.5t68.5 -36.5q40 0 66.5 33.5t26.5 74.5z" />
    <glyph glyph-name="gcircumflex.sb" horiz-adv-x="578" 
d="M360 -25v105h-4q-51 -69 -143 -69t-139.5 60t-47.5 154q0 126 67 206t187 80q58 0 118 -41q8 -5 17 -5q5 0 25.5 15t36.5 15q41 0 41 -46v-435q0 -103 -70 -163t-189 -60q-127 0 -186 46q-38 24 -38 74q0 62 72 62q64 0 78 -44q5 -20 21 -30.5t56 -10.5q46 0 72 22t26 65
zM361 233v117q0 23 -21.5 41t-44.5 18q-57 0 -86.5 -44.5t-29.5 -114.5q0 -52 20.5 -88.5t68.5 -36.5q40 0 66.5 33.5t26.5 74.5zM453 602q0 -13 -12.5 -25.5t-28.5 -12.5q-8 0 -19 3q-12 4 -48.5 25.5t-60.5 37.5q-80 -54 -107 -63q-9 -3 -19 -3q-12 0 -24.5 10t-12.5 26
q0 14 14 31q10 11 52 50.5t56 48.5q18 12 44 12t45 -12q13 -8 54 -46t54 -52t13 -30z" />
    <glyph glyph-name="gbreve.sb" horiz-adv-x="578" 
d="M360 -25v105h-4q-51 -69 -143 -69t-139.5 60t-47.5 154q0 126 67 206t187 80q58 0 118 -41q8 -5 17 -5q5 0 25.5 15t36.5 15q41 0 41 -46v-435q0 -103 -70 -163t-189 -60q-127 0 -186 46q-38 24 -38 74q0 62 72 62q64 0 78 -44q5 -20 21 -30.5t56 -10.5q46 0 72 22t26 65
zM361 233v117q0 23 -21.5 41t-44.5 18q-57 0 -86.5 -44.5t-29.5 -114.5q0 -52 20.5 -88.5t68.5 -36.5q40 0 66.5 33.5t26.5 74.5zM460 691q0 -15 -11 -35q-19 -34 -59.5 -64t-100.5 -30q-92 0 -146 72q-20 25 -20 52q0 16 13 28.5t32 12.5q13 0 25 -10q26 -27 47.5 -38.5
t50.5 -11.5q55 0 105 51q9 9 22 9q18 0 30 -11.5t12 -24.5z" />
    <glyph glyph-name="gdotaccent.sb" horiz-adv-x="578" 
d="M360 -25v105h-4q-51 -69 -143 -69t-139.5 60t-47.5 154q0 126 67 206t187 80q58 0 118 -41q8 -5 17 -5q5 0 25.5 15t36.5 15q41 0 41 -46v-435q0 -103 -70 -163t-189 -60q-127 0 -186 46q-38 24 -38 74q0 62 72 62q64 0 78 -44q5 -20 21 -30.5t56 -10.5q46 0 72 22t26 65
zM361 233v117q0 23 -21.5 41t-44.5 18q-57 0 -86.5 -44.5t-29.5 -114.5q0 -52 20.5 -88.5t68.5 -36.5q40 0 66.5 33.5t26.5 74.5zM372 627q0 -30 -22.5 -46t-62.5 -16q-86 0 -86 57q0 30 23.5 47t63.5 17q39 0 61.5 -15.5t22.5 -43.5z" />
    <glyph glyph-name="gcommaaccent.sb" horiz-adv-x="578" 
d="M360 -25v105h-4q-51 -69 -143 -69t-139.5 60t-47.5 154q0 126 67 206t187 80q58 0 118 -41q8 -5 17 -5q5 0 25.5 15t36.5 15q41 0 41 -46v-435q0 -103 -70 -163t-189 -60q-127 0 -186 46q-38 24 -38 74q0 62 72 62q64 0 78 -44q5 -20 21 -30.5t56 -10.5q46 0 72 22t26 65
zM361 233v117q0 23 -21.5 41t-44.5 18q-57 0 -86.5 -44.5t-29.5 -114.5q0 -52 20.5 -88.5t68.5 -36.5q40 0 66.5 33.5t26.5 74.5zM202 628q0 60 74 122q12 10 27 10q13 0 23.5 -9t10.5 -21q0 -10 -9 -24q-10 -11 -10 -22q0 -10 13 -16q12 -6 18.5 -10t12.5 -13.5t6 -22.5
q0 -30 -23.5 -44.5t-60.5 -14.5q-82 0 -82 65z" />
    <glyph glyph-name="y.sb" horiz-adv-x="583" 
d="M59 140l3 236q0 22 -20 29q-29 8 -29 33q0 18 12.5 31t32.5 19.5t38 9t36 2.5q37 0 61.5 -22t24.5 -57q-2 -102 -2 -239q0 -56 42 -56q25 0 46 12q24 13 42 40t18 54v202q0 66 80 66q79 0 79 -66v-423q0 -102 -69.5 -161t-189.5 -59q-121 0 -180 46q-38 24 -38 74
q0 62 72 62q66 0 78 -44q6 -21 20.5 -31t50.5 -10q99 0 99 89v106h-3q-60 -78 -173 -78q-60 0 -96 37.5t-35 97.5z" />
    <glyph glyph-name="yacute.sb" horiz-adv-x="583" 
d="M425 700q0 -27 -24 -49q-9 -10 -50 -43.5t-57 -43.5q-14 -10 -31 -10q-14 0 -27 10t-13 26q0 10 6 22q5 9 40 57.5t45 59.5q19 24 50 24q22 0 41.5 -15.5t19.5 -37.5zM59 140l3 236q0 22 -20 29q-29 8 -29 33q0 18 12.5 31t32.5 19.5t38 9t36 2.5q37 0 61.5 -22t24.5 -57
q-2 -102 -2 -239q0 -56 42 -56q25 0 46 12q24 13 42 40t18 54v202q0 66 80 66q79 0 79 -66v-423q0 -102 -69.5 -161t-189.5 -59q-121 0 -180 46q-38 24 -38 74q0 62 72 62q66 0 78 -44q6 -21 20.5 -31t50.5 -10q99 0 99 89v106h-3q-60 -78 -173 -78q-60 0 -96 37.5t-35 97.5
z" />
    <glyph glyph-name="ygrave.sb" horiz-adv-x="583" 
d="M59 140l3 236q0 22 -20 29q-29 8 -29 33q0 18 12.5 31t32.5 19.5t38 9t36 2.5q37 0 61.5 -22t24.5 -57q-2 -102 -2 -239q0 -56 42 -56q25 0 46 12q24 13 42 40t18 54v202q0 66 80 66q79 0 79 -66v-423q0 -102 -69.5 -161t-189.5 -59q-121 0 -180 46q-38 24 -38 74
q0 62 72 62q66 0 78 -44q6 -21 20.5 -31t50.5 -10q99 0 99 89v106h-3q-60 -78 -173 -78q-60 0 -96 37.5t-35 97.5zM157 695q0 23 21 40.5t46 17.5q30 0 50 -23q9 -11 42.5 -57.5t38.5 -55.5q6 -12 6 -22q0 -16 -15.5 -28.5t-31.5 -12.5t-30 10q-16 10 -54.5 43t-48.5 44
q-24 24 -24 44z" />
    <glyph glyph-name="ycircumflex.sb" horiz-adv-x="583" 
d="M458 602q0 -13 -12.5 -25.5t-28.5 -12.5q-9 0 -19 3q-12 4 -48.5 25.5t-60.5 37.5q-80 -54 -107 -63q-9 -3 -19 -3q-12 0 -24.5 10t-12.5 26q0 14 14 31q10 11 52 50.5t56 48.5q18 12 44 12t45 -12q13 -8 54 -46t54 -52t13 -30zM59 140l3 236q0 22 -20 29q-29 8 -29 33
q0 18 12.5 31t32.5 19.5t38 9t36 2.5q37 0 61.5 -22t24.5 -57q-2 -102 -2 -239q0 -56 42 -56q25 0 46 12q24 13 42 40t18 54v202q0 66 80 66q79 0 79 -66v-423q0 -102 -69.5 -161t-189.5 -59q-121 0 -180 46q-38 24 -38 74q0 62 72 62q66 0 78 -44q6 -21 20.5 -31t50.5 -10
q99 0 99 89v106h-3q-60 -78 -173 -78q-60 0 -96 37.5t-35 97.5z" />
    <glyph glyph-name="ydieresis.sb" horiz-adv-x="583" 
d="M264 628q0 -61 -83 -61q-80 0 -80 54q0 33 27.5 48t61.5 15q74 0 74 -56zM479 629q0 -34 -26.5 -48t-60.5 -14q-77 0 -77 57q0 60 84 60q80 0 80 -55zM59 140l3 236q0 22 -20 29q-29 8 -29 33q0 18 12.5 31t32.5 19.5t38 9t36 2.5q37 0 61.5 -22t24.5 -57
q-2 -102 -2 -239q0 -56 42 -56q25 0 46 12q24 13 42 40t18 54v202q0 66 80 66q79 0 79 -66v-423q0 -102 -69.5 -161t-189.5 -59q-121 0 -180 46q-38 24 -38 74q0 62 72 62q66 0 78 -44q6 -21 20.5 -31t50.5 -10q99 0 99 89v106h-3q-60 -78 -173 -78q-60 0 -96 37.5t-35 97.5
z" />
    </font>
</defs>
</svg>
